<?xml version="1.0" encoding="utf-8"?>
<!-- Generator: Adobe Illustrator 21.0.2, SVG Export Plug-In . SVG Version: 6.00 Build 0)  -->
<svg version="1.1" id="Layer_1" xmlns="http://www.w3.org/2000/svg" xmlns:xlink="http://www.w3.org/1999/xlink" x="0px" y="0px"
	 viewBox="0 0 15 14" style="enable-background:new 0 0 15 14;" xml:space="preserve">
<style type="text/css">
	.st0{fill:#512DA8;}
	.st1{fill:#B39DDB;}
	.st2{fill:#311B92;}
	.st3{fill:#5E35B1;}
	.st4{fill:#9575CD;}
	.st5{fill:#4527A0;}
	.st6{fill:#7E57C2;}
</style>
<g>
	<polygon class="st0" points="2.3,4.4 2.3,4.5 8.7,9.7 7.8,7.3 8.7,5.3 2.3,4.5 	"/>
	<g>
		<path class="st0" d="M2,4.7c2.1,1.7,4.3,3.5,6.4,5.2c0.3,0.2,0.8,0,0.6-0.4C8.8,8.9,8.3,8,8.2,7.3c0,0,0,0.1,0.1-0.1
			C8.4,7,8.5,6.7,8.6,6.5C8.7,6.2,8.9,5.8,9,5.4C9.2,5.1,8.9,5,8.7,4.9C6.6,4.6,4.4,4.4,2.3,4.1C1.8,4,1.8,4.8,2.3,4.8
			c2.1,0.3,4.3,0.6,6.4,0.9C8.6,5.5,8.4,5.4,8.3,5.2C8.1,5.8,7.4,6.8,7.5,7.4c0,0.7,0.6,1.6,0.9,2.3c0.2-0.1,0.4-0.2,0.6-0.4
			C6.8,7.7,4.7,5.9,2.5,4.2C2.2,3.9,1.6,4.4,2,4.7z"/>
	</g>
</g>
<g>
	<polygon class="st1" points="13.6,5.4 14,4.4 12.8,4.6 	"/>
	<g>
		<path class="st1" d="M13.8,5.5c0.1-0.4,0.2-0.7,0.3-1.1c0-0.1-0.1-0.2-0.2-0.2c-0.4,0.1-0.8,0.1-1.2,0.2c-0.1,0-0.1,0.2-0.1,0.3
			C13,5,13.2,5.3,13.5,5.5c0.1,0.1,0.3-0.1,0.2-0.2c-0.3-0.3-0.6-0.6-0.9-0.9c0,0.1,0,0.2-0.1,0.3c0.4-0.1,0.8-0.1,1.2-0.2
			c-0.1-0.1-0.1-0.1-0.2-0.2c-0.1,0.4-0.2,0.7-0.3,1.1C13.4,5.6,13.7,5.7,13.8,5.5z"/>
	</g>
</g>
<g>
	<polygon class="st2" points="10.9,9.1 9.8,9.9 11.1,10.4 	"/>
	<g>
		<path class="st2" d="M10.9,9c-0.4,0.3-0.7,0.5-1.1,0.8c-0.1,0.1-0.1,0.2,0,0.3c0.4,0.2,0.9,0.4,1.3,0.5c0.1,0,0.2-0.1,0.2-0.2
			c-0.1-0.4-0.1-0.9-0.2-1.3c0-0.2-0.3-0.1-0.3,0.1c0.1,0.4,0.1,0.9,0.2,1.3c0.1-0.1,0.1-0.1,0.2-0.2c-0.4-0.2-0.9-0.4-1.3-0.5
			c0,0.1,0,0.2,0,0.3c0.4-0.3,0.7-0.5,1.1-0.8C11.2,9.1,11,8.9,10.9,9z"/>
	</g>
</g>
<g>
	<polygon class="st3" points="9.5,8.8 8.7,9.7 9.8,9.9 	"/>
	<g>
		<path class="st3" d="M9.4,8.7C9.2,9,8.9,9.3,8.6,9.6c-0.1,0.1,0,0.2,0.1,0.3C9,9.9,9.4,10,9.8,10.1c0.1,0,0.2-0.1,0.2-0.2
			C9.9,9.5,9.8,9.1,9.7,8.8c0-0.2-0.3-0.1-0.3,0.1C9.5,9.2,9.6,9.6,9.7,10c0.1-0.1,0.1-0.1,0.2-0.2C9.5,9.7,9.1,9.6,8.7,9.5
			c0,0.1,0,0.2,0.1,0.3c0.3-0.3,0.6-0.6,0.9-0.9C9.8,8.8,9.6,8.6,9.4,8.7z"/>
	</g>
</g>
<g>
	<polygon class="st2" points="10,6.3 11.2,5 8.7,5.3 	"/>
	<g>
		<path class="st2" d="M10.1,6.4c0.4-0.4,0.8-0.9,1.2-1.3c0.1-0.1,0-0.3-0.1-0.3C10.4,4.9,9.5,5,8.7,5.2c-0.2,0-0.2,0.2-0.1,0.3
			c0.4,0.3,0.9,0.7,1.3,1c0.2,0.1,0.3-0.1,0.2-0.3c-0.4-0.3-0.9-0.7-1.3-1c0,0.1-0.1,0.2-0.1,0.3c0.8-0.1,1.7-0.2,2.5-0.3
			c0-0.1-0.1-0.2-0.1-0.3c-0.4,0.4-0.8,0.9-1.2,1.3C9.8,6.3,10,6.5,10.1,6.4z"/>
	</g>
</g>
<g>
	<polygon class="st0" points="12,9.8 11.1,10.4 12.4,11.4 	"/>
	<g>
		<path class="st0" d="M11.9,9.7c-0.3,0.2-0.6,0.4-0.9,0.7c-0.1,0.1-0.1,0.2,0,0.3c0.4,0.3,0.9,0.7,1.3,1c0.1,0.1,0.3-0.1,0.2-0.2
			c-0.2-0.6-0.3-1.1-0.5-1.6c-0.1-0.2-0.3-0.1-0.3,0.1c0.2,0.5,0.3,1.1,0.5,1.6c0.1-0.1,0.1-0.1,0.2-0.2c-0.4-0.3-0.9-0.7-1.3-1
			c0,0.1,0,0.2,0,0.3c0.3-0.2,0.6-0.4,0.9-0.7C12.2,9.8,12.1,9.5,11.9,9.7z"/>
	</g>
</g>
<g>
	<polygon class="st0" points="12.2,5.8 12.8,4.6 11.2,5 	"/>
	<g>
		<path class="st0" d="M12.4,5.8c0.2-0.4,0.4-0.8,0.5-1.2c0.1-0.1,0-0.3-0.2-0.2c-0.5,0.1-1.1,0.3-1.6,0.4c-0.1,0-0.1,0.2,0,0.3
			c0.4,0.3,0.7,0.5,1.1,0.8c0.2,0.1,0.3-0.1,0.2-0.3c-0.4-0.3-0.7-0.5-1.1-0.8c0,0.1,0,0.2,0,0.3c0.5-0.1,1.1-0.3,1.6-0.4
			c-0.1-0.1-0.1-0.1-0.2-0.2c-0.2,0.4-0.4,0.8-0.5,1.2C12,5.9,12.3,6,12.4,5.8z"/>
	</g>
</g>
<g>
	<polygon class="st0" points="0.1,13.6 4.7,10.9 0.1,11.7 	"/>
	<g>
		<path class="st0" d="M0.1,13.7c1.5-0.9,3.1-1.8,4.6-2.7c0.2-0.1,0-0.3-0.1-0.3C3.1,11,1.6,11.2,0,11.5c-0.1,0-0.1,0.1-0.1,0.1
			c0,0.6,0,1.3,0,1.9c0,0.2,0.3,0.2,0.3,0c0-0.6-0.1-1.3,0-1.8c0,0-0.2,0,0.1,0c0.3,0,0.6-0.1,0.8-0.1c1.2-0.2,2.4-0.4,3.6-0.6
			c0-0.1-0.1-0.2-0.1-0.3c-1.5,0.9-3.1,1.8-4.6,2.7C-0.2,13.5,0,13.8,0.1,13.7z"/>
	</g>
</g>
<g>
	<polygon class="st3" points="4.7,10.9 4.7,10.8 4.7,10.8 	"/>
</g>
<g>
	<polygon class="st3" points="0.1,11.6 4.7,10.8 1.8,10.3 0.1,10.4 	"/>
	<g>
		<path class="st3" d="M0.1,11.8c1.5-0.3,3.1-0.5,4.6-0.8c0.1,0,0.1-0.3,0-0.3c-0.9-0.2-1.7-0.4-2.6-0.5c-0.7-0.1-1.4,0.1-2,0.1
			c-0.1,0-0.2,0.1-0.2,0.2c0,0.4,0,0.8,0,1.2c0,0.2,0.3,0.2,0.3,0c0-0.3,0-0.5,0-0.8c0-0.1,0-0.3,0-0.4c0,0.1-0.2,0.1,0,0.1
			c0.5,0,1.1-0.2,1.6-0.1c0.9,0.1,1.9,0.4,2.8,0.6c0-0.1,0-0.2,0-0.3C3.1,11,1.6,11.2,0,11.5C-0.2,11.5-0.1,11.8,0.1,11.8z"/>
	</g>
</g>
<g>
	<polygon class="st3" points="4.7,10.8 0.1,11.6 0.1,11.7 4.7,10.9 4.7,10.8 	"/>
</g>
<g>
	<polygon class="st4" points="4.8,10.8 4.7,10.8 4.7,10.8 	"/>
</g>
<g>
	<polygon class="st5" points="2.3,4.5 2.3,4.4 1.4,1.7 0.1,3.2 0.1,5.6 	"/>
	<g>
		<path class="st5" d="M2.4,4.6c0.1-0.3-0.2-0.9-0.3-1.2C1.9,2.8,1.7,2.2,1.5,1.7c0-0.1-0.2-0.2-0.3-0.1c-0.4,0.4-1.2,1-1.3,1.6
			c-0.1,0.3,0,0.9,0,1.2c0,0.4,0,0.8,0,1.2c0,0.1,0.1,0.2,0.2,0.1C0.9,5.4,1.6,5,2.4,4.6c0.1,0,0-0.3-0.2-0.2C1.5,4.7,0.7,5.1,0,5.5
			c0.1,0,0.2,0.1,0.2,0.1c0-0.8-0.1-1.6,0-2.4c0-0.2-0.1,0.1,0-0.1C0.4,3,0.5,2.9,0.7,2.7c0.3-0.3,0.5-0.6,0.8-0.9
			c-0.1,0-0.2,0-0.3-0.1c0.2,0.5,0.3,0.9,0.5,1.4C1.8,3.4,1.9,3.8,2,4.1c0,0.1,0.1,0.4,0.1,0.3C2.1,4.6,2.3,4.7,2.4,4.6z"/>
	</g>
</g>
<g>
	<polygon class="st5" points="0.1,5.6 2.3,4.5 0.1,5.6 	"/>
</g>
<g>
	<polygon class="st3" points="2.3,4.4 2.3,4.5 0.1,9.6 0.1,9.9 1.8,10.3 8.7,9.7 2.3,4.5 	"/>
	<g>
		<path class="st3" d="M2.2,4.4c-0.4,1-0.9,2-1.3,3C0.5,8.2-0.1,9.1-0.1,9.9c0,0.1,0,0.1,0.1,0.1c2.9,0.6,5.7,0,8.7-0.3
			c0.1,0,0.2-0.2,0.1-0.3C6.7,7.8,4.5,6.1,2.4,4.3C2.2,4.2,2,4.4,2.2,4.5c1.6,1.3,3.2,2.6,4.7,3.9c0.4,0.3,0.8,0.7,1.2,1
			c0.1,0.1,0.2,0.2,0.3,0.3c0.3,0.2-0.1,0,0.2-0.2c-0.8,0.3-2,0.2-2.9,0.3c-0.7,0.1-5.4,0.9-5.6-0.2C0.1,9,1.1,7.5,1.4,6.9
			c0.3-0.8,0.7-1.6,1-2.4C2.5,4.3,2.2,4.2,2.2,4.4z"/>
	</g>
</g>
<g>
	<polygon class="st0" points="2.3,4.5 2.3,4.5 8.7,5.3 2.3,4.5 	"/>
</g>
<g>
	<polygon class="st2" points="2.3,4.5 2.3,4.5 2.3,4.4 	"/>
</g>
<g>
	<path class="st6" d="M11.7,0.9L9,1C8.9,1,8.8,1,8.6,1.1L2.3,4.5h0l6.2,0.8c0.1,0,0.2,0,0.3,0L11.1,5c0,0,0.1,0,0.1,0l1.5-0.4
		c0,0,0.1,0,0.1,0L14,4.4l0.3-0.9L13.5,2C13.2,1.3,12.5,0.8,11.7,0.9z"/>
	<g>
		<path class="st6" d="M11.7,0.7c-1.5,0.1-2.7,0-4.1,0.8C5.8,2.4,4,3.4,2.3,4.3C2.1,4.4,2.2,4.6,2.3,4.6c2.1,0,4.1,0.8,6.2,0.8
			c1.8,0,3.6-0.6,5.4-0.9c0.1,0,0.1-0.1,0.1-0.1C14.6,2.7,13.5,0.9,11.7,0.7c-0.2,0-0.2,0.3,0,0.3c0.8,0.1,3.3,2.2,2,3.2
			c-0.4,0.3-2.2,0.5-2.7,0.6C8.8,5.2,7,4.9,4.7,4.6C4.2,4.5,3.6,4.4,3,4.4c-0.8,0-0.3-0.1-0.5,0.2C3.1,3.9,4.5,3.5,5.3,3
			c1-0.5,2.1-1.3,3.2-1.7c1-0.3,2.1-0.2,3.1-0.3C11.9,1,11.9,0.7,11.7,0.7z"/>
	</g>
</g>
<g>
	<polygon class="st6" points="0,9.8 2.3,4.5 0,5.7 	"/>
	<g>
		<path class="st6" d="M0.1,9.9c0.8-1.8,1.5-3.5,2.3-5.3c0.1-0.1-0.1-0.3-0.2-0.2C1.4,4.8,0.7,5.2-0.1,5.6c0,0-0.1,0.1-0.1,0.1
			c0,1.4,0,2.7,0,4.1C-0.2,10,0.2,10,0.1,9.9c0-1.3,0.1-2.6,0-3.8c0-0.1,0.1-0.5-0.1-0.3c0.1-0.2,0.5-0.3,0.7-0.4
			c0.5-0.3,1-0.6,1.6-0.8C2.3,4.5,2.2,4.5,2.1,4.4C1.4,6.2,0.6,8-0.1,9.7C-0.2,9.9,0.1,10.1,0.1,9.9z"/>
	</g>
</g>
<g>
	<polygon class="st1" points="1.8,10.3 0.1,9.9 0.1,10.4 	"/>
	<g>
		<path class="st1" d="M1.9,10.1C1.3,10,0.7,9.9,0.1,9.8c-0.1,0-0.2,0-0.2,0.1c0,0.2,0,0.3,0,0.5c0,0.1,0.1,0.2,0.2,0.1
			c0.6-0.1,1.2-0.1,1.8-0.2C2,10.4,2,10.1,1.9,10.1c-0.6,0-1.2,0.1-1.8,0.2c0,0.1,0.1,0.1,0.2,0.2c0-0.2,0-0.3,0-0.5
			C0.2,10,0.1,10,0,10.1c0.6,0.1,1.2,0.2,1.8,0.4C2,10.5,2.1,10.2,1.9,10.1z"/>
	</g>
</g>
<g>
	<polygon class="st4" points="4.7,10.8 4.8,10.8 4.7,10.8 4.7,10.8 10.7,12.9 12.2,11.9 12.4,11.4 11.1,10.4 9.8,9.9 8.7,9.7
		1.8,10.3 	"/>
	<g>
		<path class="st4" d="M4.7,11c0-0.1,0-0.2-0.1-0.3C4.5,10.8,4.5,11,4.7,11c2.1,0.4,6.5,3.8,7.9,0.5c0-0.1,0-0.2-0.1-0.2
			c-1.2-0.9-2.5-1.7-4.1-1.8C6.3,9.5,4,9.9,1.8,10.1c-0.2,0-0.2,0.3,0,0.3C2.7,10.6,3.7,10.8,4.7,11c0.1,0,0.2-0.3,0-0.3
			c-0.7-0.1-2-0.7-2.7-0.5c-0.5,0.1,0.6,0.2,0.6,0.2c0.5,0,1.2-0.1,1.7-0.2c1.8-0.2,3.8-0.7,5.6-0.1c0.5,0.2,2.4,0.9,2.4,1.5
			c-0.1,0.6-1.4,1-1.9,1c-1-0.1-2.4-0.8-3.4-1.2c-0.5-0.2-1.1-0.5-1.6-0.6c-0.8-0.1-0.3-0.1-0.5,0c0.2-0.1,0-0.3-0.1-0.3
			c0,0-0.1,0-0.1,0C4.4,10.7,4.5,11,4.7,11z"/>
	</g>
</g>
<g>
	<polygon class="st2" points="2.3,4.5 8.8,1 6.1,0.2 4.7,0.9 1.4,1.7 2.3,4.4 	"/>
	<g>
		<path class="st2" d="M2.4,4.6c2.2-1.1,4.3-2.3,6.5-3.4C9,1.1,9,0.9,8.9,0.9C7.7,0.5,6.6-0.2,5.5,0.4C4.2,1.1,2.7,1.3,1.3,1.6
			c-0.1,0-0.1,0.1-0.1,0.2c0.3,0.9,0.6,1.8,0.9,2.7c0,0.1,0.1,0.1,0.1,0.1C2.3,4.6,2.3,4.6,2.4,4.6c0.1,0,0.1-0.3-0.1-0.3
			c0.2,0-0.1-0.6-0.2-0.8C1.9,3,1.8,2.5,1.6,2.1c-0.2-0.5-0.2-0.1,0-0.3c0.4-0.2,1-0.2,1.4-0.3C3.7,1.3,4.3,1.3,4.9,1
			c1-0.4,1-0.7,2-0.4C7.3,0.7,7.9,1,8.3,1c0.1,0,0.3,0.1,0.4,0.1C8.6,1.1,8.9,0.9,8.7,0.9C8,1.2,7.3,1.6,6.7,2
			C5.2,2.8,3.7,3.5,2.3,4.3C2.1,4.4,2.2,4.7,2.4,4.6z"/>
	</g>
</g>
</svg>
