<?xml version="1.0" encoding="utf-8"?>
<!-- Generator: Adobe Illustrator 21.0.2, SVG Export Plug-In . SVG Version: 6.00 Build 0)  -->
<svg version="1.1" id="Layer_1" xmlns="http://www.w3.org/2000/svg" xmlns:xlink="http://www.w3.org/1999/xlink" x="0px" y="0px"
	 viewBox="0 0 200 200" style="enable-background:new 0 0 200 200;" xml:space="preserve">
<style type="text/css">
	.st0{fill:none;stroke:#9E91C1;stroke-miterlimit:10;}
	.st1{fill:#9E91C1;}

	#dataline{
		stroke-dasharray: 10;
		animation: dash 40s linear infinite;
	}

@keyframes dash {
	to {
		stroke-dashoffset: -1000;
	}
}
</style>
<polyline id="dataline" class="st0" points="2.5,3.5 28.6,29.5 7.8,70.9 54.3,60.8 89.1,93.3 42.5,119.5
	102.6,152.2 129.7,127.7 152.8,147.6 182.9,159.7 190.7,124.5 177.7,89.2 147.6,91.7 157.4,67.7 173.8,59 194,48.8 177.8,18.6
	123.8,4.7 "/>
<polyline id="dataline" class="st0" points="35.6,6.5 65.4,6.3 72.6,19 91,25.9 119.3,27.6 127.2,54.2 157.4,67.7
	175.5,75 189,82.3 "/>
<polyline id="dataline" class="st0" points="142.2,4.7 86.4,58.1 124.7,107.1 28.1,87.7 18.7,112.7 44.5,138.3
	11.4,165.5 78.5,153.9 117.6,121.2 158.4,107.1 169.4,135.2 111.1,181.4 192.5,197.5 "/>
<polyline id="dataline" class="st0" points="4.5,197.5 42.7,185.1 71.8,190.1 108.4,167.2 107.4,131.8 81.4,109.1
	40.8,100.2 27.1,101.9 9.6,98.3 11.4,84 57.9,76.9 99.3,63.1 143.8,41.9 155.7,22.3 89.1,9.9 "/>
<polyline id="dataline" class="st0" points="9.8,22.6 23.5,13.6 37.5,22.3 40.8,35.2 27.9,46.9 16.4,36.9 6,52.1 18.9,59
	22.3,72.7 11.2,127.5 23.3,145.4 63.5,147.6 89.9,121.4 59.9,121.4 81.4,109.1 102.6,110.8 150.9,131.6 188.6,103.3 192.3,60.8
	164.8,46.9 169.4,26.3 157.8,8 195.5,3.5 194.5,32.5 "/>
<polyline id="dataline" class="st0" points="198.5,174.5 169.4,172.8 164.2,158.2 150.9,172.8 132,188.9 97.4,188.8 121.1,152.2
		138.4,156.2 134.5,140.1 89.9,135.6 75.4,127.5 70.6,93.3 40.8,72.7 35.4,58.1 115.7,67.7 128.2,76 129.7,91.6 140.3,107.1
		161.1,83.7 173.8,59 179.4,40.2 154.4,32.7 134.5,20.5 106.6,6.3 46.4,9.9 57.9,24.6 76.2,33.2 61.6,40 46.4,47.1 9.8,22.6 "/>
<circle id="point1_1_" class="st1" cx="28.6" cy="29.5" r="1.8"/>
<circle id="point1_2_" class="st1" cx="18.8" cy="59.1" r="1.8"/>
<circle id="point1_3_" class="st1" cx="28" cy="46.8" r="1.8"/>
<circle id="point1_4_" class="st1" cx="18.6" cy="112.7" r="1.8"/>
<circle id="point1_5_" class="st1" cx="22.3" cy="72.6" r="1.8"/>
<circle id="point1_6_" class="st1" cx="40.7" cy="35.1" r="1.8"/>
<circle id="point1_7_" class="st1" cx="35.4" cy="58" r="1.8"/>
<circle id="point1_9_" class="st1" cx="2.4" cy="3" r="1.8"/>
<circle id="point1_10_" class="st1" cx="40.7" cy="72.6" r="1.8"/>
<circle id="point1_20_" class="st1" cx="46.4" cy="47" r="1.8"/>
<circle id="point1_19_" class="st1" cx="70.7" cy="52.1" r="1.8"/>
<circle id="point1_18_" class="st1" cx="54.3" cy="60.7" r="1.8"/>
<circle id="point1_17_" class="st1" cx="72.5" cy="68.1" r="1.8"/>
<circle id="point1_16_" class="st1" cx="58" cy="76.8" r="1.8"/>
<circle id="point1_15_" class="st1" cx="70.7" cy="93.3" r="1.8"/>
<circle id="point1_14_" class="st1" cx="99.3" cy="63.1" r="1.8"/>
<circle id="point1_13_" class="st1" cx="83.8" cy="78.7" r="1.8"/>
<circle id="point1_12_" class="st1" cx="49.5" cy="91.5" r="1.8"/>
<circle id="point1_11_" class="st1" cx="89.1" cy="93.3" r="1.8"/>
<circle id="point1_21_" class="st1" cx="61.7" cy="40" r="1.8"/>
<circle id="point1_22_" class="st1" cx="37.5" cy="22.2" r="1.8"/>
<circle id="point1_23_" class="st1" cx="76.2" cy="33.2" r="1.8"/>
<circle id="point1_24_" class="st1" cx="91" cy="41.8" r="1.8"/>
<circle id="point1_25_" class="st1" cx="58" cy="24.5" r="1.8"/>
<circle id="point1_26_" class="st1" cx="91" cy="25.8" r="1.8"/>
<circle id="point1_27_" class="st1" cx="28" cy="87.8" r="1.8"/>
<circle id="point1_28_" class="st1" cx="11.4" cy="84.1" r="1.8"/>
<circle id="point1_56_" class="st1" cx="59.8" cy="103.9" r="1.8"/>
<circle id="point1_55_" class="st1" cx="102.6" cy="110.8" r="1.8"/>
<circle id="point1_54_" class="st1" cx="81.4" cy="109" r="1.8"/>
<circle id="point1_53_" class="st1" cx="107.3" cy="131.9" r="1.8"/>
<circle id="point1_52_" class="st1" cx="89.9" cy="135.6" r="1.8"/>
<circle id="point1_51_" class="st1" cx="102.6" cy="152.1" r="1.8"/>
<circle id="point1_50_" class="st1" cx="124.7" cy="107.2" r="1.8"/>
<circle id="point1_49_" class="st1" cx="117.7" cy="121.3" r="1.8"/>
<circle id="point1_48_" class="st1" cx="78.5" cy="153.9" r="1.8"/>
<circle id="point1_47_" class="st1" cx="121.1" cy="152.1" r="1.8"/>
<circle id="point1_46_" class="st1" cx="129.8" cy="127.8" r="1.8"/>
<circle id="point1_45_" class="st1" cx="151" cy="131.5" r="1.8"/>
<circle id="point1_44_" class="st1" cx="134.6" cy="140.2" r="1.8"/>
<circle id="point1_43_" class="st1" cx="152.8" cy="147.5" r="1.8"/>
<circle id="point1_42_" class="st1" cx="138.3" cy="156.3" r="1.8"/>
<circle id="point1_41_" class="st1" cx="151" cy="172.8" r="1.8"/>
<circle id="point1_40_" class="st1" cx="169.5" cy="135.2" r="1.8"/>
<circle id="point1_39_" class="st1" cx="164.2" cy="158.1" r="1.8"/>
<circle id="point1_38_" class="st1" cx="129.8" cy="170.9" r="1.8"/>
<circle id="point1_37_" class="st1" cx="169.5" cy="172.8" r="1.8"/>
<circle id="point1_36_" class="st1" cx="147.6" cy="119.5" r="1.8"/>
<circle id="point1_35_" class="st1" cx="104.7" cy="96.5" r="1.8"/>
<circle id="point1_34_" class="st1" cx="158.5" cy="107.1" r="1.8"/>
<circle id="point1_33_" class="st1" cx="171.3" cy="121.3" r="1.8"/>
<circle id="point1_32_" class="st1" cx="140.4" cy="107.1" r="1.8"/>
<circle id="point1_31_" class="st1" cx="106.4" cy="20.4" r="1.8"/>
<circle id="point1_30_" class="st1" cx="108.4" cy="167.3" r="1.8"/>
<circle id="point1_29_" class="st1" cx="91.7" cy="163.6" r="1.8"/>
<circle id="point1_84_" class="st1" cx="9.7" cy="22.7" r="1.8"/>
<circle id="point1_83_" class="st1" cx="63.4" cy="147.6" r="1.8"/>
<circle id="point1_82_" class="st1" cx="16.3" cy="36.9" r="1.8"/>
<circle id="point1_81_" class="st1" cx="42.6" cy="119.4" r="1.8"/>
<circle id="point1_80_" class="st1" cx="5.9" cy="52.1" r="1.8"/>
<circle id="point1_79_" class="st1" cx="65.4" cy="167.3" r="1.8"/>
<circle id="point1_78_" class="st1" cx="40.7" cy="35.1" r="1.8"/>
<circle id="point1_77_" class="st1" cx="35.4" cy="58" r="1.8"/>
<circle id="point1_76_" class="st1" cx="7.8" cy="70.8" r="1.8"/>
<circle id="point1_75_" class="st1" cx="59.8" cy="121.3" r="1.8"/>
<circle id="point1_74_" class="st1" cx="65.5" cy="6.2" r="1.8"/>
<circle id="point1_73_" class="st1" cx="70.7" cy="52.1" r="1.8"/>
<circle id="point1_72_" class="st1" cx="54.3" cy="60.7" r="1.8"/>
<circle id="point1_71_" class="st1" cx="106.6" cy="6.3" r="1.8"/>
<circle id="point1_70_" class="st1" cx="58" cy="76.8" r="1.8"/>
<circle id="point1_69_" class="st1" cx="70.7" cy="93.3" r="1.8"/>
<circle id="point1_68_" class="st1" cx="109.2" cy="50.2" r="1.8"/>
<circle id="point1_67_" class="st1" cx="83.8" cy="78.7" r="1.8"/>
<circle id="point1_66_" class="st1" cx="40.8" cy="100.2" r="1.8"/>
<circle id="point1_65_" class="st1" cx="89.1" cy="93.3" r="1.8"/>
<circle id="point1_64_" class="st1" cx="61.7" cy="40" r="1.8"/>
<circle id="point1_63_" class="st1" cx="35.6" cy="6.5" r="1.8"/>
<circle id="point1_62_" class="st1" cx="72.6" cy="19" r="1.8"/>
<circle id="point1_61_" class="st1" cx="86.4" cy="58" r="1.8"/>
<circle id="point1_60_" class="st1" cx="46.4" cy="9.8" r="1.8"/>
<circle id="point1_59_" class="st1" cx="89.1" cy="9.9" r="1.8"/>
<circle id="point1_58_" class="st1" cx="27.1" cy="102" r="1.8"/>
<circle id="point1_57_" class="st1" cx="9.7" cy="98.3" r="1.8"/>
<circle id="point1_112_" class="st1" cx="104.2" cy="34.6" r="1.8"/>
<circle id="point1_111_" class="st1" cx="130.2" cy="31" r="1.8"/>
<circle id="point1_110_" class="st1" cx="121.1" cy="41.9" r="1.8"/>
<circle id="point1_109_" class="st1" cx="127.2" cy="54.3" r="1.8"/>
<circle id="point1_108_" class="st1" cx="115.8" cy="67.7" r="1.8"/>
<circle id="point1_107_" class="st1" cx="128.2" cy="75.9" r="1.8"/>
<circle id="point1_106_" class="st1" cx="143.8" cy="42" r="1.8"/>
<circle id="point1_105_" class="st1" cx="138.5" cy="64.9" r="1.8"/>
<circle id="point1_104_" class="st1" cx="102.2" cy="80.6" r="1.8"/>
<circle id="point1_103_" class="st1" cx="169.5" cy="26.3" r="1.8"/>
<circle id="point1_102_" class="st1" cx="152.6" cy="55.3" r="1.8"/>
<circle id="point1_101_" class="st1" cx="173.8" cy="59" r="1.8"/>
<circle id="point1_100_" class="st1" cx="157.4" cy="67.6" r="1.8"/>
<circle id="point1_99_" class="st1" cx="175.6" cy="75" r="1.8"/>
<circle id="point1_98_" class="st1" cx="161.1" cy="83.7" r="1.8"/>
<circle id="point1_97_" class="st1" cx="173.8" cy="100.2" r="1.8"/>
<circle id="point1_96_" class="st1" cx="192.3" cy="62.7" r="1.8"/>
<circle id="point1_95_" class="st1" cx="177.7" cy="89.2" r="1.8"/>
<circle id="point1_94_" class="st1" cx="147.6" cy="91.7" r="1.8"/>
<circle id="point1_93_" class="st1" cx="189" cy="82.3" r="1.8"/>
<circle id="point1_92_" class="st1" cx="164.8" cy="46.9" r="1.8"/>
<circle id="point1_91_" class="st1" cx="119.3" cy="27.6" r="1.8"/>
<circle id="point1_90_" class="st1" cx="179.3" cy="40.1" r="1.8"/>
<circle id="point1_89_" class="st1" cx="194.1" cy="48.7" r="1.8"/>
<circle id="point1_88_" class="st1" cx="154.4" cy="32.7" r="1.8"/>
<circle id="point1_87_" class="st1" cx="194.1" cy="32.7" r="1.8"/>
<circle id="point1_86_" class="st1" cx="129.8" cy="91.6" r="1.8"/>
<circle id="point1_85_" class="st1" cx="115.7" cy="87.3" r="1.8"/>
<circle id="point1_113_" class="st1" cx="89.9" cy="121.4" r="1.8"/>
<circle id="point1_114_" class="st1" cx="75.4" cy="127.5" r="1.8"/>
<circle id="point1_132_" class="st1" cx="123.8" cy="4.8" r="1.8"/>
<circle id="point1_129_" class="st1" cx="142.3" cy="4.8" r="1.8"/>
<circle id="point1_128_" class="st1" cx="155.7" cy="22.3" r="1.8"/>
<circle id="point1_127_" class="st1" cx="134.5" cy="20.4" r="1.8"/>
<circle id="point1_126_" class="st1" cx="177.8" cy="18.7" r="1.8"/>
<circle id="point1_125_" class="st1" cx="157.9" cy="8" r="1.8"/>
<circle id="point1_124_" class="st1" cx="195.9" cy="3" r="1.8"/>
<circle id="point1_123_" class="st1" cx="123.8" cy="4.8" r="1.8"/>
<circle id="point1_121_" class="st1" cx="142.3" cy="4.8" r="1.8"/>
<circle id="point1_135_" class="st1" cx="23.3" cy="145.5" r="1.8"/>
<circle id="point1_134_" class="st1" cx="42.7" cy="185.1" r="1.8"/>
<circle id="point1_133_" class="st1" cx="11.1" cy="127.5" r="1.8"/>
<circle id="point1_131_" class="st1" cx="26.8" cy="129.7" r="1.8"/>
<circle id="point1_130_" class="st1" cx="4.2" cy="197.1" r="1.8"/>
<circle id="point1_122_" class="st1" cx="6.5" cy="143.7" r="1.8"/>
<circle id="point1_120_" class="st1" cx="44.5" cy="138.3" r="1.8"/>
<circle id="point1_119_" class="st1" cx="57.9" cy="135.5" r="1.8"/>
<circle id="point1_118_" class="st1" cx="35.9" cy="153.3" r="1.8"/>
<circle id="point1_117_" class="st1" cx="48.4" cy="161.5" r="1.8"/>
<circle id="point1_116_" class="st1" cx="11.4" cy="165.5" r="1.8"/>
<circle id="point1_115_" class="st1" cx="26.2" cy="173" r="1.8"/>
<circle id="point1_142_" class="st1" cx="71.7" cy="190.2" r="1.8"/>
<circle id="point1_141_" class="st1" cx="158.4" cy="186.9" r="1.8"/>
<circle id="point1_140_" class="st1" cx="58" cy="179.6" r="1.8"/>
<circle id="point1_139_" class="st1" cx="132" cy="188.9" r="1.8"/>
<circle id="point1_138_" class="st1" cx="82.1" cy="176.5" r="1.8"/>
<circle id="point1_137_" class="st1" cx="97.5" cy="188.8" r="1.8"/>
<circle id="point1_136_" class="st1" cx="111" cy="181.5" r="1.8"/>
<circle id="point1_152_" class="st1" cx="181" cy="130.9" r="1.8"/>
<circle id="point1_151_" class="st1" cx="182.8" cy="159.8" r="1.8"/>
<circle id="point1_150_" class="st1" cx="177.8" cy="147.3" r="1.8"/>
<circle id="point1_149_" class="st1" cx="190.7" cy="124.4" r="1.8"/>
<circle id="point1_148_" class="st1" cx="194.3" cy="143.4" r="1.8"/>
<circle id="point1_147_" class="st1" cx="192.7" cy="197.3" r="1.8"/>
<circle id="point1_146_" class="st1" cx="145.7" cy="76.9" r="1.8"/>
<circle id="point1_145_" class="st1" cx="179.7" cy="112.8" r="1.8"/>
<circle id="point1_144_" class="st1" cx="197.9" cy="174.5" r="1.8"/>
<circle id="point1_8_" class="st1" cx="23.4" cy="13.6" r="1.8"/>
<circle id="point1_143_" class="st1" cx="188.6" cy="103.3" r="1.8"/>
<circle id="point1_153_" class="st1" cx="179.4" cy="184.9" r="1.8"/>
<circle id="point1_154_" class="st1" cx="143.4" cy="197.9" r="1.8"/>
<circle id="point1_155_" class="st1" cx="83.4" cy="197.9" r="1.8"/>
<circle id="point1_156_" class="st1" cx="37.4" cy="196.9" r="1.8"/>
<circle id="point1_157_" class="st1" cx="4.4" cy="179.9" r="1.8"/>
<circle id="point1_158_" class="st1" cx="4.4" cy="110.9" r="1.8"/>
<circle id="point1_159_" class="st1" cx="19.4" cy="2.9" r="1.8"/>
<circle id="point1_160_" class="st1" cx="2.4" cy="35.9" r="1.8"/>
</svg>
