<?xml version="1.0" encoding="utf-8"?>
<!-- Generator: Adobe Illustrator 21.0.2, SVG Export Plug-In . SVG Version: 6.00 Build 0)  -->
<svg version="1.1" id="Layer_1" xmlns="http://www.w3.org/2000/svg" xmlns:xlink="http://www.w3.org/1999/xlink" x="0px" y="0px"
	 viewBox="0 0 2000 2000" style="enable-background:new 0 0 2000 2000;" xml:space="preserve">
<style type="text/css">
	.st0{fill:#FFFFFF;stroke:#D1C4E9;stroke-width:3;stroke-miterlimit:10;}
	.st1{fill:none;stroke:#311B92;stroke-width:3;stroke-miterlimit:10;}
	.st2{fill:#5E35B1;}
	.st3{fill:#512DA8;}
	.st4{fill:#B39DDB;}
	.st5{fill:#311B92;}
	.st6{fill:#9575CD;}
	.st7{fill:#4527A0;}
	.st8{fill:#7E57C2;}
	.st9{fill:#FFFFFF;}
	#dataline{
		stroke-dasharray: 10;
		animation: dash 40s linear infinite;
	}

@keyframes dash {
	to {
		stroke-dashoffset: -1000;
	}
}
</style>
<circle id="circle" class="st0" cx="1006" cy="1002" r="638"/>
<path id='dataline' class="st1" d="M786,662l9,715l589-692L619,998l594,478l150-290l124-209l-943,251l442-765c0,0,91,826,89,819s76-638,76-638
	L520,761"/>
<circle id="point2_1_" class="st2" cx="1383.5" cy="684.5" r="99.5"/>
<g>
	<g>
		<polygon class="st3" points="879.7,938.2 880.3,938.7 1056.8,1082.5 1033.1,1018.6 1056.8,962 881,938.4 		"/>
		<g>
			<path class="st3" d="M878.6,939.3c19.7,16.1,39.5,32.2,59.2,48.2c32,26,63.9,52.1,95.9,78.1c7.3,6,14.7,11.9,22,17.9
				c1,0.8,3.1,0.1,2.5-1.5c-6.6-17.7-13.1-35.4-19.7-53c-1.2-3.2-2.2-6.6-3.6-9.8c-0.4-0.8-0.2-1.5-0.4-0.4c0.1-0.8,0.7-1.7,1.1-2.5
				c4-9.6,8.1-19.3,12.1-28.9c3.5-8.4,7-16.7,10.5-25.1c0.4-1-0.6-1.8-1.4-1.9c-20.1-2.7-40.1-5.4-60.2-8.1
				c-31.7-4.2-63.3-8.5-95-12.7c-7.3-1-14.6-2-21.9-2.9c-1.9-0.3-1.9,2.7,0,3c19.9,2.7,39.7,5.3,59.6,8c31.9,4.3,63.7,8.5,95.6,12.8
				c7.3,1,14.6,2,22,2.9c-0.5-0.6-1-1.3-1.4-1.9c-7.3,17.4-14.6,34.8-21.9,52.2c-0.7,1.6-2,3.5-1.8,5.3c0.1,2.1,1.8,4.9,2.5,6.8
				c4,10.7,7.9,21.3,11.9,32c3.1,8.3,6.2,16.7,9.3,25c0.8-0.5,1.7-1,2.5-1.5c-20-16.3-40-32.6-60.1-48.9
				c-31.8-25.9-63.7-51.8-95.5-77.8c-7.2-5.9-14.4-11.7-21.6-17.6C879.2,936,877.1,938.1,878.6,939.3z"/>
		</g>
	</g>
	<g>
		<polygon class="st4" points="1193.7,965.6 1202.5,936.5 1170,941.9 		"/>
		<g>
			<path class="st4" d="M1195.2,966c2.9-9.7,5.8-19.4,8.7-29.2c0.4-1.2-0.8-2-1.8-1.8c-10.8,1.8-21.7,3.6-32.5,5.4
				c-1.1,0.2-1.4,1.8-0.7,2.5c7.9,7.9,15.8,15.8,23.7,23.7c1.4,1.4,3.5-0.8,2.1-2.1c-7.9-7.9-15.8-15.8-23.7-23.7
				c-0.2,0.8-0.4,1.7-0.7,2.5c10.8-1.8,21.7-3.6,32.5-5.4c-0.6-0.6-1.2-1.2-1.8-1.8c-2.9,9.7-5.8,19.4-8.7,29.2
				C1191.7,967.1,1194.6,967.9,1195.2,966z"/>
		</g>
	</g>
	<g>
		<polygon class="st5" points="1118.9,1067.9 1087.8,1089.8 1124.4,1104.4 		"/>
		<g>
			<path class="st5" d="M1118.1,1066.6c-10.3,7.3-20.7,14.6-31,21.9c-1.1,0.8-0.9,2.3,0.4,2.7c12.2,4.9,24.3,9.7,36.5,14.6
				c1.2,0.5,2-0.9,1.8-1.8c-1.8-12.2-3.7-24.3-5.5-36.5c-0.3-1.9-3.2-1.1-2.9,0.8c1.8,12.2,3.7,24.3,5.5,36.5
				c0.6-0.6,1.2-1.2,1.8-1.8c-12.2-4.9-24.3-9.7-36.5-14.6c0.1,0.9,0.2,1.8,0.4,2.7c10.3-7.3,20.7-14.6,31-21.9
				C1121.2,1068.1,1119.7,1065.5,1118.1,1066.6z"/>
		</g>
	</g>
	<g>
		<polygon class="st2" points="1080.5,1058.7 1056.8,1082.5 1087.8,1089.8 		"/>
		<g>
			<path class="st2" d="M1079.5,1057.7c-7.9,7.9-15.8,15.8-23.7,23.7c-0.8,0.8-0.4,2.2,0.7,2.5c10.3,2.4,20.7,4.9,31,7.3
				c1.1,0.3,2.1-0.7,1.8-1.8c-2.4-10.3-4.9-20.7-7.3-31c-0.4-1.9-3.3-1.1-2.9,0.8c2.4,10.3,4.9,20.7,7.3,31c0.6-0.6,1.2-1.2,1.8-1.8
				c-10.3-2.4-20.7-4.9-31-7.3c0.2,0.8,0.4,1.7,0.7,2.5c7.9-7.9,15.8-15.8,23.7-23.7C1083,1058.4,1080.8,1056.3,1079.5,1057.7z"/>
		</g>
	</g>
	<g>
		<polygon class="st5" points="1093.3,989.4 1126.2,952.8 1056.8,962 		"/>
		<g>
			<path class="st5" d="M1094.4,990.4c11-12.2,21.9-24.3,32.9-36.5c0.8-0.8,0.3-2.7-1.1-2.6c-23.1,3-46.3,6.1-69.4,9.1
				c-1.5,0.2-2,1.9-0.8,2.8c12.2,9.1,24.3,18.3,36.5,27.4c1.5,1.2,3-1.4,1.5-2.6c-12.2-9.1-24.3-18.3-36.5-27.4
				c-0.3,0.9-0.5,1.9-0.8,2.8c23.1-3,46.3-6.1,69.4-9.1c-0.4-0.9-0.7-1.7-1.1-2.6c-11,12.2-21.9,24.3-32.9,36.5
				C1091,989.7,1093.1,991.8,1094.4,990.4z"/>
		</g>
	</g>
	<g>
		<polygon class="st3" points="1148.1,1086.1 1124.4,1104.4 1160.9,1131.8 		"/>
		<g>
			<path class="st3" d="M1147.3,1084.8c-7.9,6.1-15.8,12.2-23.7,18.3c-0.9,0.7-1,1.9,0,2.6c12.2,9.1,24.3,18.3,36.5,27.4
				c1.1,0.8,2.5-0.5,2.2-1.7c-4.3-15.2-8.5-30.4-12.8-45.7c-0.5-1.9-3.4-1.1-2.9,0.8c4.3,15.2,8.5,30.4,12.8,45.7
				c0.7-0.6,1.5-1.1,2.2-1.7c-12.2-9.1-24.3-18.3-36.5-27.4c0,0.9,0,1.7,0,2.6c7.9-6.1,15.8-12.2,23.7-18.3
				C1150.4,1086.3,1148.9,1083.7,1147.3,1084.8z"/>
		</g>
	</g>
	<g>
		<polygon class="st3" points="1155.4,974.7 1170,941.9 1126.2,952.8 		"/>
		<g>
			<path class="st3" d="M1156.7,975.5c4.9-11,9.7-21.9,14.6-32.9c0.5-1.2-0.3-2.5-1.7-2.2c-14.6,3.7-29.2,7.3-43.8,11
				c-1.4,0.3-1.3,2-0.4,2.7c9.7,7.3,19.5,14.6,29.2,21.9c1.5,1.2,3-1.4,1.5-2.6c-9.7-7.3-19.5-14.6-29.2-21.9
				c-0.1,0.9-0.2,1.8-0.4,2.7c14.6-3.7,29.2-7.3,43.8-11c-0.6-0.7-1.1-1.5-1.7-2.2c-4.9,11-9.7,21.9-14.6,32.9
				C1153.3,975.7,1155.9,977.3,1156.7,975.5z"/>
		</g>
	</g>
	<g>
		<polygon class="st3" points="818,1191 945.8,1115.5 818,1138 		"/>
		<g>
			<path class="st3" d="M818.8,1192.3c37.3-22.1,74.7-44.1,112-66.2c5.3-3.1,10.5-6.2,15.8-9.3c1.5-0.9,0.5-3-1.2-2.7
				c-37.3,6.6-74.6,13.1-111.9,19.7c-5.3,0.9-10.6,1.9-15.9,2.8c-0.6,0.1-1.1,0.8-1.1,1.4c0,17.7,0,35.3,0,53c0,1.9,3,1.9,3,0
				c0-17.7,0-35.3,0-53c-0.4,0.5-0.7,1-1.1,1.4c37.3-6.6,74.6-13.1,111.9-19.7c5.3-0.9,10.6-1.9,15.9-2.8c-0.4-0.9-0.8-1.8-1.2-2.7
				c-37.3,22.1-74.7,44.1-112,66.2c-5.3,3.1-10.5,6.2-15.8,9.3C815.6,1190.7,817.1,1193.3,818.8,1192.3z"/>
		</g>
	</g>
	<g>
		<polygon class="st2" points="946.3,1115.5 947.2,1115.4 946.8,1115.3 		"/>
	</g>
	<g>
		<polygon class="st2" points="818,1137.1 944.7,1114.9 867.1,1099.4 818,1103.8 		"/>
		<g>
			<path class="st2" d="M818.4,1138.5c37-6.5,74-12.9,111-19.4c5.2-0.9,10.5-1.8,15.7-2.7c1.4-0.3,1.4-2.6,0-2.9
				c-18.2-3.6-36.4-7.3-54.6-10.9c-7.4-1.5-15.1-3.7-22.6-4.5c-6.2-0.7-13.3,1-19.5,1.5c-10.1,0.9-20.3,1.8-30.4,2.7
				c-0.8,0.1-1.5,0.6-1.5,1.5c0,11.1,0,22.2,0,33.2c0,1.9,3,1.9,3,0c0-11.1,0-22.2,0-33.2c-0.5,0.5-1,1-1.5,1.5
				c8.3-0.7,16.7-1.5,25-2.2c5.6-0.5,11.2-1,16.7-1.5c1.8-0.2,3.5-0.3,5.3-0.5c0.4,0,2.4-0.2,1.7-0.2c6.4,0.4,13.2,2.6,19.5,3.9
				c12,2.4,23.9,4.8,35.9,7.2c7.4,1.5,14.8,3,22.2,4.4c0-1,0-1.9,0-2.9c-37,6.5-74,12.9-111,19.4c-5.2,0.9-10.5,1.8-15.7,2.7
				C815.7,1135.9,816.5,1138.8,818.4,1138.5z"/>
		</g>
	</g>
	<g>
		<polygon class="st2" points="944.7,1114.9 818,1137.1 818,1138 945.8,1115.5 946.3,1115.3 		"/>
	</g>
	<g>
		<polygon class="st6" points="948.1,1114.4 945.2,1114.9 946.8,1115.3 		"/>
	</g>
	<g>
		<polygon class="st7" points="879.3,942.8 879.8,941.6 853.7,865.2 817.4,906.1 816.9,977.6 		"/>
		<g>
			<path class="st7" d="M880.6,943.5c1.5-3.6-1.4-8.4-2.6-11.9c-3-8.8-6-17.5-9-26.3c-4.6-13.5-9.2-27-13.8-40.5
				c-0.3-1-1.7-1.6-2.5-0.7c-5.3,6-10.6,11.9-15.9,17.9c-6.5,7.3-13.7,14.4-19.7,22.2c-2.5,3.3-1.2,9.5-1.3,13.4
				c-0.1,11.7-0.2,23.3-0.2,35c-0.1,8.3-0.1,16.7-0.2,25c0,1.2,1.3,1.8,2.3,1.3c20.8-11.6,41.6-23.2,62.4-34.8
				c1.7-0.9,0.2-3.5-1.5-2.6c-20.8,11.6-41.6,23.2-62.4,34.8c0.8,0.4,1.5,0.9,2.3,1.3c0.1-18.2,0.3-36.5,0.4-54.7
				c0-4.3,0.1-8.7,0.1-13c0-1,0.2-2.1,0-3c-0.2-1.4-0.5,0.4-0.2,0c5.6-6.8,11.7-13.2,17.6-19.8c6.2-6.9,12.3-13.9,18.5-20.8
				c-0.8-0.2-1.7-0.4-2.5-0.7c4.4,12.9,8.8,25.8,13.2,38.7c3,8.7,5.9,17.4,8.9,26.1c1,2.8,1.9,5.6,2.9,8.4c0.3,0.8,0.7,1.6,0.8,2.5
				c0.2,1.4,0.4-0.5-0.1,0.7C877.2,943.8,879.8,945.3,880.6,943.5z"/>
		</g>
	</g>
	<g>
		<polygon class="st7" points="818,971.5 878.7,939.3 818,971.5 		"/>
	</g>
	<g>
		<polygon class="st2" points="879.2,938.2 878.7,939.3 819.5,1079.5 819.5,1089.5 867.1,1099.4 1056.3,1082.5 879.8,938.7 		"/>
		<g>
			<path class="st2" d="M877.9,937.5c-18.8,43.5-36.9,87.3-55.3,131c-1.3,3.1-2.8,6.2-4,9.4c-1.3,3.6-0.6,7.9-0.6,11.7
				c0,0.6,0.5,1.3,1.1,1.4c7.4,1.6,14.9,3.1,22.3,4.7c8.2,1.7,16.8,4.5,25.1,5.2c2.3,0.2,4.7-0.3,7-0.5c6.5-0.6,13-1.2,19.6-1.7
				c42.7-3.8,85.3-7.6,128-11.5c11.8-1.1,23.6-2.1,35.3-3.2c1.1-0.1,2.2-1.7,1.1-2.6c-20-16.3-40-32.6-60.1-48.9
				c-31.8-25.9-63.7-51.8-95.5-77.8c-7.2-5.9-14.4-11.7-21.6-17.6c-1.5-1.2-3.6,0.9-2.1,2.1c19.7,16.1,39.5,32.2,59.2,48.2
				c32,26,63.9,52.1,95.9,78.1c7.3,6,14.7,11.9,22,17.9c0.4-0.9,0.7-1.7,1.1-2.6c-30.5,2.7-61.1,5.5-91.6,8.2
				c-21.4,1.9-42.8,3.8-64.2,5.7c-10.8,1-22.1,3-33,3c-0.7,0,0.5,0.1-0.3,0c-1.4-0.1-2.8-0.6-4.2-0.9c-5.4-1.1-10.9-2.3-16.3-3.4
				c-8.9-1.9-17.8-3.7-26.7-5.6c0.4,0.5,0.7,1,1.1,1.4c0-3,0-6,0-9c0-1.7-0.4,0.5,0.1-1.1c0.9-2.6,2.1-5.1,3.2-7.6
				c4.6-10.9,9.2-21.8,13.8-32.7c11.4-26.9,22.7-53.8,34.1-80.7c2.7-6.5,5.4-13,8.3-19.5C881.2,937.2,878.6,935.7,877.9,937.5z"/>
		</g>
	</g>
	<g>
		<polygon class="st3" points="881,938.4 881,938.4 1056.8,962 881,938.4 		"/>
	</g>
	<g>
		<polygon class="st5" points="881,938.4 881,938.4 879.7,938.2 		"/>
	</g>
	<g>
		<path class="st8" d="M1140.4,839.2L1062,842c-3.9,0.2-3.4,2.2-6.8,4.1L881,938.4h0l172.3,23.1c2.4,0.3,4.7,0.3,7.1,0l64.3-8.5
			c1-0.1,2-0.3,3-0.6l41.3-10.3c0.7-0.2,1.4-0.3,2.1-0.4l31.4-5.2l7.7-25.6l-18.9-40.9C1182.1,850.3,1162,838.1,1140.4,839.2z"/>
		<g>
			<path class="st8" d="M1140.4,837.7c-20.6,0.7-41.2,1.5-61.8,2.2c-4.4,0.2-8.8,0.3-13.1,0.5c-2.8,0.1-5.3,0-7.8,1.7
				c-3.8,2.5-7.1,4.7-11.2,6.9c-41.8,22.2-83.7,44.4-125.5,66.5c-13.6,7.2-27.2,14.4-40.8,21.6c-1.3,0.7-0.7,2.8,0.8,2.8
				c4.6,0,9.6,1.3,14.2,1.9c12,1.6,23.9,3.2,35.9,4.8c29.5,4,59,7.9,88.6,11.9c14.8,2,30.5,5.9,45.4,3.9c13.7-1.8,27.3-3.6,41-5.4
				c8-1.1,16.3-1.6,24.2-3.6c13-3.3,26-6.7,39-9.8c11.1-2.6,22.6-3.9,33.8-5.7c0.5-0.1,0.9-0.6,1-1c2.2-7.3,4.4-14.5,6.5-21.8
				c0.6-1.8,1.3-3.4,0.9-5.2c-0.6-2.4-2.3-5-3.3-7.2c-4-8.7-8-17.4-12.1-26c-3.6-7.7-7-15.2-12.9-21.5
				C1172.1,843.3,1156.4,837.1,1140.4,837.7c-1.9,0.1-1.9,3.1,0,3c15.8-0.6,31,5.6,41.5,17.6c5.6,6.4,8.8,14.1,12.3,21.7
				c4,8.6,8,17.3,12,25.9c0.8,1.8,2.2,3.8,2.6,5.7c-0.4-1.9-0.5-0.1-0.8,1.1c-0.6,1.8-1.1,3.7-1.7,5.5c-1.4,4.6-2.7,9.1-4.1,13.7
				c-0.3,1.1-1.2,2.7-1.1,3.8c0,1-0.3-0.6,0.8-0.6c-0.4,0-0.8,0.2-1.3,0.2c-3.6-0.1-7.9,1.3-11.4,1.9c-4.7,0.8-9.4,1.6-14.1,2.3
				c-13.9,2.3-27.5,6.4-41.1,9.8c-11.9,3-24,4.1-36.2,5.7c-9.3,1.2-18.6,2.4-27.9,3.7c-5.6,0.7-11.2,1.9-16.8,1.3
				c-26.9-2.9-53.8-7.2-80.6-10.8c-19-2.5-38.1-5.1-57.1-7.6c-7.1-0.9-14.1-1.9-21.2-2.8c-3.7-0.5-8.1-1.8-11.9-1.6
				c-0.5,0-1-0.2-1.4-0.2c0.3,0.9,0.5,1.9,0.8,2.8c33.7-17.9,67.4-35.7,101.2-53.6c19.8-10.5,39.5-21,59.3-31.4
				c4.4-2.3,8.8-4.5,13.1-7c2.5-1.4,4.4-3.8,7.3-4.2c3-0.4,6.2-0.2,9.2-0.3c22.9-0.8,45.8-1.6,68.7-2.4
				C1142.3,840.6,1142.4,837.6,1140.4,837.7z"/>
		</g>
	</g>
	<g>
		<polygon class="st8" points="818.5,1089.5 878.7,939.3 816.5,972.5 		"/>
		<g>
			<path class="st8" d="M819.9,1089.9c17.6-43.9,35.2-87.9,52.8-131.8c2.4-6.1,4.9-12.2,7.3-18.3c0.5-1.3-1.2-2.3-2.2-1.7
				c-20.7,11.1-41.4,22.1-62.2,33.2c-0.5,0.2-0.8,0.8-0.7,1.3c0.6,34.1,1.2,68.2,1.7,102.3c0.1,4.9,0.2,9.8,0.3,14.7
				c0,1.9,3,1.9,3,0c-0.5-26.5-0.9-53-1.4-79.5c-0.1-7.6-0.3-15.2-0.4-22.8c-0.1-4.3,0.4-9-0.2-13.3c-0.4-2.3,0.5-0.3-0.6-0.2
				c1.2-0.1,3.1-1.6,4.1-2.2c6.3-3.4,12.6-6.7,19-10.1c13-6.9,26-13.8,38.9-20.8c-0.7-0.6-1.5-1.1-2.2-1.7
				c-17.6,43.9-35.2,87.9-52.8,131.8c-2.4,6.1-4.9,12.2-7.3,18.3C816.3,1090.9,819.2,1091.7,819.9,1089.9z"/>
		</g>
	</g>
	<g>
		<path class="st6" d="M945.2,1114.9l1.5,0.3l0.5,0.1l133.1,45.9c19.8,6.8,41.5,4.3,59.2-6.7l15.8-9.9l5.5-12.8l-29.2-21.9
			c-4.9-3.6-10.2-6.6-15.8-8.9l-23.2-9.3c-3.2-1.3-6.5-2.3-9.9-3.1l-15.1-3.6c-7.2-1.7-14.6-2.2-22-1.6L866,1099L945.2,1114.9z"/>
		<g>
			<path class="st6" d="M944.8,1116.4c8.2,1.6,16.3,5.3,24.2,8.1c17.6,6.1,35.2,12.1,52.8,18.2c15.8,5.4,31.6,10.9,47.4,16.3
				c15.1,5.2,29.7,9.3,46,6.4c13.4-2.3,24.3-9.1,35.5-16.1c2.3-1.4,5-2.5,6.4-4.9c2.1-3.7,3.4-7.9,5.1-11.8c0.3-0.8,0.2-1.5-0.5-2.1
				c-8.2-6.1-16.3-12.2-24.5-18.4c-9-6.8-18.5-11.6-28.9-15.8c-20.5-8.2-42-16.1-64.4-14.2c-43.3,3.7-86.5,7.5-129.8,11.2
				c-16,1.4-32,2.8-48.1,4.2c-1.6,0.1-2.2,2.6-0.4,2.9C892,1105.8,918.4,1111.1,944.8,1116.4c1.9,0.4,2.7-2.5,0.8-2.9
				c-26.4-5.3-52.8-10.6-79.2-15.9c-0.1,1-0.3,2-0.4,2.9c38.6-3.3,77.2-6.7,115.8-10c19.5-1.7,39-3.4,58.5-5.1
				c9.1-0.8,18.1-1,27.2,1.1c10.3,2.4,20.4,4.9,30.3,8.8c12.4,4.9,24.5,9.3,35.3,17.4c9,6.8,18.1,13.6,27.1,20.3
				c-0.2-0.7-0.4-1.4-0.5-2.1c-1.4,3.3-2.8,6.6-4.2,9.9c-0.3,0.7-1.7,3.3-0.9,2.5c-0.9,1-2.6,1.6-3.7,2.3
				c-9.4,5.8-18.4,12-29.1,15.1c-13.6,3.9-27.8,3.3-41.2-1.2c-3.1-1-6.1-2.1-9.2-3.2c-32.3-11.1-64.6-22.3-97-33.4
				c-9.4-3.2-19-7.7-28.7-9.6C943.7,1113.1,942.9,1116,944.8,1116.4z"/>
		</g>
	</g>
	<g>
		<polygon class="st4" points="866.3,1099.4 818.3,1088.4 817.3,1106.6 		"/>
		<g>
			<path class="st4" d="M866.7,1098c-16-3.7-32-7.3-48-11c-1-0.2-1.8,0.4-1.9,1.4c-0.3,6.1-0.7,12.1-1,18.2c-0.1,1.1,1,1.6,1.9,1.4
				c16.3-2.4,32.7-4.8,49-7.2c1.9-0.3,1.1-3.2-0.8-2.9c-16.3,2.4-32.7,4.8-49,7.2c0.6,0.5,1.3,1,1.9,1.4c0.3-6.1,0.7-12.1,1-18.2
				c-0.6,0.5-1.3,1-1.9,1.4c16,3.7,32,7.3,48,11C867.8,1101.3,868.6,1098.4,866.7,1098z"/>
		</g>
	</g>
	<g>
		<polygon class="st5" points="881,938.4 1067.5,842.5 985.6,821.4 947.2,841.4 854.5,864.5 879.7,938.2 		"/>
		<g>
			<path class="st5" d="M881.7,939.7c21-10.8,42.1-21.6,63.1-32.4c33.5-17.2,67-34.4,100.5-51.7c7.6-3.9,15.3-7.9,22.9-11.8
				c1.2-0.6,0.9-2.4-0.4-2.7c-14.5-3.7-28.9-7.5-43.4-11.2c-9.5-2.4-18.9-4.9-28.4-7.3c-3.2-0.8-8.2-3.2-11.5-2.4
				c-2.5,0.6-5.2,2.7-7.4,3.9c-4.6,2.4-9.2,4.8-13.8,7.2c-4.2,2.2-8.5,4.4-12.7,6.6c-1.1,0.6-2.2,1.2-3.4,1.8
				c-0.8,0.4-0.7,0.4-0.8,0.4c-4.8,1.7-10.1,2.5-15,3.7c-9.7,2.4-19.5,4.8-29.2,7.3c-16.1,4-32.2,8-48.3,12c-0.8,0.2-1.3,1.1-1,1.8
				c8.4,24.6,16.8,49.1,25.2,73.7c0.2,0.7,0.7,1,1.4,1.1c0.4,0.1,0.9,0.1,1.3,0.2c1.9,0.3,1.9-2.7,0-3c-0.4-0.1-0.9-0.1-1.3-0.2
				c0.5,0.4,1,0.7,1.4,1.1c-8.4-24.6-16.8-49.1-25.2-73.7c-0.3,0.6-0.7,1.2-1,1.8c30.2-7.5,60.4-15,90.6-22.5c3.7-0.9,7-3,10.4-4.8
				c8.7-4.6,17.4-9.1,26.2-13.7c1.1-0.6,2.6-1,3.5-1.8c1.1-0.9,0.1-0.2-0.1-0.2c1.8,0.4,3.7,0.9,5.5,1.4c8.4,2.2,16.8,4.3,25.2,6.5
				c17,4.4,34,8.8,51,13.2c-0.1-0.9-0.2-1.8-0.4-2.7c-21,10.8-42.1,21.6-63.1,32.4c-33.5,17.2-67,34.4-100.5,51.7
				c-7.6,3.9-15.3,7.9-22.9,11.8C878.5,938,880,940.6,881.7,939.7z"/>
		</g>
	</g>
</g>
<circle id="point2_2_" class="st2" cx="785.5" cy="661.5" r="99.5"/>
<circle id="point2_3_" class="st2" cx="1362.5" cy="1185.5" r="99.5"/>
<circle id="point2_4_" class="st2" cx="1212.5" cy="1475.5" r="99.5"/>
<circle id="point2_5_" class="st2" cx="618.5" cy="997.5" r="99.5"/>
<circle id="point2_6_" class="st2" cx="794.5" cy="1376.5" r="99.5"/>
<circle id="point2_7_" class="st2" cx="1074.5" cy="1281.5" r="49.8"/>
<circle id="point2_8_" class="st2" cx="1486.5" cy="976.5" r="49.8"/>
<circle id="point2_9_" class="st2" cx="543.5" cy="1227.5" r="49.8"/>
<circle id="point2_10_" class="st2" cx="985.5" cy="462.5" r="49.8"/>
<circle id="point2_11_" class="st2" cx="519.5" cy="760.5" r="49.8"/>
<circle id="point2_12_" class="st2" cx="1150.5" cy="643.5" r="49.8"/>
<g>
	<g>
		<path class="st9" d="M785.5,583c43.3,0,78.5,35.2,78.5,78.5S828.8,740,785.5,740S707,704.8,707,661.5S742.2,583,785.5,583
			 M785.5,573c-48.9,0-88.5,39.6-88.5,88.5s39.6,88.5,88.5,88.5s88.5-39.6,88.5-88.5S834.4,573,785.5,573L785.5,573z"/>
	</g>
	<polygon class="st9" points="775.2,616.6 763.1,659.1 754.2,661.7 751.1,674.4 759.9,671.2 753.6,695.9 819.6,695.9 823.4,680.1
		782.8,679.4 787.9,661 799.9,657.2 803.1,644.5 791.7,648.3 799.9,616.6 	"/>
</g>
<g>
	<g>
		<path class="st9" d="M794.5,1299c42.7,0,77.5,34.8,77.5,77.5s-34.8,77.5-77.5,77.5s-77.5-34.8-77.5-77.5S751.8,1299,794.5,1299
			 M794.5,1289c-48.3,0-87.5,39.2-87.5,87.5s39.2,87.5,87.5,87.5s87.5-39.2,87.5-87.5S842.8,1289,794.5,1289L794.5,1289z"/>
	</g>
	<g>
		<path class="st9" d="M793.4,1333.8c0,0-20.2,12.2-12.2,28.2l16.5,38c0,0,1.8,7.3-1.2,14.7s0.6,4.3,0.6,4.3l4.9-4.3l4.3-4.3
			l3.1-4.3l2.4-4.3c0,0,2.4-4.9-1.2-12.9l-4.3-10.4l-11-23.3l-1.2-3.7l-0.6-3.1v-4.3C793.4,1344.2,795.3,1333.2,793.4,1333.8z"/>
		<path class="st9" d="M766.9,1343.6c0,0-15.7,9.5-9.5,21.9l12.9,29.5c0,0,1.4,5.7-1,11.4c-2.4,5.7,0.5,3.3,0.5,3.3l3.8-3.3l3.3-3.3
			l2.4-3.3l1.9-3.3c0,0,1.9-3.8-1-10l-3.3-8.1l-8.6-18.1l-1-2.9l-0.5-2.4v-3.3C766.9,1351.7,768.3,1343.1,766.9,1343.6z"/>
		<path class="st9" d="M821.4,1343.6c0,0-15.7,9.5-9.5,21.9l12.9,29.5c0,0,1.4,5.7-1,11.4c-2.4,5.7,0.5,3.3,0.5,3.3l3.8-3.3l3.3-3.3
			l2.4-3.3l1.9-3.3c0,0,1.9-3.8-1-10l-3.3-8.1l-8.6-18.1l-1-2.9l-0.5-2.4v-3.3C821.4,1351.7,822.8,1343.1,821.4,1343.6z"/>
	</g>
</g>
<g>
	<g>
		<path class="st9" d="M1384,606c43.6,0,79,35.4,79,79s-35.4,79-79,79s-79-35.4-79-79S1340.4,606,1384,606 M1384,596
			c-49.2,0-89,39.8-89,89s39.8,89,89,89s89-39.8,89-89S1433.2,596,1384,596L1384,596z"/>
	</g>
	<path class="st9" d="M1414.3,678.8c0,0-3.2-4-10.3-4c0,0,0-1.6,3.2-5.6c0,0,3.2-4.8-1.6-12.7c0,0-3.2-10.3-22.2-6.3l-4-13.5
		l-7.9,2.4l3.2,12.7l-6.3,1.6l-3.2-13.5l-8.7,2.4l3.2,13.5l-15.9,4.8l2.4,8.7c0,0,10.3-4,11.1,0.8l8.7,36.5c0,0,0.8,4-1.6,4
		l-6.3,1.6l0.8,10.3l16.7-4l3.2,14.3l8.7-2.4l-4-13.5l6.3-1.6l4,13.5l8.7-2.4l-3.2-13.5l13.5-6.3
		C1412.7,706.6,1426.9,694.7,1414.3,678.8z M1370.6,663.7c19-7.9,21.4,1.6,21.4,1.6c4,11.9-16.7,15.1-16.7,15.1L1370.6,663.7z
		 M1380.9,706.6l-4.8-18.2c23-8.7,26.2,1.6,26.2,1.6C1405.5,704.2,1380.9,706.6,1380.9,706.6z"/>
</g>
<g>
	<g>
		<path class="st9" d="M1363,1107c43.6,0,79,35.4,79,79s-35.4,79-79,79s-79-35.4-79-79S1319.4,1107,1363,1107 M1363,1097
			c-49.2,0-89,39.8-89,89s39.8,89,89,89s89-39.8,89-89S1412.2,1097,1363,1097L1363,1097z"/>
	</g>
	<g>
		<polygon class="st9" points="1363.8,1131.2 1331,1185.6 1363.8,1205.3 1395.9,1185.6 		"/>
		<polygon class="st9" points="1331,1192.8 1363.8,1211.8 1395.9,1192.8 1363.8,1238 		"/>
	</g>
</g>
<g>
	<g>
		<path class="st9" d="M618.5,919c43.3,0,78.5,35.2,78.5,78.5s-35.2,78.5-78.5,78.5s-78.5-35.2-78.5-78.5S575.2,919,618.5,919
			 M618.5,909c-48.9,0-88.5,39.6-88.5,88.5s39.6,88.5,88.5,88.5s88.5-39.6,88.5-88.5S667.4,909,618.5,909L618.5,909z"/>
	</g>
	<g>
		<polygon class="st9" points="576.2,965.5 610.2,982.1 610.2,1048.5 576.2,1031.9 		"/>
		<polygon class="st9" points="577.8,963.9 611,979.7 660,962.3 626.8,946.5 		"/>
		<polygon class="st9" points="626.8,976.5 660.8,963.9 660.8,1030.3 626.8,1014.5 		"/>
	</g>
</g>
<g>
	<g>
		<path class="st9" d="M1212.5,1396c43.8,0,79.5,35.7,79.5,79.5s-35.7,79.5-79.5,79.5s-79.5-35.7-79.5-79.5S1168.7,1396,1212.5,1396
			 M1212.5,1386c-49.4,0-89.5,40.1-89.5,89.5s40.1,89.5,89.5,89.5s89.5-40.1,89.5-89.5S1261.9,1386,1212.5,1386L1212.5,1386z"/>
	</g>
	<g>
		<path class="st9" d="M1187.7,1450.2l-4.2,12.7h53.6l-8.5,26.1h-54.3l-4.2,13.4h62.1c0,0,12.7-2.8,16.2-14.8
			c3.5-12,8.5-26.1,8.5-26.1s2.1-11.3-10.6-12L1187.7,1450.2z"/>
		<polygon class="st9" points="1172.2,1469.9 1204.7,1469.9 1200.4,1481.9 1168,1481.9 		"/>
	</g>
</g>
</svg>
