<?xml version="1.0" encoding="utf-8"?>
<!-- Generator: Adobe Illustrator 21.0.2, SVG Export Plug-In . SVG Version: 6.00 Build 0)  -->
<svg version="1.1" id="Layer_1" xmlns="http://www.w3.org/2000/svg" xmlns:xlink="http://www.w3.org/1999/xlink" x="0px" y="0px"
	 viewBox="0 0 15 13.8" style="enable-background:new 0 0 15 13.8;" xml:space="preserve">
<style type="text/css">
	.st0{fill:none;}
	.st1{fill:#512DA8;}
	.st2{fill:#B39DDB;}
	.st3{fill:#311B92;}
	.st4{fill:#5E35B1;}
	.st5{fill:#9575CD;}
	.st6{fill:#4527A0;}
	.st7{fill:#7E57C2;}
	.st8{fill:#6A85FF;stroke:#6A85FF;stroke-width:0.1;stroke-miterlimit:10;}
</style>
<polygon class="st0" points="14.3,11.9 13.4,9.9 14.3,11.9 "/>
<path class="st0" d="M7.8,6.6l-1-1L7.8,6.6L8,6.7C7.9,6.7,7.8,6.6,7.8,6.6z"/>
<path class="st0" d="M3.1,9.4L4,9.6c0.1,0,0.2,0.1,0.4,0.1l0.4,0.2L4.1,9.7L2.8,9.3l-0.3,0C2.7,9.3,2.9,9.3,3.1,9.4z"/>
<polygon class="st0" points="5.1,3.6 5.3,4 5.1,3.6 "/>
<path class="st0" d="M6,4.8L6,4.8L6,4.8C6.1,4.9,6,4.9,6,4.8z"/>
<polygon class="st0" points="5,3.6 4.2,2.7 5,3.6 "/>
<path class="st0" d="M5.5,10.4l3.7,3.4l0,0l-4-3.7L4.8,10C5.1,10.1,5.3,10.2,5.5,10.4z"/>
<polygon class="st0" points="9.2,13.8 10.2,14.8 9.2,13.8 "/>
<g>
	<polygon class="st1" points="13.4,9.9 13.4,9.9 8,6.7 8,6.7 7.8,6.7 7.3,8.8 5.2,10.1 13.4,9.9 	"/>
	<g>
		<path class="st1" d="M13.6,9.6C11.8,8.5,9.9,7.4,8,6.4c-0.2-0.1-0.5,0-0.6,0.2C7.4,6.9,7.3,7.3,7.2,7.6c0,0.2-0.4,1.2-0.2,0.9
			C6.6,9.1,5.6,9.4,5,9.8c-0.3,0.2-0.2,0.7,0.2,0.7c2.8-0.1,5.5-0.2,8.3-0.2c0.5,0,0.5-0.8,0-0.8c-2.8,0.1-5.5,0.2-8.3,0.2
			c0.1,0.2,0.1,0.5,0.2,0.7C6,10.1,7.1,9.7,7.5,9.1C8,8.5,8,7.4,8.2,6.8C8,6.9,7.8,6.9,7.7,7c1.9,1.1,3.7,2.1,5.6,3.2
			C13.7,10.5,14.1,9.8,13.6,9.6z"/>
	</g>
</g>
<g>
	<path class="st2" d="M4.2,2.7l-0.4,1L5,3.6c0,0,0,0,0,0L4.2,2.7z"/>
	<g>
		<path class="st2" d="M4.1,2.7C4,3,3.8,3.4,3.7,3.7c0,0.1,0.1,0.2,0.1,0.2C4.2,3.9,4.6,3.8,5,3.8c0.1,0,0.2-0.2,0.1-0.3
			C4.9,3.2,4.6,2.9,4.3,2.6C4.2,2.5,4,2.7,4.1,2.8c0.3,0.3,0.6,0.6,0.8,0.9C5,3.6,5,3.5,5,3.5C4.6,3.5,4.2,3.6,3.8,3.6
			c0,0.1,0.1,0.1,0.1,0.2c0.1-0.3,0.3-0.7,0.4-1C4.4,2.6,4.2,2.5,4.1,2.7z"/>
	</g>
</g>
<g>
	<polygon class="st3" points="3.7,8.3 2.8,9.3 4.1,9.7 	"/>
	<g>
		<path class="st3" d="M3.6,8.2C3.3,8.5,3,8.9,2.7,9.2c-0.1,0.1,0,0.2,0.1,0.3c0.5,0.1,0.9,0.3,1.4,0.4c0.1,0,0.2-0.1,0.2-0.2
			C4.1,9.2,4,8.7,3.9,8.3C3.8,8.1,3.5,8.2,3.6,8.4C3.7,8.8,3.9,9.3,4,9.7c0.1-0.1,0.1-0.1,0.2-0.2C3.7,9.4,3.3,9.3,2.8,9.1
			c0,0.1,0,0.2,0.1,0.3c0.3-0.3,0.6-0.6,1-0.9C4,8.3,3.8,8.1,3.6,8.2z"/>
	</g>
</g>
<g>
	<polygon class="st4" points="4.8,10 4.8,10 5.2,10.1 5,8.9 4.1,9.7 4.7,9.9 	"/>
	<g>
		<path class="st4" d="M4.7,10.1c0.1,0.1,0.2,0.1,0.4,0.2c0.1,0,0.2,0,0.2-0.1C5.3,9.7,5.2,9.3,5.2,8.9c0-0.1-0.1-0.2-0.3-0.1
			C4.6,9.1,4.3,9.3,4,9.6C4,9.6,4,9.7,4.1,9.8C4.3,9.9,4.5,10,4.7,10.1c0.2,0.1,0.3-0.2,0.2-0.3C4.7,9.7,4.4,9.6,4.2,9.5
			c0,0.1,0,0.2,0,0.2C4.5,9.5,4.8,9.3,5.1,9C5.1,9,5,9,4.9,8.9C4.9,9.3,5,9.7,5,10.1c0.1,0,0.2-0.1,0.2-0.1C5.1,9.9,5,9.9,4.9,9.8
			C4.7,9.7,4.6,10,4.7,10.1z"/>
	</g>
</g>
<g>
	<polygon class="st3" points="6.1,4.9 6.1,4.9 6.1,4.9 6.2,6.7 7.8,6.7 6.8,5.6 	"/>
	<g>
		<path class="st3" d="M6.2,4.9C6.2,4.8,6.2,4.8,6.2,4.9c-0.1-0.2-0.3-0.1-0.3,0C6,5.5,6,6.1,6,6.7c0,0.1,0.1,0.1,0.2,0.1
			c0.5,0,1.1,0,1.6,0C8,6.8,8,6.7,7.9,6.6C7.4,6,6.8,5.4,6.2,4.9C6.1,4.7,5.9,4.9,6,5c0.6,0.6,1.2,1.2,1.7,1.8
			c0-0.1,0.1-0.2,0.1-0.3c-0.5,0-1.1,0-1.6,0c0.1,0,0.1,0.1,0.2,0.2C6.3,6.1,6.3,5.5,6.2,4.9C6.1,4.9,6,5,5.9,5c0,0,0,0,0,0
			C6.1,5.2,6.3,5,6.2,4.9z"/>
	</g>
</g>
<g>
	<polygon class="st1" points="2.4,9.3 2.8,9.3 2.5,8.2 1.1,9.3 2.4,9.3 	"/>
	<g>
		<path class="st1" d="M2.4,9.4c0.1,0,0.2,0,0.3,0c0.1,0,0.2-0.1,0.1-0.2c-0.1-0.3-0.2-0.7-0.3-1c0-0.1-0.1-0.1-0.2-0.1
			C2,8.4,1.5,8.8,1,9.1C0.9,9.2,1,9.4,1.1,9.4C1.6,9.4,2,9.4,2.4,9.4c0.2,0,0.2-0.3,0-0.3c-0.4,0-0.9,0-1.3,0c0,0.1,0.1,0.2,0.1,0.3
			c0.5-0.3,0.9-0.7,1.4-1c-0.1,0-0.1-0.1-0.2-0.1c0.1,0.3,0.2,0.7,0.3,1c0-0.1,0.1-0.1,0.1-0.2c-0.1,0-0.2,0-0.3,0
			C2.2,9.1,2.2,9.4,2.4,9.4z"/>
	</g>
</g>
<g>
	<path class="st1" d="M6,4.8L5.3,4L5.1,3.6c0,0,0,0,0,0L4.7,4.9L6,4.8L6,4.8C6,4.8,6,4.8,6,4.8z"/>
	<g>
		<path class="st1" d="M6.1,4.7c-0.3-0.4-0.6-0.8-1-1.2c-0.1-0.1-0.2,0-0.3,0.1C4.8,4,4.7,4.4,4.6,4.8c0,0.1,0,0.2,0.1,0.2
			c0.4,0,0.9,0,1.3,0C6.2,5,6.2,4.9,6.1,4.7C6.2,4.8,6.1,4.7,6.1,4.7C6,4.6,5.8,4.8,5.9,4.9c0,0,0,0,0,0C6,4.9,6,4.8,6.1,4.7
			c-0.5,0-1,0-1.4,0c0,0.1,0.1,0.1,0.1,0.2C5,4.5,5.1,4.1,5.2,3.6c-0.1,0-0.2,0-0.3,0.1c0.3,0.4,0.7,0.8,1,1.2
			C6,5.1,6.2,4.9,6.1,4.7z"/>
	</g>
</g>
<g>
	<polygon class="st1" points="14.5,12.2 14.3,11.9 14.3,11.9 14.5,12.3 13.3,13.8 15,13.8 15,11.5 14.5,12.2 	"/>
	<g>
		<path class="st1" d="M14.6,12.1c0-0.1-0.1-0.2-0.1-0.3c0-0.1-0.2-0.1-0.3,0c-0.1,0.1,0.1,0.4,0.1,0.5c0.1,0.1,0,0,0-0.1
			c0,0,0,0.1-0.1,0.1c-0.1,0-0.2,0.2-0.2,0.3c-0.3,0.4-0.6,0.8-0.9,1.2c-0.1,0.1,0,0.2,0.1,0.2c0.6,0,1.1,0,1.7,0
			c0.1,0,0.1-0.1,0.1-0.1c0-0.8,0-1.5,0-2.3c0-0.2-0.2-0.2-0.3-0.1c-0.2,0.2-0.4,0.5-0.5,0.7c-0.1,0.1,0.1,0.4,0.2,0.2
			c0.2-0.2,0.4-0.5,0.6-0.7c-0.1,0-0.2-0.1-0.3-0.1c0,0.8,0,1.5,0,2.3c0-0.1,0.1-0.1,0.1-0.2c-0.6,0-1.1,0-1.7,0
			c0,0.1,0.1,0.2,0.1,0.2c0.4-0.5,0.8-1,1.2-1.5C14.6,12.3,14.6,12.3,14.6,12.1c0,0,0,0-0.1-0.1c-0.1-0.2,0-0.2-0.1-0.1
			c-0.1,0-0.2,0-0.3,0c0,0.1,0.1,0.2,0.1,0.3C14.4,12.4,14.7,12.3,14.6,12.1z"/>
	</g>
</g>
<g>
	<polygon class="st4" points="7.6,13.5 7.6,13.5 7.6,13.5 	"/>
</g>
<g>
	<polygon class="st5" points="7.6,13.5 7.7,13.5 7.6,13.4 	"/>
</g>
<g>
	<polygon class="st6" points="15,10.8 15,8.9 13.4,9.9 13.4,9.9 14.3,11.9 	"/>
	<g>
		<path class="st6" d="M15.1,10.8c0-0.6,0-1.3,0-1.9c0-0.1-0.1-0.2-0.2-0.1c-0.4,0.2-0.7,0.5-1.1,0.7c-0.2,0.1-0.5,0.3-0.6,0.5
			c0,0.2,0.3,0.7,0.4,0.9c0.2,0.4,0.3,0.8,0.5,1.1c0,0.1,0.2,0.1,0.3,0C14.7,11.6,14.9,11.2,15.1,10.8c0.1-0.1-0.2-0.2-0.3-0.1
			c-0.2,0.4-0.5,0.7-0.7,1.1c0.1,0,0.2,0,0.3,0c-0.3-0.6-0.5-1.4-0.9-1.9c0.1,0.1-0.1,0.2,0.1,0c0.2-0.1,0.3-0.2,0.5-0.3
			c0.3-0.2,0.6-0.4,0.9-0.6c-0.1,0-0.2-0.1-0.2-0.1c0,0.6,0,1.3,0,1.9C14.9,11,15.1,11,15.1,10.8z"/>
	</g>
</g>
<g>
	<polygon class="st6" points="14.3,11.9 14.5,12.2 15,11.5 15,10.8 	"/>
	<g>
		<path class="st6" d="M14.2,12c0,0.1,0.1,0.2,0.1,0.3c0.1,0.1,0.2,0.1,0.3,0c0.2-0.2,0.4-0.5,0.5-0.7c0.1-0.2,0-0.5,0-0.8
			c0-0.2-0.2-0.2-0.3-0.1c-0.2,0.4-0.5,0.7-0.7,1.1c-0.1,0.2,0.2,0.3,0.3,0.2c0.2-0.4,0.5-0.7,0.7-1.1c-0.1,0-0.2-0.1-0.3-0.1
			c0,0.1,0,0.3,0,0.4c0,0.1,0,0.2,0,0.2c0,0.1,0-0.1,0,0c-0.1,0.2-0.3,0.5-0.5,0.7c0.1,0,0.2,0,0.3,0c0-0.1-0.1-0.2-0.1-0.3
			C14.4,11.6,14.1,11.8,14.2,12z"/>
	</g>
</g>
<g>
	<polygon class="st6" points="14.3,11.9 13.4,9.9 14.3,11.9 	"/>
</g>
<g>
	<polygon class="st6" points="14.5,12.2 14.5,12.2 14.3,11.9 14.3,11.9 	"/>
</g>
<g>
	<polygon class="st4" points="12.4,13.8 13.4,9.9 13.4,9.9 13.4,9.9 5.2,10.1 9.2,13.8 	"/>
	<g>
		<path class="st4" d="M12.6,13.8c0.3-1.3,0.7-2.6,1-3.9c0-0.1,0-0.2-0.1-0.2C10.7,9.8,7.9,9.9,5.2,10c-0.1,0-0.2,0.2-0.1,0.3
			c1.2,1.1,2.4,2.6,3.8,3.5c0.9,0.6,2.5,0.2,3.6,0.2c0.2,0,0.2-0.3,0-0.3c-0.9,0-2,0.2-2.9,0c-0.6-0.1-1.1-0.7-1.6-1.2
			c-0.8-0.7-1.5-1.6-2.4-2.2c-0.2-0.2-0.3,0.1,0,0.1c0.4,0,0.8,0,1.2,0c2.1-0.1,4.4-0.4,6.6-0.2c0.3,0,0.2,0,0.1-0.1
			c0.1,0.2-0.2,0.9-0.3,1c-0.2,0.9-0.5,1.9-0.7,2.8C12.2,13.9,12.5,14,12.6,13.8z"/>
	</g>
</g>
<g>
	<polygon class="st7" points="5,3.6 5,3.6 5,3.6 	"/>
	<g>
		<path class="st7" d="M4.9,3.7C4.9,3.7,4.9,3.7,4.9,3.7c0.1,0.1,0.2,0,0.3-0.1c0,0,0,0,0,0c0-0.1,0-0.2-0.1-0.2c0,0,0,0,0,0
			c-0.2,0-0.2,0.3,0,0.3c0,0,0,0,0,0c0-0.1-0.1-0.1-0.1-0.2c0,0,0,0,0,0c0.1,0,0.2,0,0.3-0.1c0,0,0,0,0,0C5,3.4,4.8,3.6,4.9,3.7z"/>
	</g>
</g>
<g>
	<path class="st7" d="M5,3.6L5,3.6L5,3.6C5.1,3.6,5.1,3.6,5,3.6L5.3,4L6,4.8c0,0,0,0.1,0.1,0.1l0.7,0.7l1,1C7.8,6.6,7.9,6.7,8,6.7
		l5.4,3.1l-3-6.5c-0.1-0.1-0.1-0.2-0.3-0.3l-2-1.7C7.6,0.8,6.7,0.7,6,1.1L4.6,1.8L4.2,2.7L5,3.6C5,3.6,5,3.6,5,3.6z"/>
	<g>
		<path class="st7" d="M4.9,3.7c1,1.1,1.8,2.4,3,3.2C9.6,8.1,11.6,9,13.3,10c0.1,0.1,0.3-0.1,0.2-0.2c-0.6-1.2-1.1-2.5-1.7-3.7
			c-0.5-1-0.9-2.4-1.6-3.2C9.3,1.9,7.8,0.5,6.4,0.8C5.2,1,4.5,1.6,4.1,2.7c0,0,0,0.1,0,0.1C4.4,3.1,4.6,3.4,4.9,3.7
			C5,3.8,5.3,3.6,5.1,3.5C4.7,3.1,4.4,2.9,4.5,2.3c0.2-0.5,0.8-0.8,1.3-1c1.1-0.5,2-0.2,2.8,0.6c0.5,0.4,1.1,0.8,1.5,1.3
			C10.7,4,11,5,11.4,5.7c0.5,1.1,0.9,2.8,1.7,3.7c0.1,0.1,0.1,0.3,0.2,0.4c0.1,0.2,0.3-0.1,0.2-0.2C13,9.4,12.5,9.2,12.1,9
			c-1.2-0.7-2.4-1.3-3.6-2C7.1,6,6.2,4.7,5.1,3.5C5,3.3,4.8,3.5,4.9,3.7z"/>
	</g>
</g>
<g>
	<polygon class="st7" points="8,6.7 13.4,9.9 8,6.7 	"/>
	<g>
		<path class="st7" d="M7.9,6.9c1.8,1,3.6,2.1,5.4,3.1c0.2,0.1,0.3-0.2,0.2-0.3c-1.8-1-3.6-2.1-5.4-3.1C7.9,6.5,7.7,6.8,7.9,6.9
			c1.8,1,3.6,2.1,5.4,3.1c0.2,0.1,0.3-0.2,0.2-0.3c-1.8-1-3.6-2.1-5.4-3.1C7.9,6.5,7.7,6.8,7.9,6.9z"/>
	</g>
</g>
<g>
	<path class="st7" d="M5,3.6C5,3.6,5,3.6,5,3.6L5,3.6L5,3.6z"/>
	<g>
		<path class="st7" d="M4.9,3.7c0,0,0.1,0.1,0.1,0.1c0.1,0,0.2-0.2,0.1-0.3c0,0,0,0,0,0C5,3.3,4.8,3.5,4.9,3.7
			C4.9,3.7,4.9,3.7,4.9,3.7C5,3.6,5,3.5,5,3.5c0,0,0.1,0,0.1,0C5,3.3,4.8,3.5,4.9,3.7z"/>
	</g>
</g>
<g>
	<polygon class="st7" points="6.1,4.9 6.8,5.6 6.1,4.9 	"/>
	<g>
		<path class="st7" d="M6,5c0.2,0.2,0.4,0.4,0.7,0.7C6.8,5.8,7,5.6,6.9,5.5C6.6,5.3,6.4,5,6.2,4.8C6.1,4.7,5.9,4.9,6,5C6,5,6,5,6,5
			c0.1,0.1,0.3,0,0.2-0.2c0,0,0,0,0,0C6.1,4.9,6.1,5,6,5c0.2,0.2,0.4,0.4,0.7,0.7c0.1-0.1,0.1-0.1,0.2-0.2C6.6,5.3,6.4,5,6.2,4.8
			C6.1,4.7,5.9,4.9,6,5z"/>
	</g>
</g>
<g>
	<path class="st7" d="M5,3.6L5,3.6C5,3.6,5.1,3.6,5,3.6L5,3.6z"/>
	<g>
		<path class="st7" d="M4.9,3.6c0,0.1,0,0.1,0.1,0.2c0.1,0.1,0.3-0.1,0.2-0.2c0,0,0,0,0,0C5,3.3,4.8,3.6,4.9,3.7c0,0,0,0,0,0
			C5,3.7,5.1,3.6,5.2,3.5c0,0,0,0.1,0,0.1C5.2,3.5,4.9,3.4,4.9,3.6z"/>
	</g>
</g>
<g>
	<polygon class="st7" points="6,4.8 6,4.8 5.3,4 	"/>
	<g>
		<path class="st7" d="M5.9,4.9C5.9,4.9,5.9,4.9,5.9,4.9c0.1,0.1,0.3-0.1,0.2-0.2C5.9,4.4,5.7,4.1,5.4,3.9C5.3,3.7,5.1,3.9,5.2,4.1
			C5.4,4.4,5.7,4.7,5.9,4.9C6,5.1,6.2,4.9,6.1,4.7C5.9,4.4,5.7,4.1,5.4,3.9C5.4,3.9,5.3,4,5.2,4.1C5.4,4.4,5.7,4.7,5.9,4.9
			C6,4.9,6.1,4.8,6.1,4.7c0,0,0,0,0,0C6,4.6,5.8,4.8,5.9,4.9z"/>
	</g>
</g>
<g>
	<polygon class="st7" points="13.4,9.9 12.5,13.8 13.1,13.8 14.3,11.9 	"/>
	<g>
		<path class="st7" d="M13.3,9.9c-0.3,1.3-0.6,2.6-1,3.9c0,0.1,0,0.2,0.1,0.2c0.4,0,0.7,0.1,0.9-0.2c0.3-0.5,0.7-1,1-1.6
			c0.2-0.3,0.1-0.4-0.1-0.7c-0.2-0.5-0.5-1.1-0.7-1.6c-0.1-0.2-0.3,0-0.3,0.2c0.2,0.4,0.4,0.8,0.5,1.2c0.1,0.2,0.2,0.4,0.3,0.7
			c0,0.2,0.1-0.1-0.1,0.1c-0.3,0.4-0.6,0.9-0.9,1.4c0,0.1-0.2,0.3-0.2,0.3c0.1-0.1-0.2,0-0.3,0c-0.1,0-0.2,0-0.3,0
			c0,0.1,0.1,0.1,0.1,0.2c0.3-1.3,0.6-2.6,1-3.9C13.6,9.8,13.3,9.7,13.3,9.9z"/>
	</g>
</g>
<g>
	<polygon class="st7" points="14.3,11.9 13.1,13.8 13.3,13.8 14.5,12.3 	"/>
	<g>
		<path class="st7" d="M14.2,11.8c-0.4,0.6-0.8,1.3-1.2,1.9c-0.1,0.1,0,0.2,0.1,0.2c0.4,0,0.5-0.3,0.7-0.6c0.3-0.3,0.5-0.7,0.8-1
			c0,0,0-0.1,0-0.2c-0.1-0.1-0.1-0.3-0.2-0.4c-0.1-0.2-0.3,0-0.3,0.2c0,0.1,0.1,0.2,0.1,0.3c0.1,0.1,0.1,0,0,0
			c-0.2,0.2-0.3,0.4-0.4,0.6c-0.2,0.2-0.3,0.4-0.5,0.7c-0.1,0.1-0.1,0.2-0.2,0.2c-0.1,0.1,0.1,0-0.1,0c0,0.1,0.1,0.2,0.1,0.2
			c0.4-0.6,0.8-1.3,1.2-1.9C14.5,11.8,14.3,11.7,14.2,11.8z"/>
	</g>
</g>
<g>
	<polygon class="st7" points="12.4,13.8 12.5,13.8 13.4,9.9 	"/>
	<g>
		<path class="st7" d="M12.4,13.9C12.4,13.9,12.5,13.9,12.4,13.9c0.1,0,0.2,0,0.2-0.1c0.3-1.3,0.6-2.6,1-3.9c0-0.2-0.2-0.3-0.3-0.1
			c-0.3,1.3-0.7,2.6-1,3.9c0,0.2,0.2,0.3,0.3,0.1c0.3-1.3,0.7-2.6,1-3.9c-0.1,0-0.2-0.1-0.3-0.1c-0.2,0.6-0.3,1.3-0.5,1.9
			c-0.1,0.4-0.2,0.9-0.3,1.3c0,0.1-0.1,0.3-0.1,0.5c0,0.2-0.1,0.1,0.1,0.1C12.2,13.6,12.2,13.9,12.4,13.9z"/>
	</g>
</g>
<g>
	<path class="st5" d="M5.5,10.4c-0.2-0.2-0.4-0.3-0.7-0.4L4.7,9.9L4.3,9.7C4.2,9.7,4.1,9.6,4,9.6L3.1,9.4C2.9,9.3,2.7,9.3,2.4,9.3
		l-1.3,0L1,9.7l0.2,0.6c0.3,0.7,0.8,1.3,1.5,1.5l4.8,1.6l0,0l0-0.1l0.1,0.1l0.6,0.3h0.9L5.5,10.4z"/>
	<g>
		<path class="st5" d="M5.6,10.3c-1.3-1-2.9-1.2-4.5-1.2C1.1,9.1,1,9.1,1,9.2c-0.8,3.1,4.8,3.5,6.6,4.4c0.1,0.1,0.3,0,0.2-0.2
			c0.1,0.3-0.5,0.1,0,0.3c0.1,0.1,0.3,0.2,0.5,0.2c0.3,0.1,0.7,0,1,0c0.1,0,0.2-0.2,0.1-0.3C8.1,12.6,6.8,11.4,5.6,10.3
			c-0.1-0.1-0.4,0.1-0.2,0.2c0.8,0.8,1.7,1.6,2.5,2.3c0.3,0.2,0.9,0.7,1.1,1c-0.1-0.3,0.1,0-0.4-0.2c-0.3-0.1-0.6,0-0.9-0.3
			c-0.1-0.1-0.3,0-0.3,0.1c-0.1-0.3,0.4,0.1-0.3-0.3c-0.4-0.2-1-0.3-1.5-0.5c-0.9-0.3-2-0.5-2.8-1c-0.5-0.2-2-1.3-1.7-2.1
			c0.2-0.4,0.5-0.3,1-0.2c1.1,0.1,2.3,0.4,3.2,1.1C5.5,10.6,5.7,10.4,5.6,10.3z"/>
	</g>
</g>
<g>
	<polygon class="st5" points="4.7,9.9 4.8,10 4.8,10 	"/>
	<g>
		<path class="st5" d="M4.6,10c0,0,0.1,0,0.1,0.1c0.2,0.1,0.3-0.2,0.2-0.3c0,0-0.1,0-0.1-0.1C4.6,9.7,4.4,9.9,4.6,10
			c0,0,0.1,0,0.1,0.1C4.8,10,4.8,9.9,4.9,9.8c0,0-0.1,0-0.1-0.1C4.6,9.7,4.4,9.9,4.6,10z"/>
	</g>
</g>
<g>
	<polygon class="st5" points="2.4,9.3 1.1,9.3 2.4,9.3 	"/>
	<g>
		<path class="st5" d="M2.4,9.1c-0.4,0-0.9,0-1.3,0c0,0.1,0,0.2,0,0.3c0.4,0,0.9,0,1.3,0C2.4,9.3,2.4,9.2,2.4,9.1
			C2.4,9.1,2.4,9.1,2.4,9.1c-0.2,0-0.2,0.3,0,0.3c0,0,0,0,0,0C2.6,9.4,2.6,9.1,2.4,9.1c-0.4,0-0.9,0-1.3,0c-0.2,0-0.2,0.3,0,0.3
			c0.4,0,0.9,0,1.3,0C2.6,9.4,2.6,9.1,2.4,9.1z"/>
	</g>
</g>
<g>
	<polygon class="st3" points="13.4,9.9 13.4,9.9 15,8.9 15,7.3 13.6,5.6 13,4.2 10.4,3.2 10.4,3.4 10.4,3.4 	"/>
	<g>
		<path class="st3" d="M13.3,10C13.3,10,13.4,10,13.3,10c0.1,0,0.1,0.1,0.2,0c0.6-0.4,1.4-0.7,1.6-1.3c0.4-1-0.2-1.7-0.7-2.4
			c-0.3-0.4-0.6-0.7-0.8-1.1c-0.2-0.3-0.3-0.9-0.6-1.2c-0.6-0.5-1.9-0.7-2.7-1c-0.1-0.1-0.2,0.1-0.2,0.2C11.2,5.5,12.3,7.7,13.3,10
			c0,0.1,0.3,0,0.2-0.2c-0.7-1.5-1.3-3-2-4.4c-0.3-0.6-0.5-1.5-0.9-1.9c-0.1-0.1-0.1,0-0.1-0.2c0.1,0.3-0.3,0,0,0.2
			c0.2,0.1,0.5,0.2,0.7,0.3c0.9,0.3,1.5,0.4,1.9,1.2c0.3,0.6,0.6,1.1,1,1.6c0.6,0.7,0.9,1,0.7,2c-0.1,0.4,0.1,0.3-0.4,0.6
			c-0.2,0.1-1,0.7-1,0.7C13.3,9.6,13.2,9.9,13.3,10z"/>
	</g>
</g>
<g>
	<polygon class="st3" points="10.4,3.4 10.4,3.4 13.4,9.9 	"/>
	<g>
		<path class="st3" d="M10.6,3.4C10.6,3.4,10.6,3.4,10.6,3.4c-0.1,0-0.2,0.1-0.3,0.1c1,2.2,2,4.3,3,6.5c0.1-0.1,0.2-0.1,0.3-0.2
			C12.5,7.6,11.6,5.5,10.6,3.4c-0.1-0.3-0.4-0.1-0.3,0.1c1,2.2,2,4.3,3,6.5c0.1,0.2,0.3,0,0.3-0.2C12.5,7.6,11.6,5.5,10.6,3.4
			c-0.1-0.2-0.3-0.1-0.3,0c0,0,0,0,0,0C10.3,3.6,10.6,3.6,10.6,3.4z"/>
	</g>
</g>
<path id="tear" class="st8" d="M12,7.3c-0.2-0.4-0.3-0.8-0.4-0.9V6.3c0,0,0,0,0,0c0,0,0,0,0,0v0.1c0,0.2-0.2,0.6-0.4,0.9
	c-0.5,0.9-1.1,2,0.4,2.5v0c0,0,0,0,0,0c0,0,0,0,0,0v0C13.1,9.3,12.5,8.2,12,7.3z"/>
</svg>
