<?xml version="1.0" encoding="utf-8"?>
<!-- Generator: Adobe Illustrator 21.0.2, SVG Export Plug-In . SVG Version: 6.00 Build 0)  -->
<svg version="1.1" id="Layer_1" xmlns="http://www.w3.org/2000/svg" xmlns:xlink="http://www.w3.org/1999/xlink" x="0px" y="0px"
	 viewBox="0 0 770 535" style="enable-background:new 0 0 770 535;" xml:space="preserve">
<style type="text/css">
	.st0{fill:#5E35B1;}
	.st1{fill:#7E57C2;}
	.st2{fill:#B39DDB;}
	.st3{fill:#311B92;}
	.st4{fill:#9575CD;}
	.st5{fill:#4527A0;}
	.st6{fill:#512DA8;}
	.st7{fill:#D1C4E9;}
	.st8{fill:#6A85FF;stroke:#6A85FF;stroke-miterlimit:10;}
</style>
<g>
	<polygon class="st0" points="340.5,112.5 457,136 413.5,83.5 	"/>
	<g>
		<path class="st0" d="M340.4,113c13.2,2.7,26.3,5.3,39.5,8c20.9,4.2,41.7,8.4,62.6,12.6c4.8,1,9.6,1.9,14.4,2.9
			c0.5,0.1,0.8-0.4,0.5-0.8c-12.7-15.3-25.4-30.7-38.1-46c-1.8-2.2-3.6-4.3-5.4-6.5c-0.1-0.1-0.3-0.2-0.5-0.1
			c-21.3,8.5-42.6,16.9-63.9,25.4c-3,1.2-6,2.4-9.1,3.6c-0.6,0.2-0.3,1.2,0.3,1c19.9-7.9,39.9-15.8,59.8-23.8
			c3.9-1.5,7.7-3.1,11.6-4.6c0.4-0.1,0.9-0.2,1.2-0.5c0.5-0.3,0.6,0.1,0-0.3c0.6,0.4,1.1,1.3,1.5,1.8c7.4,8.9,14.8,17.8,22.1,26.7
			c6.6,8,13.2,16,19.8,23.9c0.2-0.3,0.3-0.6,0.5-0.8c-13.2-2.7-26.3-5.3-39.5-8c-20.9-4.2-41.7-8.4-62.6-12.6
			c-4.8-1-9.6-1.9-14.4-2.9C340,111.9,339.7,112.9,340.4,113z"/>
	</g>
</g>
<g>
	<polygon class="st1" points="77,262.3 161.5,247.4 105.9,242.2 	"/>
	<g>
		<path class="st1" d="M77.2,262.7c9.5-1.7,19-3.3,28.5-5c15.2-2.7,30.3-5.3,45.5-8c3.5-0.6,7-1.2,10.6-1.9c0.6-0.1,0.4-0.9-0.1-1
			c-13.1-1.2-26.1-2.4-39.2-3.7c-3.6-0.3-7.1-0.7-10.7-1c-1.7-0.2-3.8-0.7-5.5-0.5c-1,0.1-2,1.1-2.8,1.7c-3,2.1-5.9,4.1-8.9,6.2
			c-5.9,4.1-11.8,8.2-17.7,12.3c-0.5,0.4,0,1.2,0.5,0.9c4.8-3.3,9.6-6.7,14.5-10c3.4-2.3,6.7-4.7,10.1-7c1.1-0.7,2.1-1.5,3.2-2.2
			c0.2-0.2,1.5-0.9,1-0.8c1.2-0.2,2.9,0.3,4.1,0.4c3.2,0.3,6.4,0.6,9.6,0.9c8.5,0.8,17.1,1.6,25.6,2.4c5.4,0.5,10.8,1,16.2,1.5
			c0-0.3-0.1-0.7-0.1-1c-9.5,1.7-19,3.3-28.5,5c-15.2,2.7-30.3,5.3-45.5,8c-3.5,0.6-7,1.2-10.6,1.9
			C76.3,261.9,76.5,262.9,77.2,262.7z"/>
	</g>
</g>
<g>
	<polygon class="st2" points="571.9,158.8 542.8,153 539,161.7 	"/>
	<g>
		<path class="st2" d="M572,158.3c-9.7-1.9-19.4-3.9-29.1-5.8c-0.2,0-0.5,0-0.6,0.2c-1.3,2.9-2.5,5.8-3.8,8.8
			c-0.1,0.3,0,0.8,0.4,0.8c11-1,21.9-2,32.9-2.9c0.6-0.1,0.6-1.1,0-1c-11,1-21.9,2-32.9,2.9c0.1,0.3,0.3,0.5,0.4,0.8
			c0.7-1.5,1.3-3.1,2-4.6c0.4-1,0.8-1.9,1.2-2.9c0.1-0.3,0.4-0.7,0.4-1c0.1-0.5-0.1,0-0.4,0c0.8,0,1.7,0.3,2.5,0.5
			c1.8,0.4,3.6,0.7,5.4,1.1c7.1,1.4,14.1,2.8,21.2,4.2C572.4,159.4,572.6,158.4,572,158.3z"/>
	</g>
</g>
<g>
	<polygon class="st3" points="201.5,370.5 166.5,447.5 228.5,398.5 283.5,324.5 	"/>
	<g>
		<path class="st3" d="M201.1,370.2c-10.2,22.5-20.4,44.9-30.6,67.4c-1.5,3.2-2.9,6.4-4.4,9.6c-0.2,0.5,0.3,1,0.8,0.6
			c7.9-6.3,15.9-12.6,23.8-18.8c11.4-9,22.8-18,34.2-27.1c1.5-1.2,3.2-2.2,4.3-3.6c2.4-3,4.6-6.2,6.9-9.3
			c9.2-12.4,18.4-24.8,27.6-37.2c4.3-5.8,8.6-11.6,12.9-17.3c2.2-3,5.1-6,6.9-9.3c0.1-0.2,0.2-0.3,0.3-0.4c0.3-0.4-0.3-0.9-0.7-0.7
			c-9.2,5.2-18.5,10.4-27.7,15.6c-14.7,8.2-29.4,16.5-44,24.7c-3.4,1.9-6.8,3.8-10.2,5.7c-0.6,0.3-0.1,1.2,0.5,0.9
			c9.2-5.2,18.5-10.4,27.7-15.6c14.7-8.2,29.4-16.5,44-24.7c3.4-1.9,6.8-3.8,10.2-5.7c-0.2-0.2-0.5-0.5-0.7-0.7
			c-5.5,7.4-11,14.8-16.5,22.2c-9.4,12.7-18.8,25.4-28.3,38c-3,4-5.9,7.9-8.9,11.9c-1.2,1.6-1.7,2.1-3.2,3.3
			c-10.5,8.3-21,16.6-31.4,24.8c-6,4.8-12.1,9.5-18.1,14.3c-2.1,1.7-4.3,3.4-6.4,5.1c-1.1,0.9-2.8,1.8-3.6,2.9
			c-0.1,0.2-0.3,0.3-0.5,0.4c0.3,0.2,0.5,0.4,0.8,0.6c10.2-22.5,20.4-44.9,30.6-67.4c1.5-3.2,2.9-6.4,4.4-9.6
			C202.2,370.2,201.3,369.7,201.1,370.2z"/>
	</g>
</g>
<g>
	<polygon class="st0" points="228.5,398.5 269.5,394.5 292.5,429.5 305.5,393.5 283.5,324.5 	"/>
	<g>
		<path class="st0" d="M228.5,399c12-1.2,24-2.3,36-3.5c1.5-0.1,3.4-0.7,5-0.5c-0.6-0.1-0.3-0.3,0,0.4c0.4,0.9,1.1,1.7,1.6,2.4
			c3.9,5.9,7.8,11.8,11.7,17.7c3.1,4.7,6.2,9.5,9.3,14.2c0.2,0.4,0.8,0.3,0.9-0.1c2.6-7.2,5.2-14.5,7.8-21.7c1.5-4,2.9-8.1,4.4-12.1
			c0.5-1.3,0.9-1.9,0.5-3.2c-1.9-6.7-4.2-13.2-6.3-19.8c-3.2-10-6.4-20.1-9.6-30.1c-1.9-6.1-3.9-12.2-5.8-18.2
			c-0.1-0.4-0.7-0.5-0.9-0.1c-6.2,8.3-12.4,16.7-18.6,25c-9.9,13.3-19.7,26.6-29.6,39.8c-2.3,3.1-4.6,6.1-6.8,9.2
			c-0.4,0.5,0.5,1,0.9,0.5c6.2-8.3,12.4-16.7,18.6-25c9.9-13.3,19.7-26.6,29.6-39.8c2.3-3.1,4.6-6.1,6.8-9.2c-0.3,0-0.6-0.1-0.9-0.1
			c4.7,14.7,9.4,29.4,14.1,44.1c2.4,7.5,4.8,15,7.2,22.6c0.2,0.7,0.6,1.4,0.7,2.1c0,0.3,0.1,0.3,0.1,0c0,0.2-0.2,0.5-0.2,0.7
			c-1.4,3.3-2.5,6.8-3.7,10.2c-3,8.4-6,16.7-9.1,25.1c0.3,0,0.6-0.1,0.9-0.1c-7.7-11.7-15.3-23.3-23-35c-0.1-0.1-0.3-0.3-0.4-0.2
			c-13.7,1.3-27.3,2.7-41,4C227.9,398.1,227.9,399.1,228.5,399z"/>
	</g>
</g>
<g>
	<polygon class="st4" points="384.8,175.5 383.5,174.5 383.4,174.4 380.5,175.9 287.5,225.2 417.8,202.3 	"/>
	<g>
		<path class="st4" d="M385.1,175.2c-0.5-0.4-1-0.8-1.5-1.2c-0.1-0.1-0.4-0.1-0.5,0c-10.6,5.6-21.1,11.2-31.7,16.8
			c-17.3,9.2-34.7,18.4-52,27.5c-4.1,2.2-8.2,4.3-12.2,6.5c-0.5,0.3-0.1,1,0.4,0.9c14.7-2.6,29.4-5.2,44.1-7.8
			c23.4-4.1,46.8-8.2,70.2-12.4c5.3-0.9,10.7-1.9,16-2.8c0.4-0.1,0.5-0.6,0.2-0.8C407.1,193,396.1,184.1,385.1,175.2
			c-0.5-0.4-1.2,0.3-0.7,0.7c11,8.9,22,17.9,33,26.8c0.1-0.3,0.1-0.6,0.2-0.8c-14.7,2.6-29.4,5.2-44.1,7.8
			c-23.4,4.1-46.8,8.2-70.2,12.4c-5.3,0.9-10.7,1.9-16,2.8c0.1,0.3,0.3,0.6,0.4,0.9c11.3-6,22.6-12,33.9-18c17-9,34-18,51-27
			c2.3-1.2,4.6-2.4,6.9-3.7c0.4-0.2,0.8-0.4,1.2-0.7c0.5-0.3,1.1-0.6,1.6-0.9c0.6-0.3,1.3-0.4,0.8-0.6c0.4,0.1,0.9,0.7,1.2,1
			C384.9,176.3,385.6,175.6,385.1,175.2z"/>
	</g>
</g>
<g>
	<polygon class="st3" points="380.5,175.9 174.8,194.3 105.9,242.2 161.5,247.4 287.5,225.2 	"/>
	<g>
		<path class="st3" d="M380.5,175.4c-12.8,1.1-25.5,2.3-38.3,3.4c-26.6,2.4-53.3,4.8-79.9,7.2c-23.6,2.1-47.3,4.2-70.9,6.3
			c-5.2,0.5-10.5,0.8-15.7,1.4c-0.9,0.1-1.3,0.3-2.1,0.8c-3,2.1-6,4.2-9,6.3c-19.2,13.3-38.3,26.7-57.5,40c-0.5,0.3-0.9,0.6-1.4,0.9
			c-0.4,0.3-0.2,0.9,0.3,0.9c9.4,0.9,18.9,1.8,28.3,2.7c6.5,0.6,12.9,1.2,19.4,1.8c2.6,0.2,5.5,0.9,8.1,0.7c1.5-0.1,3.1-0.5,4.6-0.8
			c3.8-0.7,7.7-1.4,11.5-2c12.2-2.1,24.4-4.3,36.6-6.4c23-4,45.9-8.1,68.9-12.1c1.4-0.2,3-0.3,4.4-0.8c1.5-0.5,3-1.6,4.4-2.3
			c9.4-5,18.8-10,28.2-14.9c19.8-10.5,39.7-21,59.5-31.5c0.4-0.2,0.8-0.4,1.2-0.6c0.6-0.3,0.1-1.2-0.5-0.9
			c-17.1,9.1-34.3,18.2-51.4,27.2c-10.7,5.7-21.4,11.4-32.1,17c-3.4,1.8-7.3,4.6-10.8,5.3c-20.6,3.6-41.1,7.2-61.7,10.9
			c-20.6,3.6-41.1,7.2-61.7,10.9c-1.4,0.2-1.8,0.2-3.3,0c-5.1-0.5-10.3-1-15.4-1.4c-11.9-1.1-23.7-2.2-35.6-3.3
			c-0.8-0.1-1.6-0.1-2.4-0.2c0.1,0.3,0.2,0.6,0.3,0.9c17.2-12,34.5-24,51.7-36c4.2-2.9,8.5-5.9,12.7-8.8c1.1-0.8,2.3-1.6,3.4-2.4
			c0.2-0.1,1.3-0.8,0.8-0.6c1-0.3,2.3-0.2,3.3-0.3c2.7-0.2,5.4-0.5,8.1-0.7c22.1-2,44.1-3.9,66.2-5.9c27.2-2.4,54.3-4.9,81.5-7.3
			c10.2-0.9,20.4-1.8,30.6-2.7c5.1-0.5,10.3-0.6,15.3-1.4c0.2,0,0.5,0,0.7-0.1C381.2,176.3,381.2,175.3,380.5,175.4z"/>
	</g>
</g>
<g>
	<polygon class="st2" points="750.5,85.5 755.3,69.5 737.5,72.5 	"/>
	<g>
		<path class="st2" d="M751,85.6c1.6-5.3,3.2-10.6,4.8-16c0.1-0.4-0.3-0.7-0.6-0.6c-5.9,1-11.9,2-17.8,3c-0.4,0.1-0.5,0.6-0.2,0.8
			c4.3,4.3,8.7,8.7,13,13c0.5,0.5,1.2-0.3,0.7-0.7c-4.3-4.3-8.7-8.7-13-13c-0.1,0.3-0.1,0.6-0.2,0.8c5.9-1,11.9-2,17.8-3
			c-0.2-0.2-0.4-0.4-0.6-0.6c-1.6,5.3-3.2,10.6-4.8,16C749.8,86,750.8,86.2,751,85.6z"/>
	</g>
</g>
<g>
	<polygon class="st5" points="287.5,225.2 233,254.1 381.7,268 450.3,228.6 417.8,202.3 	"/>
	<g>
		<path class="st5" d="M287.2,224.8c-15.9,8.4-31.7,16.8-47.6,25.2c-2.3,1.2-4.6,2.4-6.8,3.6c-0.5,0.3-0.2,0.9,0.3,0.9
			c10.7,1,21.4,2,32,3c21.4,2,42.8,4,64.1,6c16.1,1.5,32.2,3,48.3,4.5c2.4,0.2,3.9,0.7,5.9-0.5c6.5-3.7,12.9-7.4,19.4-11.2
			c15.6-9,31.2-17.9,46.8-26.9c0.3-0.2,0.6-0.4,0.9-0.5c0.3-0.1,0.4-0.6,0.1-0.8c-9.9-8-19.8-16-29.6-24c-0.8-0.7-2.1-2.2-3.1-2.4
			c-0.4-0.1-1.2,0.2-1.6,0.3c-3.6,0.6-7.3,1.3-10.9,1.9c-14.3,2.5-28.7,5-43,7.6c-16.1,2.8-32.2,5.7-48.3,8.5
			c-5.9,1-11.7,2.1-17.6,3.1c-1.9,0.3-3.8,0.7-5.6,1c-0.9,0.2-2.1,0.2-3,0.5c-0.1,0-0.3,0-0.4,0.1c-0.6,0.1-0.4,1.1,0.3,1
			c7.1-1.3,14.3-2.5,21.4-3.8c15.4-2.7,30.8-5.4,46.2-8.1c15-2.6,30.1-5.3,45.1-7.9c4.6-0.8,9.2-1.6,13.8-2.4c1-0.2,2.3-0.2,3.2-0.6
			c0.1,0,0.4-0.1,0.5-0.1c-0.7,0-0.2,0,0.3,0.5c4.9,4.3,10.2,8.3,15.3,12.4c5.2,4.2,10.4,8.4,15.5,12.6c0.3,0.2,0.6,0.5,0.9,0.7
			c0-0.3,0.1-0.5,0.1-0.8c-13.6,7.8-27.2,15.6-40.7,23.4c-7.8,4.5-15.6,9-23.4,13.4c-1.3,0.8-2.9,2.1-4.4,2.5
			c0.3-0.1,0.1-0.1-0.2-0.1c-0.5,0-1.1-0.1-1.6-0.2c-14.5-1.4-29-2.7-43.5-4.1c-21.4-2-42.9-4-64.3-6c-8.5-0.8-16.9-1.6-25.4-2.4
			c-2.8-0.3-5.6-0.5-8.4-0.8c-1.3-0.1-3.3-0.7-4.5-0.4c-0.2,0-0.4,0-0.6-0.1c0.1,0.3,0.2,0.6,0.3,0.9c15.9-8.4,31.7-16.8,47.6-25.2
			c2.3-1.2,4.6-2.4,6.8-3.6C288.3,225.4,287.8,224.5,287.2,224.8z"/>
	</g>
</g>
<g>
	<polygon class="st6" points="383.4,174.4 383.5,174.5 384.8,175.5 539,161.7 542.8,153 456.4,135.7 	"/>
	<g>
		<path class="st6" d="M383.1,174.8c0.9,0.6,1.2,1.1,2.1,1.1c0.8,0.1,1.7-0.2,2.5-0.2c3.5-0.3,6.9-0.6,10.4-0.9
			c12.1-1.1,24.2-2.2,36.3-3.2c28.3-2.5,56.7-5.1,85-7.6c6.6-0.6,13.1-1.2,19.7-1.8c0.2,0,0.4-0.1,0.4-0.2c1.3-2.9,2.5-5.8,3.8-8.8
			c0.1-0.3,0.1-0.7-0.3-0.7c-9.4-1.9-18.7-3.7-28.1-5.6c-15.3-3.1-30.7-6.1-46-9.2c-3.9-0.8-7.8-1.8-11.7-2.3
			c-1.7-0.2-3.3,1.2-4.8,2c-12.5,6.6-25,13.3-37.5,19.9c-6.7,3.5-13.4,7.1-20,10.6c-3.6,1.9-7.8,3.6-11.1,5.9
			c-0.2,0.1-0.4,0.2-0.5,0.3c-0.6,0.3-0.1,1.2,0.5,0.9c8.6-4.6,17.3-9.1,25.9-13.7c13.3-7,26.5-14.1,39.8-21.1
			c1.8-1,3.6-1.9,5.5-2.9c0.5-0.3,1-0.5,1.5-0.8c0.3-0.2,0.7-0.2,0.1-0.2c0.8,0,1.8,0.4,2.6,0.5c2.1,0.4,4.2,0.8,6.2,1.2
			c14.7,2.9,29.4,5.9,44.1,8.8c7.1,1.4,14.2,2.8,21.3,4.3c2.5,0.5,5,1,7.4,1.5c1.2,0.2,2.9,0.9,4.1,0.8c0.2,0,0.4,0.1,0.6,0.1
			c-0.1-0.2-0.2-0.5-0.3-0.7c-0.5,1.1-0.9,2.2-1.4,3.3c-0.7,1.5-1.9,3.4-2.2,5c-0.1,0.7,0.4,0.1,0.1,0.2c-0.2,0.1-0.5,0.1-0.7,0.1
			c-2.8,0.1-5.7,0.5-8.5,0.8c-12,1.1-24,2.1-36,3.2c-29.8,2.7-59.7,5.3-89.5,8c-4.9,0.4-9.8,0.9-14.8,1.3c-1.2,0.1-2.5,0.2-3.7,0.3
			c-1.3,0.2-0.8-0.1-2.1-1C383.1,173.6,382.6,174.5,383.1,174.8z"/>
	</g>
</g>
<g>
	<polygon class="st3" points="709.5,141.5 692.5,153.5 712.5,161.5 	"/>
	<g>
		<path class="st3" d="M709.2,141.1c-5.7,4-11.3,8-17,12c-0.4,0.3-0.3,0.8,0.1,0.9c6.7,2.7,13.3,5.3,20,8c0.4,0.2,0.7-0.3,0.6-0.6
			c-1-6.7-2-13.3-3-20c-0.1-0.6-1.1-0.4-1,0.3c1,6.7,2,13.3,3,20c0.2-0.2,0.4-0.4,0.6-0.6c-6.7-2.7-13.3-5.3-20-8
			c0,0.3,0.1,0.6,0.1,0.9c5.7-4,11.3-8,17-12C710.3,141.6,709.8,140.7,709.2,141.1z"/>
	</g>
</g>
<g>
	<polygon class="st0" points="688.5,136.5 675.5,149.5 692.5,153.5 	"/>
	<g>
		<path class="st0" d="M688.1,136.1c-4.3,4.3-8.7,8.7-13,13c-0.3,0.3-0.1,0.7,0.2,0.8c5.7,1.3,11.3,2.7,17,4
			c0.4,0.1,0.7-0.2,0.6-0.6c-1.3-5.7-2.7-11.3-4-17c-0.1-0.6-1.1-0.4-1,0.3c1.3,5.7,2.7,11.3,4,17c0.2-0.2,0.4-0.4,0.6-0.6
			c-5.7-1.3-11.3-2.7-17-4c0.1,0.3,0.1,0.6,0.2,0.8c4.3-4.3,8.7-8.7,13-13C689.3,136.4,688.6,135.7,688.1,136.1z"/>
	</g>
</g>
<g>
	<polygon class="st3" points="695.5,98.5 713.5,78.5 675.5,83.5 	"/>
	<g>
		<path class="st3" d="M695.9,98.9c6-6.7,12-13.3,18-20c0.3-0.3,0.1-0.9-0.4-0.9c-12.7,1.7-25.3,3.3-38,5c-0.5,0.1-0.7,0.6-0.3,0.9
			c6.7,5,13.3,10,20,15c0.5,0.4,1-0.5,0.5-0.9c-6.7-5-13.3-10-20-15c-0.1,0.3-0.2,0.6-0.3,0.9c12.7-1.7,25.3-3.3,38-5
			c-0.1-0.3-0.2-0.6-0.4-0.9c-6,6.7-12,13.3-18,20C694.7,98.6,695.4,99.3,695.9,98.9z"/>
	</g>
</g>
<g>
	<polygon class="st6" points="725.5,151.5 712.5,161.5 732.5,176.5 	"/>
	<g>
		<path class="st6" d="M725.2,151.1c-4.3,3.3-8.7,6.7-13,10c-0.3,0.2-0.3,0.6,0,0.9c6.7,5,13.3,10,20,15c0.4,0.3,0.8-0.2,0.7-0.6
			c-2.3-8.3-4.7-16.7-7-25c-0.2-0.6-1.1-0.4-1,0.3c2.3,8.3,4.7,16.7,7,25c0.2-0.2,0.5-0.4,0.7-0.6c-6.7-5-13.3-10-20-15
			c0,0.3,0,0.6,0,0.9c4.3-3.3,8.7-6.7,13-10C726.3,151.5,725.8,150.7,725.2,151.1z"/>
	</g>
</g>
<g>
	<polygon class="st0" points="190.5,502.5 217.5,448.5 228.5,398.5 166.5,447.5 	"/>
	<g>
		<path class="st0" d="M190.9,502.8c7.3-14.6,14.6-29.2,21.9-43.8c1.5-2.9,2.9-5.8,4.4-8.8c0.5-0.9,0.8-1.7,1-2.7
			c1.9-8.4,3.7-16.9,5.6-25.3c1.7-7.8,3.5-15.7,5.2-23.5c0.1-0.5-0.5-0.8-0.8-0.5c-18.1,14.3-36.3,28.7-54.4,43c-2.5,2-5.1,4-7.6,6
			c-0.2,0.1-0.2,0.4-0.1,0.6c7,16,14,32.1,21,48.1c1,2.3,2,4.6,3,6.9c0.3,0.6,1.1,0.1,0.9-0.5c-7.8-17.8-15.6-35.7-23.3-53.5
			c-0.1-0.3-0.3-0.9-0.5-1.2c-0.5-0.5,0.4-0.1-0.2,0.3c0.6-0.4,1.2-0.9,1.7-1.4c3.2-2.5,6.4-5,9.6-7.6c10-7.9,20-15.8,30-23.7
			c6.9-5.4,13.8-10.9,20.6-16.3c-0.3-0.2-0.6-0.3-0.8-0.5c-3.4,15.7-6.9,31.3-10.3,47c-0.8,3.8-2.6,6.8-4.4,10.5
			c-4.5,9-9,18-13.5,27.1c-3.2,6.4-6.4,12.9-9.7,19.3C189.8,502.8,190.6,503.3,190.9,502.8z"/>
	</g>
</g>
<g>
	<polygon class="st6" points="729.5,90.5 737.5,72.5 713.5,78.5 	"/>
	<g>
		<path class="st6" d="M729.9,90.8c2.7-6,5.3-12,8-18c0.2-0.4-0.1-0.8-0.6-0.7c-8,2-16,4-24,6c-0.5,0.1-0.4,0.7-0.1,0.9
			c5.3,4,10.7,8,16,12c0.5,0.4,1-0.5,0.5-0.9c-5.3-4-10.7-8-16-12c0,0.3-0.1,0.6-0.1,0.9c8-2,16-4,24-6c-0.2-0.2-0.4-0.5-0.6-0.7
			c-2.7,6-5.3,12-8,18C728.8,90.8,729.7,91.3,729.9,90.8z"/>
	</g>
</g>
<g>
	<polygon class="st3" points="223.5,501.5 245.5,501.5 242.5,492.5 222.5,476.5 217.5,448.5 190.5,502.5 	"/>
	<g>
		<path class="st3" d="M223.5,502c7.3,0,14.7,0,22,0c0.3,0,0.6-0.3,0.5-0.6c-0.7-2.2-1.5-4.4-2.2-6.5c-0.4-1.2-0.6-2.2-1.4-3.1
			c-3.5-3.4-7.8-6.3-11.7-9.3c-2-1.6-4.1-3.3-6.1-4.9c-0.5-0.4-1.1-0.7-1.5-1.2c-0.4-0.4,0,0.3-0.2-0.4c-0.5-1.7-0.6-3.6-1-5.3
			c-0.5-2.8-1-5.7-1.5-8.5c-0.8-4.6-1.6-9.2-2.5-13.8c-0.1-0.4-0.7-0.5-0.9-0.1c-7.9,15.8-15.8,31.5-23.7,47.3
			c-1.1,2.2-2.2,4.5-3.3,6.7c-0.2,0.3,0,0.8,0.4,0.8C201.5,502.7,212.5,502.3,223.5,502c0.6,0,0.6-1,0-1c-11,0.3-22,0.7-33,1
			c0.1,0.3,0.3,0.5,0.4,0.8c7.9-15.8,15.8-31.5,23.7-47.3c1.1-2.2,2.2-4.5,3.3-6.7c-0.3,0-0.6-0.1-0.9-0.1
			c1.6,8.9,3.2,17.8,4.8,26.7c0.5,2.6,3.3,3.9,5.3,5.4c4.4,3.5,8.8,7,13.2,10.5c0.5,0.4,1.3,0.8,1.7,1.4c0,0,0.3,0.8,0.5,1.4
			c0.8,2.5,1.7,5,2.5,7.5c0.2-0.2,0.3-0.4,0.5-0.6c-7.3,0-14.7,0-22,0C222.9,501,222.9,502,223.5,502z"/>
	</g>
</g>
<g>
	<polygon class="st2" points="257.5,418.5 276.5,482.5 269.5,516.5 312.5,480.5 292.5,429.5 269.5,394.5 	"/>
	<g>
		<path class="st2" d="M257,418.6c4,13.6,8.1,27.2,12.1,40.7c2.1,7,4.2,14,6.2,21c0.2,0.6,0.5,1.3,0.6,2c0.1,0.5,0.1-0.2,0,0.6
			c-0.6,3.2-1.3,6.4-2,9.6c-1.6,8-3.3,15.9-4.9,23.9c-0.1,0.5,0.5,0.8,0.8,0.5c12.6-10.5,25.1-21.1,37.7-31.6
			c1.8-1.5,3.5-2.9,5.3-4.4c0.1-0.1,0.2-0.3,0.1-0.5c-5.1-13.1-10.3-26.3-15.4-39.4c-1.5-3.9-2.7-8.2-4.7-11.9
			c-1.1-2.1-2.6-4-3.9-5.9c-2.4-3.7-4.8-7.3-7.2-11c-3.9-6-7.8-11.9-11.8-17.9c-0.2-0.3-0.7-0.4-0.9,0c-4,8-8,16-12,24
			c-0.3,0.6,0.6,1.1,0.9,0.5c4-8,8-16,12-24c-0.3,0-0.6,0-0.9,0c6.1,9.4,12.3,18.7,18.4,28.1c1.5,2.2,3.7,5.2,4.7,7.3
			c1.8,4,3.2,8.3,4.9,12.4c4.7,11.9,9.3,23.8,14,35.7c0.2,0.6,0.4,1.3,0.7,1.8c0.3,0.6,0,0.8,0.4,0.2c-0.5,0.7-1.7,1.4-2.3,2
			c-4.4,3.7-8.7,7.3-13.1,11c-9.2,7.7-18.4,15.4-27.5,23.1c0.3,0.2,0.6,0.3,0.8,0.5c1.4-6.9,2.8-13.7,4.2-20.6
			c0.8-3.8,1.6-7.7,2.4-11.5c0.2-1.1,0.4-1.8,0.2-2.9c-1.6-6.2-3.7-12.3-5.5-18.4c-2.7-9.3-5.5-18.5-8.2-27.8
			c-1.7-5.7-3.4-11.3-5.1-17C257.8,417.8,256.8,418,257,418.6z"/>
	</g>
</g>
<g>
	<polygon class="st1" points="553.5,293.5 553.5,306.5 567.5,300.5 544.5,283.5 510,264 514,288 	"/>
	<g>
		<path class="st1" d="M553,293.5c0,4.3,0,8.7,0,13c0,0.4,0.4,0.6,0.8,0.4c4.7-2,9.3-4,14-6c0.4-0.2,0.3-0.7,0-0.9
			c-7.5-5.6-14.9-11.5-22.7-16.8c-2.3-1.5-4.8-2.8-7.2-4.1c-5.5-3.1-11.1-6.3-16.6-9.4c-3.7-2.1-7.4-4.2-11.1-6.3
			c-0.4-0.2-0.8,0.1-0.7,0.6c1.3,8,2.7,16,4,24c0,0.2,0.2,0.3,0.3,0.3c13.2,1.8,26.3,3.7,39.5,5.5c0.6,0.1,0.9-0.9,0.3-1
			c-9-1.3-18-2.5-27-3.8c-2.6-0.4-5.2-0.7-7.7-1.1c-1.3-0.2-3-0.7-4.3-0.6c-0.6,0.1-0.4-0.3-0.2,0.2c-0.2-0.4-0.2-1.2-0.3-1.7
			c-0.4-2.5-0.8-5.1-1.3-7.6c-0.8-4.9-1.6-9.8-2.4-14.7c-0.2,0.2-0.5,0.4-0.7,0.6c8.6,4.9,17.2,9.7,25.8,14.6
			c2.9,1.6,5.9,3.1,8.7,4.9c3.7,2.4,7.1,5.3,10.7,7.9c4.1,3,8.2,6.1,12.3,9.1c0-0.3,0-0.6,0-0.9c-4.7,2-9.3,4-14,6
			c0.3,0.1,0.5,0.3,0.8,0.4c0-4.3,0-8.7,0-13C554,292.9,553,292.9,553,293.5z"/>
	</g>
</g>
<g>
	<polygon class="st5" points="565.5,283.5 544.5,283.5 567.5,300.5 	"/>
	<g>
		<path class="st5" d="M565.5,283c-7,0-14,0-21,0c-0.5,0-0.6,0.7-0.3,0.9c7.7,5.7,15.3,11.3,23,17c0.3,0.2,0.8-0.1,0.8-0.4
			c-0.7-5.7-1.3-11.3-2-17c-0.1-0.6-1.1-0.6-1,0c0.7,5.7,1.3,11.3,2,17c0.3-0.1,0.5-0.3,0.8-0.4c-7.7-5.7-15.3-11.3-23-17
			c-0.1,0.3-0.2,0.6-0.3,0.9c7,0,14,0,21,0C566.1,284,566.1,283,565.5,283z"/>
	</g>
</g>
<g>
	<polygon class="st3" points="300.5,528.5 305.5,517.5 349.5,522.5 362.5,528.5 361.5,517.5 382.5,517.5 376.5,506.5 350.5,495.5
		312.5,480.5 269.5,516.5 	"/>
	<g>
		<path class="st3" d="M300.9,528.8c1-2.2,2-4.4,3-6.6c0.5-1.2,1.2-2.4,1.6-3.6c0.1-0.2,0.2-0.6,0.3-0.8c-0.1,0.1-0.6,0.2-0.2,0.2
			c4,0.1,8.2,0.9,12.2,1.4c6.6,0.7,13.1,1.5,19.7,2.2c3.8,0.4,8,0.5,11.8,1.3c0.3,0.1-0.2-0.1,0,0c0.4,0.1,0.7,0.3,1.1,0.5
			c1.5,0.7,2.9,1.4,4.4,2c2.5,1.1,4.9,2.3,7.4,3.4c0.3,0.1,0.8,0,0.8-0.4c-0.3-2.9-0.5-5.8-0.8-8.7c0-0.5,0.1-1.5-0.2-1.9
			c-0.1-0.1,0-0.3,0-0.4c0.7,1.8-0.9,0.3-0.4,0.5c0.7,0.3,2.1,0,2.9,0c6,0,12,0,18,0c0.4,0,0.6-0.4,0.4-0.8c-1.5-2.7-2.9-5.3-4.4-8
			c-0.8-1.4-1.1-2.9-2.6-3.5c-6.1-2.7-12.4-5.2-18.6-7.9c-9.5-4-19.1-7.7-28.7-11.5c-5.3-2.1-10.7-4.2-16-6.3
			c-0.2-0.1-0.4,0-0.5,0.1c-12.6,10.5-25.1,21.1-37.7,31.6c-1.8,1.5-3.5,2.9-5.3,4.4c-0.3,0.3-0.1,0.7,0.2,0.8c10.3,4,20.7,8,31,12
			c0.6,0.2,0.9-0.7,0.3-1c-10.3-4-20.7-8-31-12c0.1,0.3,0.1,0.6,0.2,0.8c6.7-5.6,13.4-11.3,20.2-16.9c7.5-6.3,15.3-12.3,22.6-18.9
			c0.4-0.4,0.2,0-0.2-0.1c0.4,0.1,0.8,0.3,1.1,0.4c1.9,0.7,3.7,1.5,5.6,2.2c5.8,2.3,11.7,4.6,17.5,6.9c7.5,3,14.4,5.7,21.7,8.8
			c5.7,2.4,11.4,5,17.2,7.3c0.8,0.3,0.5,0.1,0.7,0.5c0.8,1,1.3,2.3,1.9,3.4c1.3,2.4,2.6,4.8,3.9,7.2c0.1-0.3,0.3-0.5,0.4-0.8
			c-7,0-14,0-21,0c-0.3,0-0.5,0.2-0.5,0.5c0.3,3.7,0.7,7.3,1,11c0.3-0.1,0.5-0.3,0.8-0.4c-3.9-1.8-7.9-3.6-11.8-5.5
			c-1.7-0.8-3.5-0.8-5.4-1.1c-10.3-1.2-20.6-2.3-30.9-3.5c-3-0.3-6.1-0.7-9.1-1c-0.2,0-0.4,0.1-0.4,0.2c-1.7,3.7-3.3,7.3-5,11
			C299.8,528.8,300.7,529.3,300.9,528.8z"/>
	</g>
</g>
<g>
	<polygon class="st2" points="161.5,247.4 77,262.3 69.5,267.5 194.5,274.5 233,254.1 287.5,225.2 	"/>
	<g>
		<path class="st2" d="M161.4,246.9c-11.3,2-22.6,4-34,6c-15.5,2.7-31,5.5-46.5,8.2c-1.2,0.2-2.8,0.2-4,0.7
			c-1.1,0.4-2.2,1.4-3.1,2.1c-1.5,1.1-3,2.1-4.6,3.2c-0.4,0.3-0.3,0.9,0.3,0.9c12.3,0.7,24.7,1.4,37,2.1c21.4,1.2,42.8,2.4,64.2,3.6
			c6.8,0.4,13.6,0.8,20.4,1.1c1,0.1,2.4,0.4,3.4,0.2c1.6-0.3,3.5-1.8,5-2.5c12.8-6.8,25.6-13.6,38.4-20.4
			c16.2-8.6,32.4-17.2,48.6-25.7c0.4-0.2,0.9-0.5,1.3-0.7c0.5-0.3,0.1-1-0.4-0.9c-14.2,2.5-28.4,5-42.6,7.5
			c-22.6,4-45.2,8-67.8,11.9C171.7,245.1,166.6,246,161.4,246.9c-0.6,0.1-0.4,1.1,0.3,1c14.2-2.5,28.4-5,42.6-7.5
			c22.6-4,45.2-8,67.8-11.9c5.1-0.9,10.3-1.8,15.4-2.7c-0.1-0.3-0.3-0.6-0.4-0.9c-14.9,7.9-29.8,15.8-44.7,23.7
			c-12.5,6.6-24.9,13.2-37.4,19.8c-3.3,1.8-6.6,3.5-9.9,5.3c-1.1,0.6-0.6,0.5-2,0.4c-5.5-0.3-11.1-0.6-16.6-0.9
			c-20.9-1.2-41.7-2.3-62.6-3.5c-9.5-0.5-19.1-1.1-28.6-1.6c-3.3-0.2-6.5-0.4-9.8-0.5c-1.6-0.1-3.8-0.6-5.4-0.3c-0.2,0-0.5,0-0.7,0
			c0.1,0.3,0.2,0.6,0.3,0.9c1.3-0.9,2.5-1.7,3.8-2.6c1-0.7,2.8-2.2,3.7-2.6c0.8-0.3,2-0.3,2.9-0.5c6.1-1.1,12.1-2.1,18.2-3.2
			c17-3,34-6,51-9c4.2-0.7,8.3-1.5,12.5-2.2C162.3,247.8,162,246.8,161.4,246.9z"/>
	</g>
</g>
<g>
	<polygon class="st6" points="494.1,263.9 514,288 510.1,264 527.6,219.2 616,167 530,182 	"/>
	<g>
		<path class="st6" d="M493.8,264.2c6.6,8,13.3,16.1,19.9,24.1c0.4,0.4,0.9-0.1,0.8-0.5c-1-6.3-2-12.5-3-18.8
			c-0.2-1.4-0.5-2.8-0.7-4.2c0-0.3-0.2-0.6-0.1-0.9c0-0.3,0,0.4,0,0c0.4-1.7,1.3-3.4,1.9-5c5-12.9,10.4-25.8,15.1-38.8
			c0.1-0.4,0.6-1.1,0.1-0.6c0.1-0.1,0.4-0.3,0.6-0.3c1.2-0.6,2.4-1.4,3.5-2.1c4.9-2.9,9.7-5.7,14.6-8.6c14-8.3,28.1-16.6,42.1-24.9
			c5.9-3.5,11.9-7,17.8-10.5c3-1.8,6.5-3.4,9.4-5.5c0.1-0.1,0.3-0.2,0.5-0.3c0.5-0.3,0.2-1-0.4-0.9c-10,1.7-19.9,3.5-29.9,5.2
			c-15.6,2.7-31.2,5.4-46.8,8.2c-2.2,0.4-4.4,0.8-6.6,1.2c-0.7,0.1-2,0.1-2.6,0.5c-0.5,0.3-0.7,1.1-1,1.7c-0.8,1.8-1.5,3.5-2.3,5.3
			c-6.2,14-12.3,28.1-18.5,42.1c-3.1,7-6.1,14-9.2,21c-1.7,3.8-3.6,7.6-5,11.5c-0.1,0.2-0.2,0.4-0.2,0.6c-0.3,0.6,0.6,1.1,0.9,0.5
			c3.9-9,7.9-18,11.8-27c6.4-14.6,12.8-29.2,19.2-43.8c1.6-3.6,3.1-7.1,4.7-10.7c0.2-0.4,0.2-0.3-0.1-0.1c0.2-0.1,0.7-0.1,0.9-0.2
			c1.7-0.2,3.4-0.6,5.1-0.9c14.7-2.6,29.4-5.1,44.1-7.7c7.6-1.3,15.2-2.7,22.8-4c2.6-0.5,5.3-0.9,7.9-1.4c1.3-0.2,3.3-0.2,4.5-0.8
			c0.2-0.1,0.4-0.1,0.6-0.1c-0.1-0.3-0.3-0.6-0.4-0.9c-7.8,4.6-15.5,9.2-23.3,13.8c-14.3,8.4-28.5,16.8-42.8,25.2
			c-5.4,3.2-10.8,6.4-16.3,9.6c-1.5,0.9-3.1,1.8-4.6,2.7c-0.5,0.3-1.3,0.6-1.7,1.1c-0.7,0.9-1,2.7-1.5,3.7c-1.2,3.1-2.4,6.2-3.6,9.3
			c-3,7.6-5.9,15.2-8.9,22.8c-1,2.5-2,5.1-3,7.6c-0.4,1-0.6,1.5-0.5,2.6c1.1,7.1,2.3,14.1,3.4,21.2c0.1,0.7,0.2,1.3,0.3,2
			c0.3-0.2,0.6-0.3,0.8-0.5c-6.6-8-13.3-16.1-19.9-24.1C494.1,263,493.4,263.7,493.8,264.2z"/>
	</g>
</g>
<g>
	<polygon class="st2" points="381.7,268 450.5,274.5 451,274.5 474.5,269.5 494.5,264.5 450.3,228.6 	"/>
	<g>
		<path class="st2" d="M381.7,268.5c16.4,1.5,32.9,3.1,49.3,4.6c6.4,0.6,12.9,1.7,19.3,1.8c2.4,0,4.9-0.9,7.2-1.4
			c5-1.1,9.9-2.1,14.9-3.2c7.5-1.6,14.9-3.6,22.3-5.5c0.3-0.1,0.5-0.6,0.2-0.8c-12.9-10.4-25.8-20.9-38.7-31.3
			c-1.9-1.5-3.7-3-5.6-4.5c-0.2-0.1-0.4-0.2-0.6-0.1c-20.1,11.5-40.1,23.1-60.2,34.6c-2.8,1.6-5.6,3.2-8.4,4.8
			c-0.6,0.3-0.1,1.2,0.5,0.9c17-9.8,33.9-19.5,50.9-29.3c4.2-2.4,8.5-4.9,12.7-7.3c1.2-0.7,2.5-1.4,3.7-2.1c0.3-0.1,0.7-0.3,0.9-0.5
			c0.4-0.4,0.5,0.3-0.3-0.2c2.4,1.5,4.5,3.6,6.7,5.4c4.6,3.7,9.2,7.5,13.9,11.2c7.9,6.4,15.8,12.8,23.7,19.2
			c0.1-0.3,0.1-0.6,0.2-0.8c-6.8,1.7-13.5,3.5-20.3,5.1c-4.2,0.9-8.4,1.8-12.6,2.7c-3.4,0.7-7.1,2-10.5,2.2
			c-1.5,0.1-3.2-0.3-4.8-0.4c-3.9-0.4-7.9-0.7-11.8-1.1c-10.7-1-21.3-2-32-3c-6.9-0.6-13.7-1.3-20.6-1.9
			C381.1,267.5,381.1,268.5,381.7,268.5z"/>
	</g>
</g>
<g>
	<polygon class="st7" points="450.3,228.6 494.5,264.5 529.8,182.9 	"/>
	<g>
		<path class="st7" d="M449.9,229c12.9,10.4,25.8,20.9,38.7,31.3c1.9,1.5,3.7,3,5.6,4.5c0.2,0.2,0.6,0.2,0.8-0.1
			c4-9.2,7.9-18.3,11.9-27.5c6.3-14.6,12.7-29.3,19-43.9c1.5-3.4,2.9-6.8,4.4-10.2c0.2-0.4-0.2-1-0.7-0.7
			c-8.9,5.1-17.9,10.3-26.8,15.4c-14.3,8.2-28.5,16.4-42.8,24.6c-3.3,1.9-6.6,3.8-9.9,5.7c-0.6,0.3-0.1,1.2,0.5,0.9
			c8.9-5.1,17.9-10.3,26.8-15.4c14.3-8.2,28.5-16.4,42.8-24.6c3.3-1.9,6.6-3.8,9.9-5.7c-0.2-0.2-0.5-0.5-0.7-0.7
			c-4,9.2-7.9,18.3-11.9,27.5c-6.3,14.6-12.7,29.3-19,43.9c-1.5,3.4-2.9,6.8-4.4,10.2c0.3,0,0.5-0.1,0.8-0.1
			c-12.9-10.4-25.8-20.9-38.7-31.3c-1.9-1.5-3.7-3-5.6-4.5C450.1,227.9,449.4,228.6,449.9,229z"/>
	</g>
</g>
<g>
	<polygon class="st1" points="542.8,153 578.2,71.1 456.4,135.7 	"/>
	<g>
		<path class="st1" d="M543.2,153.2c4-9.2,8-18.4,12-27.6c6.4-14.7,12.7-29.4,19.1-44.1c1.5-3.4,2.9-6.8,4.4-10.2
			c0.2-0.4-0.2-0.9-0.7-0.7c-13.8,7.3-27.6,14.6-41.4,21.9c-21.8,11.6-43.6,23.1-65.4,34.7c-5,2.7-10,5.3-15.1,8
			c-0.4,0.2-0.3,0.8,0.1,0.9c9.7,1.9,19.5,3.9,29.2,5.8c15.5,3.1,30.9,6.2,46.4,9.3c3.6,0.7,7.2,1.4,10.8,2.2c0.6,0.1,0.9-0.8,0.3-1
			c-9.7-1.9-19.5-3.9-29.2-5.8c-15.5-3.1-30.9-6.2-46.4-9.3c-3.6-0.7-7.2-1.4-10.8-2.2c0,0.3,0.1,0.6,0.1,0.9
			c13.8-7.3,27.6-14.6,41.4-21.9c21.8-11.6,43.6-23.1,65.4-34.7c5-2.7,10-5.3,15.1-8c-0.2-0.2-0.5-0.5-0.7-0.7
			c-4,9.2-8,18.4-12,27.6c-6.4,14.7-12.7,29.4-19.1,44.1c-1.5,3.4-2.9,6.8-4.4,10.2C542.1,153.3,543,153.8,543.2,153.2z"/>
	</g>
</g>
<g>
	<polygon class="st7" points="248.5,294.5 283.5,324.5 319.8,303.6 	"/>
	<g>
		<path class="st7" d="M248.1,294.9c10.2,8.7,20.4,17.5,30.6,26.2c1.5,1.3,3,2.5,4.4,3.8c0.2,0.1,0.4,0.2,0.6,0.1
			c12.1-7,24.2-13.9,36.3-20.9c0.5-0.3,0.2-0.9-0.3-0.9c-20.8-2.7-41.6-5.3-62.5-8c-2.9-0.4-5.9-0.8-8.8-1.1c-0.6-0.1-0.6,0.9,0,1
			c20.8,2.7,41.6,5.3,62.5,8c2.9,0.4,5.9,0.8,8.8,1.1c-0.1-0.3-0.2-0.6-0.3-0.9c-11,6.3-22.1,12.7-33.1,19c-0.8,0.5-1.8,0.9-2.5,1.5
			c-0.8,0.6-0.5,0.1-0.1,0.4c-1.4-1.1-2.7-2.3-4-3.4c-5.9-5.1-11.8-10.1-17.7-15.2c-4.4-3.8-8.8-7.5-13.2-11.3
			C248.4,293.7,247.7,294.4,248.1,294.9z"/>
	</g>
</g>
<g>
	<polygon class="st5" points="283.5,324.5 305.5,393.5 338.5,371.5 344.5,342.5 365.5,309.5 319.8,303.6 	"/>
	<g>
		<path class="st5" d="M283,324.6c6.4,20.1,12.8,40.3,19.3,60.4c0.9,2.9,1.8,5.7,2.7,8.6c0.1,0.3,0.5,0.5,0.7,0.3
			c6.1-4.1,12.2-8.2,18.4-12.2c3.8-2.5,7.6-5.1,11.4-7.6c1.2-0.8,3-1.5,3.5-2.8c0.5-1.2,0.6-2.8,0.8-4.1c0.5-2.3,1-4.6,1.4-6.9
			c1-4.8,2-9.5,2.9-14.3c0.4-2,0.5-3.1,1.5-4.6c2.1-3.3,4.2-6.6,6.3-9.9c4.6-7.3,9.3-14.6,13.9-21.9c0.2-0.4-0.1-0.7-0.4-0.8
			c-12.8-1.6-25.7-3.3-38.5-4.9c-2.2-0.3-4.5-0.8-6.7-0.9c-0.9,0-1.4,0.3-2.2,0.8c-6.1,3.5-12.3,7.1-18.4,10.6
			c-5.5,3.1-10.9,6.3-16.4,9.4c-0.6,0.3-0.1,1.2,0.5,0.9c11-6.3,22.1-12.7,33.1-19c0.8-0.5,1.7-0.9,2.5-1.5c0.4-0.2,0.8-0.3,0.5-0.3
			c1.6-0.2,3.6,0.5,5.2,0.7c7.7,1,15.4,2,23.2,3c5.7,0.7,11.5,1.5,17.2,2.2c-0.1-0.3-0.3-0.5-0.4-0.8c-3.9,6.2-7.9,12.4-11.8,18.6
			c-2.4,3.8-4.8,7.5-7.2,11.3c-0.8,1.3-1.8,2.5-2.2,3.9c-2.2,8.4-3.5,17.1-5.3,25.6c-0.2,0.8-0.2,2-0.6,2.7c0.2-0.4,0.2-0.3-0.1-0.1
			c-0.4,0.3-0.8,0.5-1.2,0.8c-3.3,2.2-6.7,4.5-10,6.7c-7.1,4.8-14.3,9.5-21.4,14.3c0.2,0.1,0.5,0.2,0.7,0.3
			c-6.4-20.1-12.8-40.3-19.3-60.4c-0.9-2.9-1.8-5.7-2.7-8.6C283.8,323.8,282.8,324,283,324.6z"/>
	</g>
</g>
<g>
	<polygon class="st1" points="740.5,20.5 677.5,18.5 579.2,70.6 675.5,83.5 713.5,78.5 737.5,72.5 755.3,69.5 759.5,55.5 	"/>
	<g>
		<path class="st1" d="M740.5,20c-11.7-0.4-23.5-0.7-35.2-1.1c-7.3-0.2-14.6-0.5-21.8-0.7c-2-0.1-4.7-0.7-6.6,0.1
			c-3.1,1.3-6.1,3.2-9.1,4.8c-5.9,3.1-11.8,6.3-17.8,9.4c-14.6,7.7-29.2,15.5-43.8,23.2c-5.9,3.1-11.8,6.3-17.7,9.4
			c-2.9,1.5-6.3,2.8-9,4.8c-0.1,0.1-0.3,0.2-0.4,0.2c-0.5,0.3-0.2,0.9,0.3,0.9c9.5,1.3,18.9,2.5,28.4,3.8
			c16.5,2.2,32.9,4.4,49.4,6.6c5.3,0.7,10.5,1.4,15.8,2.1c2.5,0.3,4.2,0.2,6.7-0.2c7.9-1,15.8-2.1,23.7-3.1c4-0.5,8.2-0.8,12.1-1.8
			c7-1.8,14-3.5,21.1-5.3c5.4-1.4,11.1-2,16.6-2.9c0.8-0.1,1.7-0.3,2.5-0.4c0.2,0,0.3-0.2,0.3-0.3c1.2-3.9,2.3-7.8,3.5-11.7
			c0.3-0.8,0.8-1.9,0.6-2.8c-0.1-0.7-0.8-1.5-1.1-2.1c-4.5-8.3-9-16.6-13.5-24.9c-1.4-2.6-2.9-5.3-4.3-7.9c-0.3-0.6-1.2-0.1-0.9,0.5
			c3.8,7,7.6,14,11.4,21c2.2,4,4.3,7.9,6.5,11.9c0.3,0.5,0.5,1,0.8,1.5c0.1,0.2,0.3,0.8,0.3,0.4c0-0.3-0.4,0.9-0.4,1.2
			c-0.4,1.2-0.7,2.3-1.1,3.5c-0.7,2.5-1.5,5-2.2,7.5c-0.1,0.5-0.2,1.2-0.5,1.6c0.4-0.6-0.1-0.2-0.8-0.1c-4.8,0.8-9.5,1.6-14.3,2.4
			c-7.5,1.3-14.9,3.5-22.3,5.4c-6.1,1.5-12.6,2.1-19.2,3c-5.3,0.7-10.6,1.4-15.9,2.1c-2.2,0.3-4.6,0.9-6.8,0.9
			c-1.4,0-2.9-0.4-4.2-0.6c-3.4-0.4-6.7-0.9-10.1-1.3c-10.1-1.4-20.2-2.7-30.4-4.1c-10.6-1.4-21.3-2.8-31.9-4.3
			c-4-0.5-8-1.1-11.9-1.6c-2.2-0.3-4.6-0.9-6.8-0.9c-0.3,0-0.6-0.1-0.9-0.1c0.1,0.3,0.2,0.6,0.3,0.9c7.3-3.9,14.6-7.7,21.9-11.6
			c14.4-7.7,28.9-15.3,43.3-23c10.4-5.5,20.7-11,31.1-16.5c0.6-0.3,1.3-0.8,1.9-1c-0.5,0.1,0.2,0.1,0.4,0.1c0.7,0,1.4,0,2.1,0.1
			c6.3,0.2,12.6,0.4,18.9,0.6c13.5,0.4,27,1.2,40.5,1.3c0.3,0,0.6,0,0.8,0C741.1,21,741.1,20,740.5,20z"/>
	</g>
</g>
<g>
	<polygon class="st1" points="381.7,268 233,254.1 194.5,274.5 248.5,294.5 319.8,303.6 	"/>
	<g>
		<path class="st1" d="M381.7,267.5c-7.9-0.7-15.8-1.5-23.7-2.2c-17.3-1.6-34.6-3.2-51.9-4.9c-17.1-1.6-34.3-3.2-51.4-4.8
			c-5.4-0.5-10.8-1-16.3-1.5c-1.7-0.2-4.1-0.9-5.8-0.4c-1.9,0.5-3.8,2-5.5,2.9c-3.7,2-7.5,4-11.2,5.9c-6.8,3.6-13.6,7.2-20.4,10.8
			c-0.4,0.2-0.8,0.4-1.2,0.6c-0.4,0.2-0.3,0.8,0.1,0.9c13.8,5.1,27.5,10.2,41.3,15.3c4.2,1.5,8.6,3.8,12.9,4.7
			c4.7,1,9.8,1.3,14.6,1.9c17.3,2.2,34.5,4.4,51.8,6.6c1.4,0.2,3.3,0.8,4.8,0.6c0.8-0.1,1.6-0.7,2.3-1.1c6.1-3.5,12.2-7,18.3-10.5
			c13.6-7.8,27.3-15.6,40.9-23.5c0.3-0.2,0.6-0.3,0.9-0.5c0.6-0.3,0.1-1.2-0.5-0.9c-11.8,6.8-23.5,13.5-35.3,20.3
			c-7.1,4.1-14.2,8.2-21.3,12.2c-1.6,0.9-3.3,2.1-5,2.9c-0.6,0.3,0.1,0.1-0.3,0.1c-0.5,0-1.2-0.1-1.7-0.2
			c-16.1-2.1-32.3-4.1-48.4-6.2c-6.5-0.8-12.9-1.7-19.4-2.5c-2.9-0.4-6-1.9-9.1-3c-15.1-5.6-30.2-11.2-45.3-16.8
			c-0.4-0.1-0.7-0.3-1.1-0.4c0,0.3,0.1,0.6,0.1,0.9c12.2-6.5,24.3-12.9,36.5-19.4c0.6-0.3,1.2-0.8,1.9-1c0.2,0-0.4,0.1,0.1,0
			c1,0,2,0.2,3,0.3c4.7,0.4,9.5,0.9,14.2,1.3c16.4,1.5,32.8,3.1,49.2,4.6c17.7,1.7,35.4,3.3,53.1,5c6.4,0.6,12.7,1.2,19.1,1.8
			c2,0.2,4.1,0.4,6.1,0.6c1,0.1,2.3,0.4,3.3,0.3c0.1,0,0.3,0,0.4,0C382.3,268.6,382.3,267.6,381.7,267.5z"/>
	</g>
</g>
<g>
	<polygon class="st0" points="539,161.7 530,182.5 615.5,167.5 571.9,158.8 	"/>
	<g>
		<path class="st0" d="M538.6,161.5c-3,6.9-6,13.9-9,20.8c-0.2,0.4,0.1,0.8,0.6,0.7c9.7-1.7,19.3-3.4,29-5.1
			c15.3-2.7,30.6-5.4,45.9-8.1c3.5-0.6,7.1-1.2,10.6-1.9c0.5-0.1,0.5-0.9,0-1c-11.1-2.2-22.2-4.4-33.2-6.6
			c-3.4-0.7-7.1-1.9-10.6-2.1c-1.7-0.1-3.5,0.3-5.2,0.5c-3.4,0.3-6.8,0.6-10.2,0.9c-5.8,0.5-11.6,1-17.4,1.6c-0.6,0.1-0.6,1.1,0,1
			c10.7-1,21.5-2.4,32.3-2.9c2.4-0.1,6.2,1.1,9,1.6c7,1.4,14,2.8,20.9,4.2c4.7,0.9,9.4,1.9,14.2,2.8c0-0.3,0-0.6,0-1
			c-9.7,1.7-19.3,3.4-29,5.1c-15.3,2.7-30.6,5.4-45.9,8.1c-3.5,0.6-7.1,1.2-10.6,1.9c0.2,0.2,0.4,0.5,0.6,0.7c3-6.9,6-13.9,9-20.8
			C539.7,161.4,538.8,160.9,538.6,161.5z"/>
	</g>
</g>
<g>
	<polygon class="st4" points="615.5,167.5 705.5,198.5 729.5,183.5 732.5,176.5 712.5,161.5 692.5,153.5 675.5,149.5 571.9,158.8
		"/>
	<g>
		<path class="st4" d="M615.4,168c17,5.9,34.1,11.7,51.1,17.6c10.3,3.6,20.7,7.1,31,10.7c2.4,0.8,4.8,1.9,7.3,2.5
			c1.8,0.4,3.7-1.5,5.1-2.4c5.6-3.5,11.2-7,16.8-10.5c1-0.6,2.5-1.2,3.3-2.1c0.7-0.9,1.1-2.6,1.6-3.7c0.5-1.1,0.9-2.2,1.4-3.3
			c0.1-0.3,0.1-0.5-0.2-0.7c-4.9-3.7-9.9-7.4-14.8-11.1c-1.7-1.3-3.4-2.9-5.2-3.9c-1.9-1.1-4.2-1.7-6.3-2.5
			c-4.8-1.9-9.8-4.6-14.9-5.8c-3.5-0.8-7-1.7-10.5-2.5c-1.8-0.4-3.8-1.2-5.6-1.3c-2.5-0.1-5.3,0.5-7.9,0.7
			c-6.1,0.5-12.2,1.1-18.4,1.6c-15.8,1.4-31.7,2.8-47.5,4.3c-10,0.9-19.9,1.8-29.9,2.7c-0.5,0-0.7,0.9-0.1,1
			c12.7,2.5,25.5,5.1,38.2,7.6C611.8,167.3,613.6,167.6,615.4,168c0.6,0.1,0.9-0.8,0.3-1c-12.7-2.5-25.5-5.1-38.2-7.6
			c-1.8-0.4-3.6-0.7-5.4-1.1c0,0.3-0.1,0.7-0.1,1c23.8-2.1,47.7-4.3,71.5-6.4c10.4-0.9,20.8-1.7,31.2-2.8c1-0.1,1-0.1,1.9,0.1
			c3.4,0.8,6.7,1.6,10.1,2.4c2,0.5,4.1,0.8,6.1,1.5c2.6,0.9,5.2,2.1,7.7,3.1c3.7,1.5,7.3,2.9,11,4.4c1.4,0.6,2.7,1.7,4.1,2.8
			c5.6,4.2,11.2,8.4,16.8,12.6c-0.1-0.2-0.1-0.5-0.2-0.7c-0.9,2.1-1.8,4.3-2.8,6.4c-0.4,0.8,0.1,0.2-0.5,0.6c-0.6,0.5-1.3,0.8-2,1.2
			c-4.9,3.1-9.9,6.2-14.8,9.2c-1.9,1.2-3.8,2.4-5.8,3.6c-0.3,0.2-0.7,0.6-1.1,0.7c0.1,0,0.5,0,0.1-0.1c-2.1-0.5-4.2-1.4-6.2-2.1
			c-21.3-7.3-42.7-14.7-64-22c-6.5-2.2-13-4.5-19.5-6.7C615,166.8,614.8,167.8,615.4,168z"/>
	</g>
</g>
<g>
	<polygon class="st4" points="319.8,303.6 365.5,309.5 450.5,274.5 381.7,268 	"/>
	<g>
		<path class="st4" d="M319.8,304.1c9.5,1.2,19,2.4,28.5,3.7c5.1,0.7,10.2,1.3,15.4,2c1.7,0.2,2.1,0.2,3.6-0.4
			c20.6-8.5,41.2-17,61.8-25.4c7.2-3,14.4-5.9,21.6-8.9c0.5-0.2,0.5-0.9-0.1-1c-20.5-1.9-41-3.8-61.5-5.8c-1.8-0.2-3.5-0.3-5.3-0.5
			c-0.6-0.1-1.4-0.3-2-0.2c-1.8,0.3-4,2.2-5.6,3.2c-10.6,6.1-21.2,12.2-31.8,18.3c-8.2,4.7-16.5,9.5-24.7,14.2
			c-0.6,0.3-0.1,1.2,0.5,0.9c17.8-10.2,35.6-20.5,53.4-30.7c2.6-1.5,5.3-3.5,8.2-4.7c0.5-0.2-0.1-0.2,0.8,0c1.3,0.2,2.6,0.2,3.9,0.4
			c11.7,1.1,23.5,2.2,35.2,3.3c9.7,0.9,19.3,1.8,29,2.7c0-0.3-0.1-0.7-0.1-1c-17.8,7.3-35.7,14.7-53.5,22
			c-9.4,3.9-18.7,7.7-28.1,11.6c-1.2,0.5-2.9,1.4-3.8,1.3c-4,0-8.2-1.1-12.2-1.6c-11-1.4-22.1-2.8-33.1-4.2
			C319.1,303.1,319.2,304.1,319.8,304.1z"/>
	</g>
</g>
<g>
	<polygon class="st7" points="516.5,83.5 478.5,97.5 413.5,83.5 456.5,135.5 	"/>
	<g>
		<path class="st7" d="M516.4,83c-6.6,2.4-13.3,4.9-19.9,7.3c-4.3,1.6-8.7,3.2-13,4.8c-1.3,0.5-2.6,1-4,1.5
			c-0.3,0.1-1.3,0.4-0.9,0.4c-1.7,0-3.7-0.8-5.3-1.2c-3.9-0.8-7.7-1.7-11.6-2.5c-9.8-2.1-19.6-4.2-29.5-6.3
			c-6.2-1.3-12.4-2.7-18.5-4c-0.5-0.1-0.8,0.5-0.5,0.8c12.5,15.2,25.1,30.3,37.6,45.5c1.8,2.2,3.6,4.4,5.4,6.5
			c0.2,0.2,0.5,0.2,0.7,0c17.5-15.2,35-30.3,52.5-45.5c2.5-2.2,5-4.4,7.5-6.5c0.5-0.4-0.2-1.1-0.7-0.7c-16.2,14-32.3,28-48.5,42
			c-3.3,2.8-6.5,5.7-9.8,8.5c-0.5,0.4-1.4,0.9-1.7,1.5c0.1-0.2,0.7,0.2,0.6,0c0-0.1-0.2-0.1-0.2-0.2c-0.1-0.3-0.7-0.9-0.9-1.1
			c-7.3-8.8-14.5-17.5-21.8-26.3c-6.7-8.1-13.4-16.2-20.1-24.3c-0.2,0.3-0.3,0.6-0.5,0.8c15,3.2,30.1,6.5,45.1,9.7
			c4.2,0.9,8.3,1.8,12.5,2.7c2.3,0.5,4.6,1.2,6.9,1.5c1.2,0.1,2.1-0.4,3.3-0.8c4-1.5,7.9-2.9,11.9-4.4c7.9-2.9,15.8-5.8,23.6-8.7
			C517.2,83.8,517,82.8,516.4,83z"/>
	</g>
</g>
<g>
	<polygon class="st5" points="564.5,29.5 516.5,83.5 454,137 578.2,71.1 578.5,70.5 	"/>
	<g>
		<path class="st5" d="M564.1,29.1c-14.8,16.7-29.7,33.4-44.5,50c-3.6,4-7.4,7.3-11.4,10.7c-10.5,9-20.9,17.9-31.4,26.9
			c-7.7,6.6-15.4,13.2-23.2,19.8c-0.4,0.4,0.1,1,0.6,0.8c6.9-3.7,13.8-7.3,20.8-11c14.9-7.9,29.8-15.8,44.7-23.7
			c14.4-7.6,28.7-15.2,43.1-22.8c4.2-2.2,8.5-4.5,12.7-6.7c1.4-0.7,3.7-1.3,3.4-3.1c-0.3-2.2-1.6-4.7-2.3-6.8c-1.4-4-2.7-8-4.1-12
			c-2.4-6.9-4.7-13.8-7.1-20.7c-0.1-0.4-0.3-0.8-0.4-1.2c-0.2-0.6-1.2-0.3-1,0.3c4.3,12.6,8.6,25.2,12.9,37.9
			c0.3,0.9,0.7,1.7,0.9,2.6c0.1,0.6,0.3,0.4,0.1,0.6c-0.4,0.4-1.3,0.7-1.9,1c-3.7,2-7.5,4-11.2,5.9c-13.7,7.3-27.4,14.5-41.1,21.8
			c-15,8-30.1,15.9-45.1,23.9c-5.5,2.9-11,5.8-16.4,8.7c-1.8,0.9-3.5,1.9-5.3,2.8c-0.7,0.4-2.3,0.9-2.8,1.5
			c-0.1,0.1-0.3,0.1-0.4,0.2c0.2,0.3,0.4,0.5,0.6,0.8c17.2-14.7,34.3-29.4,51.5-44.1c4.3-3.7,9-7.1,12.8-11.4
			c8.1-9.1,16.3-18.3,24.4-27.4c7.3-8.2,14.6-16.4,21.8-24.6C565.3,29.4,564.6,28.7,564.1,29.1z"/>
	</g>
</g>
<g>
	<polygon class="st5" points="7.5,274.5 36.5,328.5 112.5,357.5 44.5,319.5 29.5,282.5 69.5,267.5 77,262.3 	"/>
	<g>
		<path class="st5" d="M7.1,274.8c9.5,17.7,19,35.3,28.5,53c0.7,1.4,1.4,1.5,2.9,2c3.8,1.5,7.7,2.9,11.5,4.4
			c12.3,4.7,24.7,9.4,37,14.1c8.5,3.2,16.9,6.5,25.4,9.7c0.5,0.2,0.9-0.6,0.4-0.9C98.4,349,84,341,69.7,333
			c-7.4-4.2-14.9-8.3-22.3-12.5c-0.7-0.4-1.5-0.8-2.2-1.2c-0.6-0.4,0,0.4-0.3-0.4c-1.4-3.4-2.7-6.8-4.1-10.2
			c-3.6-8.8-7.1-17.6-10.7-26.4c-0.1,0.2-0.2,0.4-0.3,0.6c6.2-2.3,12.4-4.7,18.6-7c4.5-1.7,9.1-3.4,13.6-5.1
			c2.5-0.9,5.1-1.7,7.5-2.8c2.8-1.3,5.4-3.6,7.9-5.4c0.5-0.3,0.2-1-0.4-0.9c-20.3,3.6-40.5,7.1-60.8,10.7c-2.9,0.5-5.8,1-8.7,1.5
			c-0.6,0.1-0.4,1.1,0.3,1c20.3-3.6,40.5-7.1,60.8-10.7c2.9-0.5,5.8-1,8.7-1.5c-0.1-0.3-0.3-0.6-0.4-0.9c-2.4,1.7-5.2,4-7.5,5.2
			c-2.1,1.1-4.6,1.7-6.8,2.5c-8.7,3.3-17.4,6.5-26.1,9.8c-2.4,0.9-4.7,1.8-7.1,2.6c-0.2,0.1-0.5,0.3-0.3,0.6
			c3.1,7.7,6.2,15.4,9.4,23.1c1.7,4.1,3.3,8.1,5,12.2c0.5,1.3,0.7,1.9,1.9,2.5c16.4,9.2,32.8,18.3,49.2,27.5
			c5.9,3.3,11.9,6.6,17.8,10c0.1-0.3,0.3-0.6,0.4-0.9c-19.3-7.4-38.5-14.7-57.8-22.1c-4.6-1.8-9.2-3.5-13.8-5.3
			c-1.2-0.5-2.4-1-3.6-1.4c-0.2-0.1-0.5-0.1-0.7-0.3c-0.2-0.2,0.4,0.5,0.1,0c-1.8-2.8-3.2-6-4.8-8.9c-3-5.7-6.1-11.3-9.1-17
			c-5-9.3-10-18.6-15-27.9C7.6,273.7,6.8,274.2,7.1,274.8z"/>
	</g>
</g>
<g>
	<polygon class="st0" points="578.9,70.8 578.5,70.5 578.2,71.1 542.8,153 571.9,158.8 675.5,149.5 	"/>
	<g>
		<path class="st0" d="M579.2,70.4c-0.1-0.1-0.2-0.2-0.4-0.3c-0.2-0.2-0.6-0.2-0.8,0.1c-4,9.1-7.9,18.2-11.9,27.4
			c-6.5,14.9-12.9,29.9-19.4,44.8c-1.5,3.4-3,6.9-4.5,10.3c-0.1,0.3-0.1,0.7,0.3,0.7c9.4,1.9,18.7,3.7,28.1,5.6
			c1.2,0.2,2.2,0.1,3.5,0c3.3-0.3,6.7-0.6,10-0.9c23.7-2.1,47.4-4.2,71.1-6.4c6.7-0.6,13.4-1.2,20.2-1.8c0.4,0,0.7-0.6,0.4-0.9
			c-10.9-8.9-21.8-17.7-32.7-26.6c-17.4-14.1-34.7-28.3-52.1-42.4C587.1,76.9,583.2,73.7,579.2,70.4c-0.5-0.4-1.2,0.3-0.7,0.7
			c10.9,8.9,21.8,17.7,32.7,26.6c17.4,14.1,34.7,28.3,52.1,42.4c4,3.2,7.9,6.5,11.9,9.7c0.1-0.3,0.2-0.6,0.4-0.9
			c-17.4,1.6-34.7,3.1-52.1,4.7c-11.8,1.1-23.6,2.1-35.5,3.2c-3.9,0.3-7.8,0.7-11.7,1c-1.2,0.1-3.5,0.5-4.3,0.4
			c-1.6-0.1-3.3-0.7-4.8-1c-3.3-0.7-6.6-1.3-10-2c-4.8-1-9.5-1.9-14.3-2.9c0.1,0.2,0.2,0.5,0.3,0.7c4.1-9.4,8.1-18.7,12.2-28.1
			c6.4-14.8,12.8-29.6,19.2-44.4c1.4-3.3,2.9-6.7,4.3-10c-0.3,0-0.5,0.1-0.8,0.1c0.1,0.1,0.2,0.2,0.4,0.3
			C579,71.5,579.7,70.8,579.2,70.4z"/>
	</g>
</g>
<g>
	<polygon class="st6" points="675.5,83.5 579.2,70.6 578.5,70.5 578.9,70.8 675.5,149.5 662.5,114.5 	"/>
	<g>
		<path class="st6" d="M675.5,83c-11-1.5-22-3-33-4.4c-17.4-2.3-34.7-4.7-52.1-7c-4-0.5-7.9-1.1-11.9-1.6c-0.4-0.1-0.7,0.6-0.4,0.9
			c10.9,8.9,21.8,17.7,32.7,26.6c17.4,14.2,34.9,28.4,52.3,42.6c4,3.3,8,6.5,12,9.8c0.3,0.3,1,0,0.8-0.5
			c-3.6-9.6-7.2-19.3-10.7-28.9c-0.7-1.8-1.3-3.6-2-5.5c-0.1-0.3-0.2-0.8-0.2-0.4c0-0.4,0.4-1,0.6-1.4c2.2-5.2,4.4-10.5,6.6-15.7
			c1.9-4.6,3.9-9.3,5.8-13.9c0.2-0.6-0.7-0.9-1-0.3c-4,9.6-8,19.1-12,28.7c-0.3,0.8-1,1.8-1,2.6c0,1.1,1,2.7,1.4,3.7
			c2.2,6,4.4,11.9,6.6,17.9c1.7,4.5,3.3,8.9,5,13.4c0.3-0.2,0.6-0.3,0.8-0.5c-11-9-22-17.9-33.1-26.9
			c-17.4-14.1-34.7-28.3-52.1-42.4c-4-3.2-7.9-6.4-11.9-9.7c-0.1,0.3-0.2,0.6-0.4,0.9c10.8,1.4,21.6,2.9,32.3,4.3
			c17.5,2.3,35,4.7,52.5,7c4.1,0.5,8.1,1.1,12.2,1.6C676.1,84.1,676.1,83.1,675.5,83z"/>
	</g>
</g>
<g>
	<polygon class="st3" points="579.2,70.6 677.5,18.5 636.5,6.5 615.5,17.5 564.5,29.5 578.5,70.5 	"/>
	<g>
		<path class="st3" d="M579.5,71c11.1-5.9,22.2-11.8,33.3-17.6c17.6-9.3,35.2-18.7,52.8-28c4.1-2.2,8.1-4.3,12.2-6.5
			c0.4-0.2,0.3-0.8-0.1-0.9c-7.8-2.3-15.6-4.6-23.4-6.8c-4.7-1.4-9.5-2.8-14.2-4.2c-1.8-0.5-3.1-1.3-4.7-0.5
			c-4.3,2.3-8.7,4.6-13,6.8c-2.2,1.2-5.2,3.1-7.3,3.7c-3,0.9-6.1,1.4-9.1,2.1c-5.3,1.3-10.7,2.5-16,3.8c-8.5,2-17,4-25.5,6
			c-0.3,0.1-0.4,0.4-0.3,0.6c4.1,11.9,8.1,23.9,12.2,35.8c0.6,1.7,1.2,3.5,1.8,5.2c0.1,0.2,0.2,0.3,0.5,0.4c0.2,0,0.5,0.1,0.7,0.1
			c0.6,0.1,0.6-0.9,0-1c-0.7-0.1-0.2,0.2-0.3,0.2c-0.1-0.2-0.2-0.5-0.2-0.7c-0.3-0.9-0.6-1.8-0.9-2.7c-1.1-3.3-2.2-6.5-3.3-9.8
			c-2.5-7.4-5.1-14.9-7.6-22.3c-0.6-1.8-1.2-3.6-1.8-5.4c-0.1,0.2-0.2,0.4-0.3,0.6c16.4-3.9,32.8-7.7,49.2-11.6c1.8-0.4,3-1,4.6-1.9
			c4.7-2.5,9.4-4.9,14-7.4c1.3-0.7,2.8-1.8,4.2-2.2c0.4-0.1-0.6-0.1,0,0c0.4,0.1,0.9,0.3,1.3,0.4c4.1,1.2,8.1,2.4,12.2,3.6
			c9.1,2.7,18.2,5.3,27.3,8c0-0.3-0.1-0.6-0.1-0.9c-11.1,5.9-22.2,11.8-33.3,17.6c-17.6,9.3-35.2,18.7-52.8,28
			c-4.1,2.2-8.1,4.3-12.2,6.5C578.4,70.5,578.9,71.3,579.5,71z"/>
	</g>
</g>
<g>
	<polygon class="st7" points="105.9,242.2 13.5,233.5 7.5,274.5 77,262.3 	"/>
	<g>
		<path class="st7" d="M105.9,241.7c-10.4-1-20.9-2-31.3-2.9c-16.5-1.6-33.1-3.1-49.6-4.7c-3.8-0.4-7.7-0.7-11.5-1.1
			c-0.2,0-0.5,0.2-0.5,0.4c-2,13.7-4,27.3-6,41c-0.1,0.4,0.2,0.7,0.6,0.6c14.6-2.6,29.2-5.1,43.8-7.7c7.7-1.3,15.3-2.7,23-4
			c1-0.2,2.2-0.2,3.1-0.7c2.6-1.3,5.1-3.6,7.6-5.2c7.1-4.9,14.1-9.8,21.2-14.7c0.5-0.4,0-1.2-0.5-0.9c-6,4.2-12.1,8.4-18.1,12.6
			c-3.2,2.2-6.4,4.5-9.6,6.7c-1.2,0.8-1.2,0.8-2.7,1.1c-16.7,2.9-33.5,5.9-50.2,8.8c-5.9,1-11.8,2.1-17.7,3.1
			c0.2,0.2,0.4,0.4,0.6,0.6c1.4-9.5,2.8-19,4.2-28.4c0.4-2.6,0.8-5.2,1.1-7.8c0.2-1.1,0.9-3.3,0.6-4.4c-0.2-0.7,0.2,0.1-0.4,0
			c0.2,0,0.4,0,0.6,0.1c0.9,0.3,2.1,0.2,3,0.3c22.3,2.1,44.5,4.2,66.8,6.3c7.3,0.7,14.7,1.4,22,2.1
			C106.6,242.7,106.6,241.7,105.9,241.7z"/>
	</g>
</g>
<g>
	<polygon class="st6" points="174.8,194.3 38.5,206.5 13.5,233.5 105.9,242.2 	"/>
	<g>
		<path class="st6" d="M174.8,193.8c-7.1,0.6-14.1,1.3-21.2,1.9c-15.6,1.4-31.1,2.8-46.7,4.2c-15.6,1.4-31.2,2.8-46.8,4.2
			c-5.2,0.5-10.3,0.9-15.5,1.4c-1.8,0.2-4.4-0.1-6.1,0.5c-1.1,0.4-2,2-2.8,2.8c-2.4,2.6-4.8,5.2-7.2,7.8
			c-4.8,5.2-9.6,10.4-14.4,15.6c-0.3,0.3-0.6,0.7-0.9,1c-0.3,0.3-0.1,0.8,0.4,0.9c9.7,0.9,19.3,1.8,29,2.7c16.2,1.5,32.4,3,48.6,4.6
			c4.6,0.4,9.1,0.9,13.7,1.3c1.9,0.2,2.8-0.8,4.4-1.9c11.7-8.2,23.5-16.3,35.2-24.5c6.5-4.5,12.9-9,19.4-13.5
			c3.6-2.5,7.4-4.8,10.9-7.5c0.2-0.1,0.4-0.2,0.5-0.4c0.5-0.4,0-1.2-0.5-0.9c-8.4,5.9-16.9,11.7-25.3,17.6
			c-12.6,8.7-25.2,17.5-37.8,26.2c-1.5,1.1-3.1,2.1-4.6,3.2c-0.3,0.2-0.7,0.6-1,0.7c-0.4,0.2,0.4,0-0.1,0c-1.1,0.1-2.4-0.2-3.5-0.3
			c-2.4-0.2-4.8-0.4-7.1-0.7c-15.6-1.5-31.2-2.9-46.7-4.4c-7.5-0.7-14.9-1.4-22.4-2.1c-2.5-0.2-5.1-0.5-7.6-0.7
			c-1.2-0.1-3.1-0.7-4.3-0.4c-0.2,0-0.4,0-0.6-0.1c0.1,0.3,0.2,0.6,0.4,0.9c3.7-4,7.3-7.9,11-11.9c2.7-2.9,5.4-5.9,8.1-8.8
			c1.8-1.9,3.8-3.7,5.4-5.8c0.3-0.4,0.8-0.6,0.2-0.4c0.2-0.1,0.5-0.1,0.6-0.1c1.1,0,2.3-0.2,3.4-0.3c4.6-0.4,9.3-0.8,13.9-1.2
			c15-1.3,30-2.7,45-4c15.8-1.4,31.7-2.8,47.5-4.3c5.7-0.5,11.4-1,17.1-1.5c2.7-0.2,5.8-0.1,8.4-0.8c0.1,0,0.3,0,0.4,0
			C175.4,194.7,175.5,193.7,174.8,193.8z"/>
	</g>
</g>
<g>
	<polygon class="st5" points="292,112.5 260.1,122.5 198.2,146.5 123.3,173.5 38.5,206.5 174.5,194.3 	"/>
	<g>
		<path class="st5" d="M291.9,112c-9.5,3-18.9,5.9-28.4,8.9c-5.5,1.7-10.8,3.9-16.2,6c-16.8,6.5-33.4,13.4-50.4,19.5
			c-20.3,7.3-40.6,14.6-60.9,22c-12.4,4.5-24.6,9.2-36.8,14c-19.9,7.7-39.8,15.5-59.7,23.2c-0.4,0.2-0.8,0.3-1.2,0.5
			c-0.5,0.2-0.5,1,0.1,1c16.1-1.4,32.2-2.9,48.4-4.3c24.6-2.2,49.2-4.4,73.8-6.6c3.4-0.3,6.8-0.6,10.2-0.9c1.1-0.1,2.7,0,3.8-0.3
			c1-0.4,2.1-1.4,3-2c2.7-1.9,5.4-3.7,8.1-5.6c20.1-14,40.1-28,60.2-41.9c15.2-10.6,30.4-21.1,45.6-31.7c0.2-0.2,0.5-0.3,0.7-0.5
			c0.5-0.4,0-1.2-0.5-0.9c-12.7,8.9-25.5,17.7-38.2,26.6c-20.8,14.5-41.7,29-62.5,43.6c-5.3,3.7-10.8,7.2-15.9,11.1
			c-0.9,0.7-0.4,0.5-1.6,0.6c-2.5,0.2-5,0.4-7.4,0.7c-23.3,2.1-46.6,4.2-69.9,6.3c-12.2,1.1-24.4,2.2-36.5,3.3
			c-4.3,0.4-8.6,0.8-12.9,1.2c-2.3,0.2-4.9,0.2-7.2,0.6c-0.3,0.1-0.6,0.1-0.9,0.1c0,0.3,0.1,0.7,0.1,1c17.5-6.8,35-13.6,52.5-20.4
			c13-5,25.9-10.2,39-15c21.2-7.6,42.4-15.3,63.6-22.9c15.5-5.6,30.7-11.8,46-17.7c6.8-2.6,13.6-5.5,20.5-7.9c9.5-3.3,19.2-6,28.8-9
			c1-0.3,2.1-0.6,3.1-1C292.7,112.8,292.5,111.8,291.9,112z"/>
	</g>
</g>
<g>
	<polygon class="st3" points="456.4,135.7 340.5,112.5 292.5,112.5 383.4,174.4 	"/>
	<g>
		<path class="st3" d="M456.5,135.2c-22.2-4.4-44.3-8.9-66.5-13.3c-13.3-2.7-26.7-5.3-40-8c-3-0.6-5.9-1.3-8.9-1.8
			c-2.4-0.4-4.9-0.1-7.4-0.1c-13.7,0-27.5,0-41.2,0c-0.5,0-0.6,0.7-0.3,0.9c10.3,7,20.5,14,30.8,21c16.3,11.1,32.6,22.2,48.8,33.3
			c3.7,2.6,7.5,5.1,11.2,7.7c0.1,0.1,0.4,0.1,0.5,0c21.3-11.3,42.6-22.6,63.9-33.9c3-1.6,6.1-3.2,9.1-4.8c0.6-0.3,0.1-1.2-0.5-0.9
			c-10.5,5.6-21,11.1-31.5,16.7c-13.2,7-26.5,14-39.7,21.1c-0.5,0.3-1,0.5-1.6,0.8c-0.5,0.3,0.3,0.1,0.1,0.1
			c-0.9-0.5-1.8-1.2-2.6-1.8c-4.7-3.2-9.4-6.4-14.1-9.6c-14.7-10-29.4-20-44.1-30c-6.4-4.4-12.9-8.8-19.3-13.2
			c-2.2-1.5-4.4-3-6.6-4.5c-1-0.7-2.4-2-3.6-2.4c-0.2-0.1-0.3-0.2-0.5-0.3c-0.1,0.3-0.2,0.6-0.3,0.9c12.1,0,24.3,0,36.4,0
			c3.6,0,8.3-0.3,11.5,0c2.2,0.2,4.5,0.9,6.7,1.3c27.7,5.5,55.4,11.1,83.1,16.6c8.7,1.7,17.4,3.5,26.1,5.2
			C456.9,136.3,457.2,135.3,456.5,135.2z"/>
	</g>
</g>
<g>
	<polygon class="st0" points="380.5,175.9 383.4,174.4 292.5,112.5 174.8,194.3 	"/>
	<g>
		<path class="st5" d="M380.6,176c0.9-0.5,1.9-1,2.8-1.5c0.1,0,0.1-0.2,0-0.2c-10.3-7-20.5-14-30.8-21
			c-16.3-11.1-32.6-22.2-48.8-33.3c-3.7-2.6-7.5-5.1-11.2-7.7c0,0-0.1,0-0.1,0c-13.3,9.2-26.6,18.5-39.9,27.7
			c-21.1,14.7-42.3,29.4-63.4,44.1c-4.8,3.3-9.6,6.7-14.4,10c-0.1,0.1-0.1,0.2,0.1,0.2c6.8-0.6,13.6-1.2,20.4-1.8
			c16.4-1.5,32.7-2.9,49.1-4.4c19.8-1.8,39.6-3.5,59.4-5.3c17.1-1.5,34.3-3.1,51.4-4.6c5.6-0.5,11.3-1,16.9-1.5
			c2.5-0.2,5.7,0,8.1-0.7C380.3,176,380.4,176,380.6,176c0.1,0,0.1-0.2-0.1-0.2c-8.4,0.8-16.8,1.5-25.2,2.3
			c-19.5,1.7-38.9,3.5-58.4,5.2c-21.9,2-43.7,3.9-65.6,5.9c-15.9,1.4-31.8,2.8-47.7,4.3c-2.9,0.3-5.9,0.8-8.8,0.8
			c-0.3,0-0.1,0.3,0,0.2c0.2-0.3,0.7-0.5,1-0.7c1.6-1.1,3.2-2.2,4.8-3.3c14.7-10.2,29.5-20.5,44.2-30.7
			c17.1-11.9,34.1-23.7,51.2-35.6c4.8-3.3,9.6-6.7,14.4-10c0.3-0.2,1.9-1.4,1.9-1.4c0.7,0,2.3,1.5,2.8,1.9
			c14.9,10.2,29.9,20.4,44.8,30.6c13.9,9.5,27.9,19,41.8,28.5c0.3,0.2,1.1,0.5,1.2,0.8c0.2,0.4,0.1-0.4,0,0
			c-0.2,0.4-2.2,1.1-2.6,1.4C380.3,175.9,380.5,176.1,380.6,176z"/>
	</g>
</g>
<g>
	<polygon class="st4" points="450.3,228.6 529.8,182.9 530,182.5 417.8,202.3 	"/>
	<g>
		<path class="st4" d="M450.5,229.1c9.1-5.3,18.3-10.5,27.4-15.8c14.4-8.3,28.8-16.6,43.2-24.9c2.3-1.3,4.5-2.6,6.8-3.9
			c0.8-0.4,2.1-0.9,2.5-1.7c0.2-0.4-0.1-0.8-0.6-0.7c-12.6,2.2-25.3,4.5-37.9,6.7c-20.1,3.5-40.3,7.1-60.4,10.6
			c-4.6,0.8-9.2,1.6-13.8,2.4c-0.4,0.1-0.5,0.6-0.2,0.8c10.8,8.8,21.7,17.6,32.5,26.3c0.5,0.4,1.2-0.3,0.7-0.7
			c-10.8-8.8-21.7-17.6-32.5-26.3c-0.1,0.3-0.1,0.6-0.2,0.8c12.6-2.2,25.3-4.5,37.9-6.7c20.1-3.5,40.3-7.1,60.4-10.6
			c4.6-0.8,9.2-1.6,13.8-2.4c-0.2-0.2-0.4-0.5-0.6-0.7c-0.2,0.4-1.3,0.9-1.9,1.3c-1.9,1.1-3.8,2.2-5.7,3.3
			c-6.3,3.6-12.6,7.3-18.9,10.9c-14.3,8.2-28.7,16.5-43,24.7c-3.3,1.9-6.6,3.8-9.9,5.7C449.4,228.5,450,229.4,450.5,229.1z"/>
	</g>
</g>
<g>
	<polygon class="st3" points="417.8,202.3 530,182.5 539,161.7 384.8,175.5 	"/>
	<g>
		<path class="st3" d="M417.9,202.8c17.2-3,34.5-6.1,51.7-9.1c19.8-3.5,39.7-7,59.5-10.5c2.4-0.4,2.8-3.8,3.6-5.8
			c2.2-5.1,4.5-10.3,6.7-15.4c0.1-0.3,0-0.8-0.4-0.8c-17.5,1.6-34.9,3.1-52.4,4.7c-27.6,2.5-55.2,4.9-82.8,7.4
			c-6.3,0.6-12.7,1.1-19,1.7c-0.4,0-0.7,0.6-0.4,0.9c11,8.9,22,17.9,33,26.8c0.5,0.4,1.2-0.3,0.7-0.7c-11-8.9-22-17.9-33-26.8
			c-0.1,0.3-0.2,0.6-0.4,0.9c17.5-1.6,34.9-3.1,52.4-4.7c27.6-2.5,55.2-4.9,82.8-7.4c6.3-0.6,12.7-1.1,19-1.7
			c-0.1-0.3-0.3-0.5-0.4-0.8c-1.9,4.3-3.7,8.6-5.6,12.9c-1,2.3-2,4.7-3,7c-0.2,0.4-0.7,1.1-0.1,0.7c-0.1,0.1-0.3,0-0.4,0.1
			c-6.4,1.6-13.1,2.3-19.6,3.4c-24.3,4.3-48.7,8.6-73,12.8c-6.4,1.1-12.8,2.3-19.2,3.4C417,201.9,417.3,202.9,417.9,202.8z"/>
	</g>
</g>
<path id="tear" class="st8" d="M640.8,52c-2.7-4.7-4.2-9.8-4.8-12v-1c0,0,0,0.2-0.1,0.5c-0.1-0.3-0.1-0.5-0.1-0.5v1
	c-0.6,2.1-2.1,7.3-4.8,12c-6.4,11.1-14.4,25.4,4.8,31.9V84c0,0,0.1,0,0.1,0c0,0,0.1,0,0.1,0v-0.1C655.1,77.4,647.2,63.1,640.8,52z"
	/>
</svg>
