<?xml version="1.0" encoding="utf-8"?>
<!-- Generator: Adobe Illustrator 21.0.2, SVG Export Plug-In . SVG Version: 6.00 Build 0)  -->
<svg version="1.1" id="Layer_1" xmlns="http://www.w3.org/2000/svg" xmlns:xlink="http://www.w3.org/1999/xlink" x="0px" y="0px"
	 viewBox="0 0 315.9 109" style="enable-background:new 0 0 315.9 109;" xml:space="preserve">
<style type="text/css">
	.st0{fill:#5E35B1;}
	.st1{fill:#7E57C2;}
	.st2{fill:#B39DDB;}
	.st3{fill:#311B92;}
	.st4{fill:#9575CD;}
	.st5{fill:#4527A0;}
	.st6{fill:#512DA8;}
	.st7{fill:#D1C4E9;}
</style>
<g>
	<g>
		<polygon class="st0" points="225.6,23.7 249.2,28.4 240.4,17.8 		"/>
		<g>
			<path class="st0" d="M225.5,24.2c7.9,1.6,15.7,3.2,23.6,4.8c0.5,0.1,0.8-0.4,0.5-0.8c-2.9-3.5-5.9-7.1-8.8-10.6
				c-0.1-0.1-0.3-0.2-0.5-0.1c-4.9,2-9.9,3.9-14.8,5.9c-0.6,0.2-0.3,1.2,0.3,1c4.8-1.9,9.6-4.1,14.6-5.8c0.5-0.2-0.5-0.4-0.1-0.1
				c0.3,0.3,0.6,0.7,0.8,1c1,1.2,2,2.4,3,3.6c1.6,2,3.3,3.9,4.9,5.9c0.2-0.3,0.3-0.6,0.5-0.8c-7.9-1.6-15.7-3.2-23.6-4.8
				C225.1,23.1,224.8,24,225.5,24.2z"/>
		</g>
	</g>
	<g>
		<polygon class="st1" points="172.2,54 189.3,51 178.1,50 		"/>
		<g>
			<path class="st1" d="M172.3,54.5c5.7-1,11.4-2,17.1-3c0.6-0.1,0.4-0.9-0.1-1c-3.5-0.3-7.1-1-10.6-1c-1.1,0-1.4,0.3-2.3,1
				c-1.5,1-3,2.1-4.5,3.1c-0.5,0.4,0,1.2,0.5,0.9c1.4-0.9,2.7-1.9,4.1-2.8c1.3-0.9,1.3-1.2,2.6-1.1c3.4,0.3,6.8,0.6,10.2,1
				c0-0.3-0.1-0.7-0.1-1c-5.7,1-11.4,2-17.1,3C171.4,53.7,171.7,54.6,172.3,54.5z"/>
		</g>
	</g>
	<g>
		<polygon class="st2" points="272.5,33.1 266.6,31.9 265.8,33.7 		"/>
		<g>
			<path class="st2" d="M272.6,32.6c-2-0.4-3.9-0.8-5.9-1.2c-0.2,0-0.5,0-0.6,0.2c-0.3,0.6-0.5,1.2-0.8,1.8c-0.1,0.3,0,0.8,0.4,0.8
				c2.2-0.2,4.4-0.4,6.7-0.6c0.6-0.1,0.6-1.1,0-1c-2.2,0.2-4.4,0.4-6.7,0.6c0.1,0.3,0.3,0.5,0.4,0.8c0.3-0.6,0.5-1.2,0.8-1.8
				c-0.2,0.1-0.4,0.2-0.6,0.2c2,0.4,3.9,0.8,5.9,1.2C273,33.7,273.3,32.7,272.6,32.6z"/>
		</g>
	</g>
	<g>
		<polygon class="st3" points="197.4,76 190.3,91.6 202.9,81.7 214,66.7 		"/>
		<g>
			<path class="st3" d="M197,75.7c-2.4,5.2-4.7,10.4-7.1,15.6c-0.2,0.5,0.3,1,0.8,0.6c2.4-1.9,4.8-3.8,7.2-5.7
				c1.8-1.4,4-2.8,5.5-4.5c4-4.6,7.4-9.9,11-14.8c0.3-0.4-0.3-0.9-0.7-0.7c-5.5,3.1-11.1,6.2-16.6,9.3c-0.6,0.3-0.1,1.2,0.5,0.9
				c5.5-3.1,11.1-6.2,16.6-9.3c-0.2-0.2-0.5-0.5-0.7-0.7c-3.6,4.9-6.9,10.2-10.9,14.7c-1.3,1.4-3.9,3.1-5.6,4.5
				c-2.4,1.9-4.7,3.7-7.1,5.6c0.3,0.2,0.5,0.4,0.8,0.6c2.4-5.2,4.7-10.4,7.1-15.6C198.1,75.6,197.3,75.1,197,75.7z"/>
		</g>
	</g>
	<g>
		<polygon class="st0" points="202.9,81.7 211.2,80.8 215.9,87.9 218.5,80.6 214,66.7 		"/>
		<g>
			<path class="st0" d="M202.9,82.2c1.4-0.1,2.8-0.3,4.2-0.4c0.9-0.1,1.8-0.2,2.7-0.3c0.2,0,1.7,0,1.3-0.3c-0.4-0.2,0.5,0.9,0.6,1.1
				c0.5,0.8,1,1.5,1.5,2.3c0.8,1.2,1.6,2.4,2.3,3.5c0.2,0.4,0.8,0.3,0.9-0.1c0.7-2,1.4-4,2.2-6c0.5-1.4,0.4-1.7,0-3.2
				c-1.3-4.1-2.6-8.3-3.9-12.4c-0.1-0.4-0.7-0.5-0.9-0.1c-3.7,5-7.4,10-11.1,15c-0.4,0.5,0.5,1,0.9,0.5c3.7-5,7.4-10,11.1-15
				c-0.3,0-0.6-0.1-0.9-0.1c1.3,4,2.5,7.9,3.8,11.9c0.2,0.6,0.6,1.3,0.6,1.9c0,0.4,0-0.3,0,0.1c0,0.4-0.3,0.8-0.4,1.1
				c-0.7,2-1.4,4-2.2,6c0.3,0,0.6-0.1,0.9-0.1c-1.6-2.4-3.1-4.7-4.7-7.1c-0.1-0.1-0.3-0.3-0.4-0.2c-2.8,0.3-5.5,0.5-8.3,0.8
				C202.3,81.2,202.3,82.2,202.9,82.2z"/>
		</g>
	</g>
	<g>
		<polygon class="st4" points="234.6,36.5 234.3,36.3 234.3,36.2 233.7,36.5 214.9,46.5 241.3,41.9 		"/>
		<g>
			<path class="st4" d="M234.9,36.1c-0.1-0.1-0.2-0.2-0.4-0.3c-0.1-0.1-0.4-0.1-0.5,0c-6.5,3.4-13,6.9-19.4,10.3
				c-0.5,0.3-0.1,1,0.4,0.9c8.8-1.5,17.6-3.1,26.4-4.6c0.4-0.1,0.5-0.6,0.2-0.8C239.4,39.7,237.2,37.9,234.9,36.1
				c-0.5-0.4-1.2,0.3-0.7,0.7c2.2,1.8,4.5,3.6,6.7,5.4c0.1-0.3,0.1-0.6,0.2-0.8c-8.8,1.5-17.6,3.1-26.4,4.6c0.1,0.3,0.3,0.6,0.4,0.9
				c3.4-1.8,6.7-3.6,10.1-5.3c2.1-1.1,4.3-2.3,6.4-3.4c0.6-0.3,1.3-0.6,1.9-1c0.4-0.3,0.7-0.4,0.7-0.4
				C234.7,37.2,235.4,36.5,234.9,36.1z"/>
		</g>
	</g>
	<g>
		<polygon class="st3" points="233.7,36.5 192,40.3 178.1,50 189.3,51 214.9,46.5 		"/>
		<g>
			<path class="st3" d="M233.7,36c-8.1,0.7-16.2,1.5-24.3,2.2c-4.8,0.4-9.5,0.9-14.3,1.3c-2.4,0.2-3.2,0.3-5.2,1.6
				c-4,2.8-8.1,5.6-12.1,8.4c-0.4,0.3-0.2,0.9,0.3,0.9c3.7,0.3,7.7,1.2,11.4,1c3.6-0.2,7.3-1.3,10.8-1.9c4.6-0.8,9.4-1.5,14-2.5
				c2.6-0.5,5-2.4,7.3-3.6c4.1-2.2,8.3-4.4,12.4-6.6c0.6-0.3,0.1-1.2-0.5-0.9c-3.4,1.8-6.7,3.6-10.1,5.3c-2.7,1.4-6.3,3.9-8.9,4.6
				c-3.8,1.1-8.1,1.4-12.1,2.1c-4.2,0.7-8.6,1.9-12.9,2.3c-3.3,0.3-7.9-0.7-11.5-1c0.1,0.3,0.2,0.6,0.3,0.9c3.5-2.4,7-4.9,10.5-7.3
				c0.8-0.6,1.6-1.1,2.4-1.7c0.2-0.1,1.3-0.8,0.8-0.7c0.7-0.2,1.8-0.2,2.5-0.2c9.9-0.9,19.8-1.8,29.6-2.7c3.2-0.3,6.3-0.6,9.5-0.9
				C234.4,37,234.4,36,233.7,36z"/>
		</g>
	</g>
	<g>
		<polygon class="st2" points="308.7,18.2 309.7,15 306.1,15.6 		"/>
		<g>
			<path class="st2" d="M309.2,18.3c0.3-1.1,0.6-2.2,1-3.2c0.1-0.4-0.3-0.7-0.6-0.6c-1.2,0.2-2.4,0.4-3.6,0.6
				c-0.4,0.1-0.5,0.6-0.2,0.8c0.9,0.9,1.8,1.8,2.6,2.6c0.5,0.5,1.2-0.3,0.7-0.7c-0.9-0.9-1.8-1.8-2.6-2.6c-0.1,0.3-0.1,0.6-0.2,0.8
				c1.2-0.2,2.4-0.4,3.6-0.6c-0.2-0.2-0.4-0.4-0.6-0.6c-0.3,1.1-0.6,2.2-1,3.2C308,18.7,309,19,309.2,18.3z"/>
		</g>
	</g>
	<g>
		<polygon class="st5" points="214.9,46.5 203.8,52.4 234,55.2 247.8,47.2 241.3,41.9 		"/>
		<g>
			<path class="st5" d="M214.6,46.1c-3.7,1.9-7.4,3.9-11,5.8c-0.5,0.3-0.2,0.9,0.3,0.9c6.7,0.6,13.3,1.2,20,1.9
				c3.1,0.3,6.4,0.8,9.5,0.9c1.8,0,3.5-1.5,5-2.3c3.3-1.9,6.6-3.8,9.8-5.7c0.3-0.1,0.4-0.6,0.1-0.8c-1.2-1-2.4-2-3.7-3
				c-0.8-0.6-2.1-2.2-3.1-2.5c-0.5-0.1-1.3,0.2-1.8,0.3c-1.5,0.3-3.1,0.5-4.6,0.8c-6.7,1.2-13.5,2.4-20.2,3.6
				c-0.6,0.1-0.4,1.1,0.3,1c6.4-1.1,12.8-2.2,19.1-3.4c2.2-0.4,5-1.4,7.2-1.3c-0.7,0-0.1,0.2,0.5,0.6c0.7,0.5,1.3,1.1,2,1.6
				c1.2,1,2.4,2,3.7,3c0-0.3,0.1-0.5,0.1-0.8c-2.7,1.5-5.3,3.1-8,4.6c-1.6,0.9-3.2,1.8-4.8,2.7c-0.3,0.2-0.7,0.5-1,0.6
				c0.1,0,0.2-0.1-0.2-0.1c-2.8,0.1-5.8-0.5-8.6-0.8c-4.3-0.4-8.7-0.8-13-1.2c-2.7-0.3-5.4-0.5-8.1-0.8c0.1,0.3,0.2,0.6,0.3,0.9
				c3.7-1.9,7.4-3.9,11-5.8C215.7,46.7,215.2,45.8,214.6,46.1z"/>
		</g>
	</g>
	<g>
		<polygon class="st6" points="234.3,36.2 234.3,36.3 234.6,36.5 265.8,33.7 266.6,31.9 249.1,28.4 		"/>
		<g>
			<path class="st6" d="M234,36.7c1,0.7,3,0.1,4.1,0c3.6-0.3,7.2-0.6,10.8-1c5.6-0.5,11.2-1,16.9-1.5c0.2,0,0.4-0.1,0.4-0.2
				c0.3-0.6,0.5-1.2,0.8-1.8c0.1-0.3,0.1-0.7-0.3-0.7c-2.9-0.6-5.8-1.2-8.8-1.8c-2-0.4-4-0.8-6-1.2c-0.8-0.2-1.9-0.6-2.7-0.5
				c-0.7,0.1-1.3,0.5-1.9,0.8c-1.8,0.9-3.5,1.9-5.3,2.8c-2.7,1.4-5.4,2.8-8.1,4.3c-0.6,0.3-0.1,1.2,0.5,0.9c2.5-1.3,5.1-2.7,7.6-4
				c1.7-0.9,3.4-1.8,5.1-2.7c0.5-0.3,1.1-0.5,1.6-0.8c0.4-0.2,0.6-0.2,0.2-0.2c1-0.1,2.3,0.5,3.2,0.6c2,0.4,4,0.8,5.9,1.2
				c2.8,0.6,5.5,1.1,8.3,1.7c-0.1-0.2-0.2-0.5-0.3-0.7c-0.2,0.4-1,1.9-0.4,1.5c-0.1,0.1-0.5,0.1-0.6,0.1c-1.1,0-2.2,0.2-3.3,0.3
				c-3.7,0.3-7.5,0.7-11.2,1c-3.8,0.3-7.7,0.7-11.5,1c-1.2,0.1-2.4,0.2-3.6,0.3c-0.3,0-0.5,0.1-0.8,0.1c-0.3,0,0.3,0.2-0.2-0.1
				C234,35.4,233.5,36.3,234,36.7z"/>
		</g>
	</g>
	<g>
		<polygon class="st3" points="300.4,29.6 296.9,32 301,33.6 		"/>
		<g>
			<path class="st3" d="M300.1,29.1c-1.1,0.8-2.3,1.6-3.4,2.4c-0.4,0.3-0.3,0.8,0.1,0.9c1.4,0.5,2.7,1.1,4.1,1.6
				c0.4,0.2,0.7-0.3,0.6-0.6c-0.2-1.4-0.4-2.7-0.6-4.1c-0.1-0.6-1.1-0.4-1,0.3c0.2,1.4,0.4,2.7,0.6,4.1c0.2-0.2,0.4-0.4,0.6-0.6
				c-1.4-0.5-2.7-1.1-4.1-1.6c0,0.3,0.1,0.6,0.1,0.9c1.1-0.8,2.3-1.6,3.4-2.4C301.2,29.6,300.7,28.8,300.1,29.1z"/>
		</g>
	</g>
	<g>
		<polygon class="st0" points="296.1,28.5 293.5,31.2 296.9,32 		"/>
		<g>
			<path class="st0" d="M295.8,28.2c-0.9,0.9-1.8,1.8-2.6,2.6c-0.3,0.3-0.1,0.7,0.2,0.8c1.1,0.3,2.3,0.5,3.4,0.8
				c0.4,0.1,0.7-0.2,0.6-0.6c-0.3-1.1-0.5-2.3-0.8-3.4c-0.1-0.6-1.1-0.4-1,0.3c0.3,1.1,0.5,2.3,0.8,3.4c0.2-0.2,0.4-0.4,0.6-0.6
				c-1.1-0.3-2.3-0.5-3.4-0.8c0.1,0.3,0.1,0.6,0.2,0.8c0.9-0.9,1.8-1.8,2.6-2.6C296.9,28.4,296.2,27.7,295.8,28.2z"/>
		</g>
	</g>
	<g>
		<polygon class="st3" points="297.6,20.8 301.2,16.8 293.5,17.8 		"/>
		<g>
			<path class="st3" d="M297.9,21.2c1.2-1.4,2.4-2.7,3.6-4.1c0.3-0.3,0.1-0.9-0.4-0.9c-2.6,0.3-5.1,0.7-7.7,1
				c-0.5,0.1-0.7,0.6-0.3,0.9c1.4,1,2.7,2,4.1,3c0.5,0.4,1-0.5,0.5-0.9c-1.4-1-2.7-2-4.1-3c-0.1,0.3-0.2,0.6-0.3,0.9
				c2.6-0.3,5.1-0.7,7.7-1c-0.1-0.3-0.2-0.6-0.4-0.9c-1.2,1.4-2.4,2.7-3.6,4.1C296.8,21,297.5,21.7,297.9,21.2z"/>
		</g>
	</g>
	<g>
		<polygon class="st6" points="303.6,31.6 301,33.6 305.1,36.7 		"/>
		<g>
			<path class="st6" d="M303.4,31.2c-0.9,0.7-1.8,1.4-2.6,2c-0.3,0.2-0.3,0.6,0,0.9c1.4,1,2.7,2,4.1,3c0.4,0.3,0.8-0.2,0.7-0.6
				c-0.5-1.7-0.9-3.4-1.4-5.1c-0.2-0.6-1.1-0.4-1,0.3c0.5,1.7,0.9,3.4,1.4,5.1c0.2-0.2,0.5-0.4,0.7-0.6c-1.4-1-2.7-2-4.1-3
				c0,0.3,0,0.6,0,0.9c0.9-0.7,1.8-1.4,2.6-2C304.4,31.6,303.9,30.8,303.4,31.2z"/>
		</g>
	</g>
	<g>
		<polygon class="st0" points="195.2,102.7 200.7,91.8 202.9,81.7 190.3,91.6 		"/>
		<g>
			<path class="st0" d="M195.6,103c1.8-3.6,4-7.1,5.4-10.9c1.2-3.2,1.6-7,2.3-10.3c0.1-0.5-0.5-0.8-0.8-0.5
				c-4.2,3.3-8.4,6.6-12.6,9.9c-0.2,0.1-0.2,0.4-0.1,0.6c1.6,3.7,3.2,7.4,4.9,11.1c0.3,0.6,1.1,0.1,0.9-0.5c-1-2.2-1.9-4.5-2.9-6.7
				c-0.5-1.2-0.9-2.8-1.7-3.9c-0.5-0.7,0.1-0.4-0.3,0c0.2-0.2,0.4-0.4,0.6-0.5c2.4-1.4,4.6-3.7,6.8-5.4c1.7-1.4,3.4-2.7,5.1-4.1
				c-0.3-0.2-0.6-0.3-0.8-0.5c-0.7,3.3-1.2,7.4-2.3,10.2c-1.4,3.7-3.6,7.2-5.4,10.7C194.5,103.1,195.3,103.6,195.6,103z"/>
		</g>
	</g>
	<g>
		<polygon class="st6" points="304.4,19.2 306.1,15.6 301.2,16.8 		"/>
		<g>
			<path class="st6" d="M304.9,19.5c0.5-1.2,1.1-2.4,1.6-3.6c0.2-0.4-0.1-0.8-0.6-0.7c-1.6,0.4-3.2,0.8-4.9,1.2
				c-0.5,0.1-0.4,0.7-0.1,0.9c1.1,0.8,2.2,1.6,3.2,2.4c0.5,0.4,1-0.5,0.5-0.9c-1.1-0.8-2.2-1.6-3.2-2.4c0,0.3-0.1,0.6-0.1,0.9
				c1.6-0.4,3.2-0.8,4.9-1.2c-0.2-0.2-0.4-0.5-0.6-0.7c-0.5,1.2-1.1,2.4-1.6,3.6C303.8,19.6,304.6,20.1,304.9,19.5z"/>
		</g>
	</g>
	<g>
		<polygon class="st3" points="201.9,102.5 206.3,102.5 205.7,100.7 201.7,97.5 200.7,91.8 195.2,102.7 		"/>
		<g>
			<path class="st3" d="M201.9,103c1.5,0,3,0,4.5,0c0.3,0,0.6-0.3,0.5-0.6c-0.3-0.8-0.4-1.6-1-2.2c-0.9-1-2.3-1.8-3.3-2.7
				c-0.5-0.4-0.3-0.2-0.4-0.4c-0.2-0.5-0.2-1.2-0.3-1.7c-0.2-1.2-0.4-2.5-0.7-3.7c-0.1-0.4-0.7-0.5-0.9-0.1
				c-1.8,3.6-3.6,7.3-5.5,10.9c-0.2,0.3,0,0.8,0.4,0.8C197.4,103.2,199.7,103.1,201.9,103c0.6,0,0.6-1,0-1c-2.2,0.1-4.5,0.1-6.7,0.2
				c0.1,0.3,0.3,0.5,0.4,0.8c1.8-3.6,3.6-7.3,5.5-10.9c-0.3,0-0.6-0.1-0.9-0.1c0.2,1.2,0.4,2.3,0.6,3.5c0.1,0.7,0.1,1.8,0.6,2.5
				c0.6,0.9,2.1,1.7,3,2.4c1.1,0.9,1.1,1,1.5,2.4c0.2-0.2,0.3-0.4,0.5-0.6c-1.5,0-3,0-4.5,0C201.2,102,201.2,103,201.9,103z"/>
		</g>
	</g>
	<g>
		<polygon class="st2" points="208.8,85.7 212.6,98.7 211.2,105.6 219.9,98.3 215.9,87.9 211.2,80.8 		"/>
		<g>
			<path class="st2" d="M208.3,85.8c1.1,3.7,2.2,7.4,3.3,11c0.5,1.6,0.6,1.6,0.3,2.9c-0.4,1.9-0.8,3.8-1.2,5.6
				c-0.1,0.5,0.5,0.8,0.8,0.5c2.9-2.4,5.8-4.9,8.7-7.3c0.1-0.1,0.2-0.3,0.1-0.5c-1.3-3.3-2.4-6.8-3.9-10c-1.2-2.6-3.2-5.1-4.8-7.5
				c-0.2-0.3-0.7-0.4-0.9,0c-0.8,1.6-1.6,3.2-2.4,4.9c-0.3,0.6,0.6,1.1,0.9,0.5c0.8-1.6,1.6-3.2,2.4-4.9c-0.3,0-0.6,0-0.9,0
				c1.5,2.3,3.2,4.5,4.5,6.8c1.1,2,2,5,2.9,7.3c0.3,0.8,1.2,2.2,1.2,3.1c0-0.7,0-0.3-0.5,0.1c-0.5,0.4-1,0.9-1.5,1.3
				c-2.2,1.8-4.3,3.6-6.5,5.4c0.3,0.2,0.6,0.3,0.8,0.5c0.6-2.8,1.8-5.8,1-8.6c-1.1-3.8-2.3-7.7-3.4-11.5
				C209.1,85,208.1,85.2,208.3,85.8z"/>
		</g>
	</g>
	<g>
		<polygon class="st1" points="268.8,60.4 268.8,63 271.6,61.8 266.9,58.3 260,54.4 260.8,59.3 		"/>
		<g>
			<path class="st1" d="M268.3,60.4c0,0.9,0,1.8,0,2.6c0,0.4,0.4,0.6,0.8,0.4c0.9-0.4,1.9-0.8,2.8-1.2c0.4-0.2,0.3-0.7,0-0.9
				c-3.8-2.8-7.6-5.1-11.7-7.4c-0.4-0.2-0.8,0.1-0.7,0.6c0.3,1.6,0.5,3.2,0.8,4.9c0,0.2,0.2,0.3,0.3,0.3c2.7,0.4,5.3,0.7,8,1.1
				c0.6,0.1,0.9-0.9,0.3-1c-2.3-0.3-4.7-0.6-7-1c-0.3,0-0.7,0-1-0.1c0.6,0.3,0.2-0.1,0.1-0.8c-0.2-1.2-0.4-2.5-0.6-3.7
				c-0.2,0.2-0.5,0.4-0.7,0.6c4.1,2.3,7.9,4.6,11.7,7.4c0-0.3,0-0.6,0-0.9c-0.9,0.4-1.9,0.8-2.8,1.2c0.3,0.1,0.5,0.3,0.8,0.4
				c0-0.9,0-1.8,0-2.6C269.3,59.7,268.3,59.7,268.3,60.4z"/>
		</g>
	</g>
	<g>
		<polygon class="st5" points="271.2,58.3 266.9,58.3 271.6,61.8 		"/>
		<g>
			<path class="st5" d="M271.2,57.8c-1.4,0-2.8,0-4.3,0c-0.5,0-0.6,0.7-0.3,0.9c1.6,1.1,3.1,2.3,4.7,3.4c0.3,0.2,0.8-0.1,0.8-0.4
				c-0.1-1.1-0.3-2.3-0.4-3.4c-0.1-0.6-1.1-0.6-1,0c0.1,1.1,0.3,2.3,0.4,3.4c0.3-0.1,0.5-0.3,0.8-0.4c-1.6-1.1-3.1-2.3-4.7-3.4
				c-0.1,0.3-0.2,0.6-0.3,0.9c1.4,0,2.8,0,4.3,0C271.8,58.8,271.9,57.8,271.2,57.8z"/>
		</g>
	</g>
	<g>
		<polygon class="st3" points="217.5,108 218.5,105.8 227.4,106.8 230.1,108 229.9,105.8 234.1,105.8 232.9,103.5 227.6,101.3
			219.9,98.3 211.2,105.6 		"/>
		<g>
			<path class="st3" d="M217.9,108.3c0.2-0.5,0.6-1,0.7-1.5c0.1-0.4,0.6-0.7-0.1-0.5c0.1,0,0.3,0,0.4,0c1.4,0.1,2.9,0.3,4.3,0.5
				c2.8,0.3,4.2,0.5,6.6,1.6c0.3,0.1,0.8,0,0.8-0.4c0-0.4,0-1.2-0.1-1.6c-0.3-0.7,0.2-0.3-0.5-0.2c0.2,0,0.5,0,0.7,0
				c1.1,0.2,2.4,0,3.5,0c0.4,0,0.6-0.4,0.4-0.8c-0.6-1.2-0.9-2.1-2.1-2.7c-1.4-0.8-3.1-1.3-4.6-1.9c-2.6-1.1-5.2-2.1-7.9-3.1
				c-0.2-0.1-0.4,0-0.5,0.1c-2.9,2.4-5.8,4.9-8.7,7.3c-0.3,0.3-0.1,0.7,0.2,0.8c2.1,0.8,4.2,1.6,6.3,2.4c0.6,0.2,0.9-0.7,0.3-1
				c-2.1-0.8-4.2-1.6-6.3-2.4c0.1,0.3,0.1,0.6,0.2,0.8c1.9-1.6,3.8-3.2,5.6-4.7c0.9-0.8,1.8-1.6,2.8-2.3c0.6-0.4-0.1-0.1,0-0.1
				c0.5,0.1,1,0.4,1.5,0.6c2.2,0.9,4.5,1.8,6.6,2.6c1.3,0.5,2.7,1,3.9,1.7c0.9,0.5,1.1,1.2,1.7,2.3c0.1-0.3,0.3-0.5,0.4-0.8
				c-1.4,0-2.8,0-4.3,0c-0.3,0-0.5,0.2-0.5,0.5c0.1,0.7,0.1,1.5,0.2,2.2c0.3-0.1,0.5-0.3,0.8-0.4c-1.7-0.8-2.9-1.3-4.8-1.5
				c-2.3-0.3-4.7-0.5-7-0.8c-0.2,0-0.4,0.1-0.4,0.2c-0.3,0.7-0.7,1.5-1,2.2C216.8,108.3,217.7,108.8,217.9,108.3z"/>
		</g>
	</g>
	<g>
		<polygon class="st2" points="189.3,51 172.2,54 170.7,55.1 196,56.5 203.8,52.4 214.9,46.5 		"/>
		<g>
			<path class="st2" d="M189.2,50.5c-3.4,0.6-6.8,1.2-10.3,1.8c-3,0.5-6,0.6-8.5,2.3c-0.4,0.3-0.3,0.9,0.3,0.9
				c6.9,0.4,13.8,0.8,20.7,1.2c1.8,0.1,3.9,0.6,5.6-0.2c2.6-1.3,5.2-2.8,7.8-4.2c3.4-1.8,6.9-3.6,10.3-5.5c0.5-0.3,0.1-1-0.4-0.9
				C206.2,47.5,197.7,49,189.2,50.5c-0.6,0.1-0.4,1.1,0.3,1c8.5-1.5,17-3,25.5-4.5c-0.1-0.3-0.3-0.6-0.4-0.9
				c-5.5,2.9-10.9,5.8-16.4,8.7c-0.7,0.4-1.3,0.8-2.1,1.1c-0.6,0.2,0.1,0.1-0.4,0.1c-1.1,0.1-2.3-0.1-3.4-0.2
				c-4.2-0.2-8.4-0.5-12.6-0.7c-3-0.2-6-0.3-9-0.5c0.1,0.3,0.2,0.6,0.3,0.9c2.5-1.7,5.8-1.8,8.8-2.3c3.3-0.6,6.5-1.1,9.8-1.7
				C190.1,51.4,189.8,50.4,189.2,50.5z"/>
		</g>
	</g>
	<g>
		<polygon class="st6" points="256.7,54.4 260.8,59.3 260,54.4 263.5,45.3 281.4,34.7 264,37.8 		"/>
		<g>
			<path class="st6" d="M256.4,54.7c1.3,1.6,2.7,3.3,4,4.9c0.4,0.4,0.9-0.1,0.8-0.5c-0.2-1.5-0.8-3.2-0.8-4.7c0-0.3,1.1-2.7,1.4-3.5
				c0.6-1.7,1.2-3.4,2-5c0.3-0.6-0.1-0.1,0.1-0.2c0.3-0.3,0.8-0.4,1.1-0.6c5.6-3.3,11.1-6.6,16.7-9.9c0.5-0.3,0.2-1-0.4-0.9
				c-3.1,0.5-6.1,1.1-9.2,1.6c-2,0.4-4,0.7-6,1.1c-0.6,0.1-1.9,0.1-2.4,0.5c-0.5,0.4-0.8,1.9-1.1,2.4c-0.8,1.9-1.7,3.8-2.5,5.7
				c-1.2,2.8-2.5,5.7-3.7,8.5c-0.3,0.6,0.6,1.1,0.9,0.5c1.2-2.7,2.4-5.4,3.5-8.1c0.8-1.9,1.7-3.8,2.5-5.7c0.3-0.8,0.7-2.2,1.2-2.8
				c-0.4,0.4,0.1,0.1,0.5,0.1c0.6,0,1.2-0.2,1.7-0.3c2.1-0.4,4.1-0.7,6.2-1.1c2.9-0.5,5.8-1,8.7-1.5c-0.1-0.3-0.3-0.6-0.4-0.9
				c-5.7,3.4-11.9,6.5-17.4,10.3c-1.8,1.3-2.4,4.7-3.1,6.7c-0.4,1-1.1,2.2-1.2,3.3c-0.1,1.5,0.5,3.4,0.8,4.8
				c0.3-0.2,0.6-0.3,0.8-0.5c-1.3-1.6-2.7-3.3-4-4.9C256.7,53.5,256,54.2,256.4,54.7z"/>
		</g>
	</g>
	<g>
		<polygon class="st2" points="234,55.2 247.9,56.5 248,56.5 252.8,55.5 256.8,54.5 247.8,47.2 		"/>
		<g>
			<path class="st2" d="M234,55.7c4.4,0.4,8.7,0.9,13.1,1.2c3.2,0.2,6.8-1.2,9.9-2c0.3-0.1,0.5-0.6,0.2-0.8c-3-2.4-6-4.8-9-7.3
				c-0.2-0.1-0.4-0.2-0.6-0.1c-4.6,2.7-9.3,5.3-13.9,8c-0.6,0.3-0.1,1.2,0.5,0.9c4.3-2.5,8.9-4.7,13-7.5c0.2-0.2,0.5-0.3,0.8-0.4
				c0,0-0.6-0.4-0.2,0.1c0.8,0.9,2,1.6,2.9,2.4c1.9,1.6,3.9,3.1,5.8,4.7c0.1-0.3,0.1-0.6,0.2-0.8c-3.1,0.8-6.7,2.2-9.9,1.9
				c-4.3-0.4-8.5-0.8-12.8-1.2C233.3,54.7,233.3,55.7,234,55.7z"/>
		</g>
	</g>
	<g>
		<polygon class="st7" points="247.8,47.2 256.8,54.5 264,37.9 		"/>
		<g>
			<path class="st7" d="M247.5,47.6c3,2.4,6,4.8,9,7.3c0.2,0.2,0.6,0.2,0.8-0.1c2.4-5.5,4.8-11,7.2-16.5c0.2-0.4-0.2-1-0.7-0.7
				c-5.4,3.1-10.8,6.2-16.1,9.3c-0.6,0.3-0.1,1.2,0.5,0.9c5.4-3.1,10.8-6.2,16.1-9.3c-0.2-0.2-0.5-0.5-0.7-0.7
				c-2.4,5.5-4.8,11-7.2,16.5c0.3,0,0.5-0.1,0.8-0.1c-3-2.4-6-4.8-9-7.3C247.7,46.5,247,47.2,247.5,47.6z"/>
		</g>
	</g>
	<g>
		<polygon class="st1" points="266.6,31.9 273.8,15.3 249.1,28.4 		"/>
		<g>
			<path class="st1" d="M267,32.1c2.4-5.5,4.8-11.1,7.2-16.6c0.2-0.4-0.2-0.9-0.7-0.7c-8.2,4.4-16.5,8.7-24.7,13.1
				c-0.4,0.2-0.3,0.8,0.1,0.9c5.8,1.2,11.7,2.3,17.5,3.5c0.6,0.1,0.9-0.8,0.3-1c-5.8-1.2-11.7-2.3-17.5-3.5c0,0.3,0.1,0.6,0.1,0.9
				c8.2-4.4,16.5-8.7,24.7-13.1c-0.2-0.2-0.5-0.5-0.7-0.7c-2.4,5.5-4.8,11.1-7.2,16.6C265.9,32.2,266.8,32.7,267,32.1z"/>
		</g>
	</g>
	<g>
		<polygon class="st7" points="207,60.6 214,66.7 221.4,62.4 		"/>
		<g>
			<path class="st7" d="M206.6,60.9c2.4,2,4.7,4.1,7.1,6.1c0.2,0.1,0.4,0.2,0.6,0.1c2.5-1.4,4.9-2.8,7.4-4.2
				c0.5-0.3,0.2-0.9-0.3-0.9c-4.8-0.6-9.6-1.2-14.4-1.9c-0.6-0.1-0.6,0.9,0,1c4.8,0.6,9.6,1.2,14.4,1.9c-0.1-0.3-0.2-0.6-0.3-0.9
				c-1.4,0.8-2.7,1.6-4.1,2.4c-0.8,0.4-1.5,0.9-2.3,1.3c-0.3,0.2-0.6,0.3-0.9,0.5c-0.3,0.2,0.7,0.3,0.4,0.1
				c-1.3-0.7-2.5-2.1-3.6-3.1c-1.1-1-2.2-1.9-3.4-2.9C206.8,59.8,206.1,60.5,206.6,60.9z"/>
		</g>
	</g>
	<g>
		<polygon class="st5" points="214,66.7 218.5,80.6 225.2,76.2 226.4,70.3 230.7,63.6 221.4,62.4 		"/>
		<g>
			<path class="st5" d="M213.6,66.8c1.5,4.7,3,9.3,4.5,14c0.1,0.3,0.5,0.5,0.7,0.3c1.7-1.2,3.5-2.3,5.2-3.5c1.6-1,1.7-1.2,2.1-3.1
				c0.4-1.8,0.5-3.5,1.5-5c1.2-1.9,2.4-3.8,3.6-5.6c0.2-0.4-0.1-0.7-0.4-0.8c-1.5-0.2-2.9-0.4-4.4-0.6c-1.4-0.2-3.4-0.8-4.9-0.6
				c-1.1,0.2-2.4,1.3-3.3,1.8c-1.4,0.8-2.9,1.7-4.3,2.5c-0.6,0.3-0.1,1.2,0.5,0.9c1.4-0.8,2.7-1.6,4.1-2.4c0.8-0.4,1.5-0.9,2.3-1.3
				c0.4-0.2,1.1-0.5,0.9-0.5c1.4-0.2,3.3,0.4,4.7,0.6c1.5,0.2,2.9,0.4,4.4,0.6c-0.1-0.3-0.3-0.5-0.4-0.8c-1.1,1.8-2.3,3.5-3.4,5.3
				c-0.9,1.4-1.1,2.5-1.5,4.2c-0.2,0.9-0.2,2.1-0.6,3c-0.1,0.2,0.3-0.3-0.2,0.1c-0.3,0.3-0.7,0.5-1.1,0.7c-1.7,1.2-3.5,2.3-5.2,3.5
				c0.2,0.1,0.5,0.2,0.7,0.3c-1.5-4.7-3-9.3-4.5-14C214.3,65.9,213.4,66.2,213.6,66.8z"/>
		</g>
	</g>
	<g>
		<polygon class="st1" points="306.7,5 293.9,4.6 274,15.2 293.5,17.8 301.2,16.8 306.1,15.6 309.7,15 310.5,12.1 		"/>
		<g>
			<path class="st1" d="M306.7,4.5c-3.3-0.1-6.6-0.2-9.9-0.3c-2.4-0.1-3.1,0-5.2,1.1c-6,3.2-11.9,6.3-17.9,9.5
				c-0.5,0.3-0.2,0.9,0.3,0.9c2.9,0.4,5.9,0.8,8.8,1.2c3.4,0.5,7,1.3,10.5,1.4c5.5,0.1,11.2-1.9,16.6-2.8c0.2,0,0.3-0.2,0.3-0.3
				c0.6-2,1.1-2.7,0.2-4.4c-1.1-2-2.1-3.9-3.2-5.9c-0.3-0.6-1.2-0.1-0.9,0.5c0.8,1.4,1.5,2.8,2.3,4.2c0.4,0.8,0.9,1.5,1.2,2.3
				c0.4,0.7,0.3,0.2,0,1.2c-0.2,0.5-0.2,1.1-0.5,1.5c-0.2,0.4,0.5-0.1-0.2,0.1c-1,0.2-2,0.3-2.9,0.5c-1.5,0.3-3,0.8-4.5,1.1
				c-2.4,0.5-5.6,1.2-8.2,1.1c-2.9,0-6.1-0.8-9-1.2c-3.5-0.5-7-0.9-10.5-1.4c0.1,0.3,0.2,0.6,0.3,0.9c5.8-3.1,11.6-6.2,17.4-9.2
				c0.8-0.4,1.6-1.1,2.4-1.3c-0.4,0.1,0.4,0,0.6,0.1c0.7,0.1,1.4,0,2.1,0.1c3.3,0.1,6.6,0.2,9.9,0.3C307.3,5.6,307.3,4.6,306.7,4.5z
				"/>
		</g>
	</g>
	<g>
		<polygon class="st1" points="234,55.2 203.8,52.4 196,56.5 207,60.6 221.4,62.4 		"/>
		<g>
			<path class="st1" d="M234,54.7c-7.3-0.7-14.7-1.4-22-2.1c-1.9-0.2-3.8-0.4-5.6-0.5c-0.7-0.1-1.7-0.3-2.5-0.2
				c-1.2,0.2-2.5,1.2-3.5,1.8c-1.5,0.8-3,1.6-4.5,2.4c-0.4,0.2-0.3,0.8,0.1,0.9c3.5,1.3,7,2.9,10.6,3.9c3.1,0.9,6.7,1,9.9,1.4
				c1.4,0.2,3.5,0.9,5,0.6c0.9-0.1,1.8-0.9,2.6-1.4c3.4-2,6.8-3.9,10.3-5.9c0.6-0.3,0.1-1.2-0.5-0.9c-3.3,1.9-6.6,3.8-9.9,5.7
				c-0.7,0.4-1.3,0.8-2,1.2c-0.2,0.1-0.4,0.3-0.6,0.3c-0.2,0.1,0.4-0.1,0,0c-1.6,0.1-3.5-0.4-5.1-0.7c-3-0.4-7-0.5-9.6-1.4
				c-3.5-1.1-6.9-2.6-10.4-3.8c0,0.3,0.1,0.6,0.1,0.9c1.5-0.8,3-1.6,4.5-2.4c0.8-0.5,1.7-0.9,2.6-1.4c0.4-0.2,0.7-0.3,0.5-0.3
				c0.9-0.1,2.1,0.2,3,0.3c1.9,0.2,3.8,0.4,5.7,0.5c7.1,0.7,14.2,1.3,21.4,2C234.6,55.8,234.6,54.8,234,54.7z"/>
		</g>
	</g>
	<g>
		<polygon class="st0" points="265.8,33.7 264,37.9 281.3,34.8 272.5,33.1 		"/>
		<g>
			<path class="st0" d="M265.4,33.4c-0.6,1.4-1.2,2.8-1.8,4.2c-0.2,0.4,0.1,0.8,0.6,0.7c5.8-1,11.6-2,17.3-3.1c0.5-0.1,0.5-0.9,0-1
				c-2.8-0.6-5.7-1.4-8.6-1.7c-2.3-0.2-4.8,0.3-7.1,0.5c-0.6,0.1-0.6,1.1,0,1c2.2-0.2,5-0.8,7-0.5c2.8,0.3,5.6,1.1,8.4,1.7
				c0-0.3,0-0.6,0-1c-5.8,1-11.6,2-17.3,3.1c0.2,0.2,0.4,0.5,0.6,0.7c0.6-1.4,1.2-2.8,1.8-4.2C266.5,33.3,265.7,32.8,265.4,33.4z"/>
		</g>
	</g>
	<g>
		<polygon class="st4" points="281.3,34.8 299.6,41.1 304.4,38.1 305.1,36.7 301,33.6 296.9,32 293.5,31.2 272.5,33.1 		"/>
		<g>
			<path class="st4" d="M281.2,35.3c5.1,1.7,10.1,3.5,15.2,5.2c1.3,0.4,2.5,1.3,3.8,0.8c2.1-0.9,4.4-2.3,5.3-4.4
				c0.1-0.3,0.1-0.5-0.2-0.7c-3.8-2.9-8.3-5.9-13.3-5.4c-6.5,0.6-13,1.2-19.5,1.7c-0.5,0-0.7,0.9-0.1,1
				C275.3,34.1,278.3,34.7,281.2,35.3c0.6,0.1,0.9-0.8,0.3-1c-2.9-0.6-5.9-1.2-8.8-1.8c0,0.3-0.1,0.7-0.1,1
				c6.3-0.6,12.6-1.1,18.9-1.7c2.1-0.2,3.8,0.1,5.9,0.8c3,1,5,2.5,7.5,4.4c-0.1-0.2-0.1-0.5-0.2-0.7c-0.5,1.2-0.6,1.3-1.7,2
				c-1,0.6-2.3,1.8-3.4,2.1c-0.4,0.1,0.5,0,0,0c-0.3,0-0.6-0.2-0.9-0.3c-1.1-0.4-2.2-0.8-3.3-1.1c-4.6-1.6-9.2-3.2-13.9-4.8
				C280.9,34.1,280.6,35.1,281.2,35.3z"/>
		</g>
	</g>
	<g>
		<polygon class="st4" points="221.4,62.4 230.7,63.6 247.9,56.5 234,55.2 		"/>
		<g>
			<path class="st4" d="M221.4,62.9c2.6,0.3,5.1,0.7,7.7,1c1.7,0.2,2.4-0.1,4-0.8c5-2,9.9-4.1,14.9-6.1c0.5-0.2,0.5-0.9-0.1-1
				c-2.4-0.2-4.8-0.5-7.2-0.7c-1.6-0.2-3.2-0.3-4.8-0.5c-0.6-0.1-1.5-0.3-2.1-0.1c-0.6,0.2-1.3,0.8-1.9,1.1
				c-1.4,0.8-2.8,1.6-4.3,2.4c-2.2,1.2-4.3,2.5-6.5,3.7c-0.6,0.3-0.1,1.2,0.5,0.9c2-1.2,4-2.3,6.1-3.5c1.4-0.8,2.8-1.6,4.2-2.4
				c0.7-0.4,1.5-1.1,2.3-1.3c-0.4,0.1,0.1,0.1,0.3,0.1c0.5,0,1.1,0.1,1.6,0.1c1.5,0.1,3.1,0.3,4.6,0.4c2.4,0.2,4.8,0.5,7.2,0.7
				c0-0.3-0.1-0.7-0.1-1c-4.8,2-9.7,4-14.5,6c-1.8,0.7-2.4,1.1-4.1,0.9c-2.6-0.3-5.1-0.7-7.7-1C220.8,61.8,220.8,62.8,221.4,62.9z"
				/>
		</g>
	</g>
	<g>
		<polygon class="st7" points="261.3,17.8 253.6,20.6 240.4,17.8 249.1,28.3 		"/>
		<g>
			<path class="st7" d="M261.1,17.3c-1.8,0.7-3.6,1.3-5.4,2c-1.9,0.7-1.8,0.9-3.5,0.5c-3.9-0.8-7.8-1.7-11.7-2.5
				c-0.5-0.1-0.8,0.5-0.5,0.8c2.9,3.5,5.8,7,8.7,10.5c0.2,0.2,0.5,0.2,0.7,0c4.1-3.5,8.1-7,12.2-10.5c0.5-0.4-0.2-1.1-0.7-0.7
				c-1.8,1.5-3.6,3.1-5.3,4.6c-1.4,1.2-2.7,2.4-4.1,3.6c-0.6,0.5-2.2,1.4-2.5,2.2c-0.2,0.5,0.4,0,0.4,0.1c-0.1-0.3-0.6-0.7-0.7-0.9
				c-1-1.2-1.9-2.3-2.9-3.5c-1.7-2-3.3-4-5-6c-0.2,0.3-0.3,0.6-0.5,0.8c4.1,0.9,8.1,1.7,12.2,2.6c1.2,0.3,1.7,0.1,3-0.4
				c2-0.7,4-1.5,6-2.2C262,18.1,261.7,17.1,261.1,17.3z"/>
		</g>
	</g>
	<g>
		<polygon class="st5" points="271,6.9 261.3,17.8 248.6,28.6 273.8,15.3 273.8,15.2 		"/>
		<g>
			<path class="st5" d="M270.6,6.5c-3.3,3.7-6.3,7.7-9.9,11.1c-4,3.8-8.3,7.1-12.5,10.7c-0.4,0.4,0.1,1,0.6,0.8
				c6.5-3.4,13-6.9,19.5-10.3c1.5-0.8,2.9-1.5,4.4-2.3c0.4-0.2,1.4-0.5,1.6-1c0.4-0.9-0.8-3-1.1-3.9c-0.6-1.6-1.1-3.2-1.7-4.8
				c-0.2-0.6-1.2-0.3-1,0.3c0.5,1.5,1,2.9,1.5,4.4c0.3,1,0.7,1.9,1,2.9c0.3,0.8,0.1,1.1,0.5,0.6c-0.5,0.5-1.6,0.9-2.3,1.2
				c-1.6,0.8-3.2,1.7-4.8,2.5c-6,3.2-12.1,6.4-18.1,9.6c0.2,0.3,0.4,0.5,0.6,0.8c4.1-3.5,8.5-6.9,12.5-10.7
				c3.6-3.4,6.6-7.4,9.9-11.1C271.8,6.7,271.1,6,270.6,6.5z"/>
		</g>
	</g>
	<g>
		<polygon class="st5" points="158.1,56.5 164,67.5 179.4,73.3 165.6,65.6 162.6,58.1 170.7,55.1 172.2,54 		"/>
		<g>
			<path class="st5" d="M157.7,56.8c1.3,2.4,2.6,4.8,3.9,7.2c0.7,1.4,1.3,3.4,2.7,4.1c2.5,1.4,5.6,2.1,8.3,3.2
				c2.3,0.9,4.5,1.7,6.8,2.6c0.5,0.2,0.9-0.6,0.4-0.9c-3.9-2.2-7.8-4.3-11.6-6.5c-0.6-0.3-1.4-0.6-1.9-1.1c-0.4-0.3,0.1,0.3,0,0
				c-0.2-0.3-0.3-0.8-0.5-1.1c-0.8-2.1-1.7-4.2-2.5-6.2c-0.1,0.2-0.2,0.4-0.3,0.6c3.3-1.2,6.9-2.1,9.8-4.2c0.5-0.3,0.2-1-0.4-0.9
				c-4.7,0.8-9.4,1.7-14.1,2.5c-0.6,0.1-0.4,1.1,0.3,1c4.7-0.8,9.4-1.7,14.1-2.5c-0.1-0.3-0.3-0.6-0.4-0.9c-2.8,2-6.3,2.8-9.5,4.1
				c-0.2,0.1-0.5,0.3-0.3,0.6c0.9,2.1,1.7,4.3,2.6,6.4c0.6,1.4,0.9,1.5,2.2,2.3c4.1,2.3,8.2,4.6,12.2,6.8c0.1-0.3,0.3-0.6,0.4-0.9
				c-4.9-1.9-9.7-4.1-14.7-5.6c-0.2-0.1-0.5-0.1-0.7-0.3c0.5,0.4,0.1,0,0-0.3c-0.6-1.3-1.3-2.5-2-3.7c-1.2-2.3-2.4-4.5-3.6-6.8
				C158.2,55.7,157.4,56.2,157.7,56.8z"/>
		</g>
	</g>
	<g>
		<polygon class="st0" points="273.9,15.2 273.8,15.2 273.8,15.3 266.6,31.9 272.5,33.1 293.5,31.2 		"/>
		<g>
			<path class="st0" d="M274.3,14.9C274.2,14.9,274.2,14.8,274.3,14.9c-0.3-0.2-0.7-0.3-0.9,0c-2.4,5.6-4.8,11.1-7.2,16.7
				c-0.1,0.3-0.1,0.7,0.3,0.7c2,0.4,4,1.1,6,1.2c1.8,0.1,3.9-0.3,5.7-0.5c5.1-0.5,10.2-0.9,15.3-1.4c0.4,0,0.7-0.6,0.4-0.9
				C287.3,25.5,280.8,20.2,274.3,14.9c-0.5-0.4-1.2,0.3-0.7,0.7c6.5,5.3,13.1,10.6,19.6,16c0.1-0.3,0.2-0.6,0.4-0.9
				c-4.9,0.4-9.9,0.9-14.8,1.3c-2,0.2-4.1,0.6-6.1,0.5c-1.6-0.1-4-0.8-5.9-1.1c0.1,0.2,0.2,0.5,0.3,0.7c2.4-5.6,4.8-11.1,7.2-16.7
				c-0.3,0-0.5,0.1-0.8,0.1c0,0,0,0,0.1,0.1C274.1,16,274.8,15.3,274.3,14.9z"/>
		</g>
	</g>
	<g>
		<polygon class="st6" points="293.5,17.8 274,15.2 273.8,15.2 273.9,15.2 293.5,31.2 290.9,24.1 		"/>
		<g>
			<path class="st6" d="M293.5,17.3c-6.6-0.9-13.1-1.8-19.7-2.6c-0.4-0.1-0.7,0.6-0.4,0.9c6.6,5.3,13.1,10.7,19.7,16
				c0.3,0.3,1,0,0.8-0.5c-0.4-1.1-0.8-2.2-1.2-3.3c-0.4-1-1.3-2.6-1.4-3.7c0,0.2,0.1-0.3,0.3-0.6c0.3-0.7,0.6-1.4,0.9-2.2
				c0.5-1.1,0.9-2.2,1.4-3.4c0.2-0.6-0.7-0.9-1-0.3c-0.5,1.2-1,2.4-1.5,3.6c-0.3,0.8-1.2,2-1.1,3c0,1,0.9,2.4,1.2,3.3
				c0.5,1.3,0.9,2.5,1.4,3.8c0.3-0.2,0.6-0.3,0.8-0.5c-6.6-5.3-13.1-10.7-19.7-16c-0.1,0.3-0.2,0.6-0.4,0.9
				c6.6,0.9,13.1,1.8,19.7,2.6C294.1,18.4,294.1,17.4,293.5,17.3z"/>
		</g>
	</g>
	<g>
		<polygon class="st3" points="274,15.2 293.9,4.6 285.6,2.2 281.3,4.4 271,6.9 273.8,15.2 		"/>
		<g>
			<path class="st3" d="M274.2,15.6c6.6-3.5,13.3-7,19.9-10.6c0.4-0.2,0.3-0.8-0.1-0.9c-2.2-0.6-4.4-1.3-6.6-1.9
				c-2.2-0.6-2.5-0.2-4.6,0.9c-3.5,1.8-8,2.3-11.9,3.3c-0.3,0.1-0.4,0.4-0.3,0.6c0.9,2.8,1.9,5.5,2.8,8.3c0.1,0.2,0.2,0.3,0.5,0.4
				c0,0,0.1,0,0.1,0c0.6,0.1,0.6-0.9,0-1c0.4,0.1,0.3,0.5,0.2-0.1c-0.1-0.3-0.2-0.6-0.3-0.9c-0.3-0.9-0.6-1.8-0.9-2.8
				c-0.5-1.4-0.9-2.8-1.4-4.2c-0.1,0.2-0.2,0.4-0.3,0.6c3.6-0.8,7.7-1.2,11.1-2.8c1.1-0.5,2.2-1.3,3.3-1.7c0.6-0.2-0.3-0.1,0.2,0
				c0.4,0.1,0.9,0.3,1.4,0.4c2.2,0.6,4.4,1.3,6.6,1.9c0-0.3-0.1-0.6-0.1-0.9c-6.6,3.5-13.3,7-19.9,10.6
				C273.2,15.1,273.7,15.9,274.2,15.6z"/>
		</g>
	</g>
	<g>
		<polygon class="st7" points="178.1,50 159.3,48.2 158.1,56.5 172.2,54 		"/>
		<g>
			<path class="st7" d="M178.1,49.5c-6.2-0.6-12.5-1.2-18.7-1.8c-0.2,0-0.5,0.2-0.5,0.4c-0.4,2.8-0.8,5.5-1.2,8.3
				c-0.1,0.4,0.2,0.7,0.6,0.6c4.1-0.7,8.1-1.4,12.2-2.1c3.1-0.5,5.3-2.7,7.9-4.5c0.5-0.4,0-1.2-0.5-0.9c-1.6,1.1-3.2,2.2-4.8,3.3
				c-1.1,0.8-1.8,0.8-3.2,1.1c-3.9,0.7-7.9,1.4-11.8,2.1c0.2,0.2,0.4,0.4,0.6,0.6c0.4-2.4,1-4.9,1.1-7.3c0-0.3,0.3-1.1-0.1-0.8
				c-0.4,0.4,0,0.1,0.2,0.2c0.8,0.4,2.2,0.2,3.1,0.3c5,0.5,10.1,0.9,15.1,1.4C178.7,50.5,178.7,49.5,178.1,49.5z"/>
		</g>
	</g>
	<g>
		<polygon class="st6" points="192,40.3 164.4,42.7 159.3,48.2 178.1,50 		"/>
		<g>
			<path class="st6" d="M192,39.8c-6.7,0.6-13.3,1.2-20,1.8c-1.7,0.2-3.4,0.3-5.1,0.5c-0.7,0.1-1.8,0-2.4,0.2
				c-0.9,0.3-1.5,1.3-2.1,2c-1.1,1.2-2.2,2.4-3.3,3.6c-0.3,0.3-0.1,0.8,0.4,0.9c3,0.3,6.1,0.6,9.1,0.9c2,0.2,4,0.4,6,0.6
				c1,0.1,2.5,0.5,3.5,0.3c0.6-0.1,1.1-0.6,1.6-0.9c1.6-1.1,3.1-2.2,4.7-3.3c2.7-1.9,5.3-3.7,8-5.6c0.5-0.4,0-1.2-0.5-0.9
				c-2.5,1.8-5.1,3.5-7.6,5.3c-1.6,1.1-3.1,2.2-4.7,3.3c-0.4,0.3-0.9,0.8-1.4,1c-0.5,0.2,0.2,0-0.2,0.1c-1.2,0.1-2.6-0.2-3.8-0.4
				c-2-0.2-4.1-0.4-6.1-0.6c-2.9-0.3-5.8-0.5-8.6-0.8c0.1,0.3,0.2,0.6,0.4,0.9c1.1-1.1,2.1-2.3,3.2-3.4c0.5-0.6,1-1.3,1.6-1.8
				c0.5-0.5-0.5,0,0.2-0.1c2.6-0.7,5.6-0.5,8.2-0.7c6.4-0.6,12.7-1.1,19.1-1.7C192.7,40.7,192.7,39.7,192,39.8z"/>
		</g>
	</g>
	<g>
		<polygon class="st5" points="215.8,23.7 209.3,25.7 196.8,30.6 181.6,36 164.4,42.7 192,40.3 		"/>
		<g>
			<path class="st5" d="M215.6,23.2c-6.5,2-12.8,4.6-19.2,7c-6.5,2.4-13.1,4.7-19.6,7.2c-4.2,1.6-8.4,3.3-12.6,4.9
				c-0.5,0.2-0.5,1,0.1,1c8.3-0.7,16.6-1.5,25-2.2c2.4-0.2,3-0.4,4.9-1.7c4-2.8,8-5.6,12-8.4c3.2-2.2,6.5-4.5,9.7-6.7
				c0.5-0.4,0-1.2-0.5-0.9c-6.8,4.7-13.6,9.5-20.4,14.2c-1,0.7-2.1,1.7-3.2,2.3c-0.4,0.2,0.3,0-0.1,0.1c-0.5,0.1-1.1,0.1-1.6,0.1
				c-4.7,0.4-9.3,0.8-14,1.3c-3.9,0.4-7.9,0.7-11.8,1.1c0,0.3,0.1,0.7,0.1,1c13.5-5.3,27.2-10.1,40.7-15.4c3.5-1.4,7.1-2.5,10.7-3.7
				C216.5,24,216.3,23,215.6,23.2z"/>
		</g>
	</g>
	<g>
		<polygon class="st3" points="249.1,28.4 225.6,23.7 215.9,23.7 234.3,36.2 		"/>
		<g>
			<path class="st3" d="M249.2,27.9c-6.3-1.3-12.6-2.5-18.9-3.8c-1.7-0.3-3.5-0.8-5.2-0.9c-3.1-0.2-6.2,0-9.3,0
				c-0.5,0-0.6,0.7-0.3,0.9c6.1,4.2,12.3,8.4,18.4,12.5c0.1,0.1,0.4,0.1,0.5,0c4.9-2.6,9.9-5.2,14.8-7.8c0.6-0.3,0.1-1.2-0.5-0.9
				c-3,1.6-5.9,3.2-8.9,4.7c-1.7,0.9-3.5,1.7-5.1,2.7c-0.6,0.4-0.9,0.2-0.3,0.4c-0.3-0.1-0.6-0.4-0.8-0.5c-3-2.6-6.7-4.6-10-6.8
				c-2.5-1.7-5-3.4-7.6-5.2c-0.1,0.3-0.2,0.6-0.3,0.9c3,0,6-0.1,9,0c1.6,0,3.8,0.6,5.6,1c6.2,1.2,12.3,2.5,18.5,3.7
				C249.6,29,249.9,28,249.2,27.9z"/>
		</g>
	</g>
	<g>
		<polygon class="st0" points="233.7,36.5 234.3,36.2 215.9,23.7 192,40.3 		"/>
		<g>
			<path class="st5" d="M233.8,36.6c0.2-0.1,0.4-0.2,0.6-0.3c0.1,0,0.1-0.2,0-0.2c-6.1-4.2-12.3-8.4-18.4-12.5c0,0-0.1,0-0.1,0
				c-8,5.5-15.9,11.1-23.9,16.6c-0.1,0.1-0.1,0.2,0.1,0.2C205.9,39.1,219.8,37.9,233.8,36.6c0.1,0,0.1-0.2-0.1-0.2
				c-13.2,1.2-26.4,2.4-39.6,3.5c-0.5,0-1.5,0.3-2,0.2c0,0-0.1,0.3,0.2,0.1c0.3-0.2,0.6-0.4,0.9-0.6c2.9-2,5.9-4.1,8.8-6.1
				c3.4-2.4,6.8-4.7,10.2-7.1c1-0.7,2-1.5,3.1-2.2c0.8-0.5,0.3-0.4,1-0.1c1.4,0.6,2.7,1.9,4,2.7c2.1,1.4,4.1,2.8,6.2,4.2
				c1.8,1.2,3.6,2.5,5.4,3.7c0.6,0.4,1.3,0.7,1.8,1.2c0.5,0.5,0.7,0.1,0,0.5C233.5,36.5,233.6,36.7,233.8,36.6z"/>
		</g>
	</g>
	<g>
		<polygon class="st4" points="247.8,47.2 264,37.9 264,37.9 241.3,41.9 		"/>
		<g>
			<path class="st4" d="M248.1,47.7c2.9-1.7,5.8-3.3,8.7-5c1.8-1.1,3.7-2.1,5.5-3.2c0.5-0.3,1.9-0.8,2.1-1.3
				c0.2-0.4-0.1-0.8-0.6-0.7c-7.6,1.3-15.2,2.7-22.7,4c-0.4,0.1-0.5,0.6-0.2,0.8c2.2,1.8,4.4,3.6,6.6,5.3c0.5,0.4,1.2-0.3,0.7-0.7
				c-2.2-1.8-4.4-3.6-6.6-5.3c-0.1,0.3-0.1,0.6-0.2,0.8c7.6-1.3,15.2-2.7,22.7-4c-0.2-0.2-0.4-0.5-0.6-0.7c0.1-0.3-0.3,0.2-0.5,0.3
				c-0.6,0.2-1.2,0.7-1.8,1.1c-1.8,1.1-3.7,2.1-5.5,3.2c-2.7,1.5-5.4,3.1-8.1,4.6C247,47.1,247.5,48,248.1,47.7z"/>
		</g>
	</g>
	<g>
		<polygon class="st3" points="241.3,41.9 264,37.9 265.8,33.7 234.6,36.5 		"/>
		<g>
			<path class="st3" d="M241.4,42.4c5.1-0.9,10.3-1.8,15.4-2.7c2.1-0.4,5-0.4,7-1.2c1.4-0.6,1.9-3.1,2.5-4.5c0.1-0.3,0-0.8-0.4-0.8
				C255.4,34.1,245,35,234.6,36c-0.4,0-0.7,0.6-0.4,0.9c2.2,1.8,4.5,3.6,6.7,5.4c0.5,0.4,1.2-0.3,0.7-0.7c-2.2-1.8-4.5-3.6-6.7-5.4
				c-0.1,0.3-0.2,0.6-0.4,0.9c10.4-0.9,20.8-1.9,31.3-2.8c-0.1-0.3-0.3-0.5-0.4-0.8c-0.5,1.2-1.2,2.3-1.5,3.6
				c-0.2,0.7,0.1,0.5-0.8,0.6c-2.5,0.2-5,0.9-7.4,1.3c-4.8,0.9-9.7,1.7-14.5,2.6C240.5,41.5,240.8,42.5,241.4,42.4z"/>
		</g>
	</g>
</g>
<g>
	<g>
		<polygon class="st0" points="105.4,73.1 115.4,75.2 111.7,70.6 		"/>
		<g>
			<path class="st0" d="M105.3,73.6c3.3,0.7,6.7,1.4,10,2c0.5,0.1,0.8-0.4,0.5-0.8c-1.3-1.5-2.5-3-3.8-4.5c-0.1-0.1-0.3-0.2-0.5-0.1
				c-2.1,0.8-4.2,1.7-6.3,2.5c-0.6,0.2-0.3,1.2,0.3,1c2-0.8,4.1-1.6,6.1-2.4c0,0-0.3-0.4,0,0.2c0.3,0.6,0.9,1.1,1.3,1.6
				c0.7,0.9,1.4,1.7,2.1,2.6c0.2-0.3,0.3-0.6,0.5-0.8c-3.3-0.7-6.7-1.4-10-2C104.9,72.5,104.6,73.5,105.3,73.6z"/>
		</g>
	</g>
	<g>
		<polygon class="st1" points="82.7,86 90,84.8 85.2,84.3 		"/>
		<g>
			<path class="st1" d="M82.8,86.5c2.4-0.4,4.9-0.9,7.3-1.3c0.6-0.1,0.4-0.9-0.1-1c-1.5-0.1-3.1-0.5-4.5-0.4c-1.1,0-2.1,1.2-3,1.8
				c-0.5,0.4,0,1.2,0.5,0.9c0.6-0.4,1.1-0.8,1.7-1.2c0.2-0.2,0.5-0.4,0.8-0.5c-0.4,0.1,0.1,0.1,0.3,0.1c1.4,0.2,2.9,0.3,4.3,0.4
				c0-0.3-0.1-0.7-0.1-1c-2.4,0.4-4.9,0.9-7.3,1.3C81.9,85.7,82.2,86.6,82.8,86.5z"/>
		</g>
	</g>
	<g>
		<polygon class="st2" points="125.4,77.1 122.8,76.6 122.5,77.4 		"/>
		<g>
			<path class="st2" d="M125.5,76.6c-0.8-0.2-1.7-0.3-2.5-0.5c-0.2,0-0.5,0-0.6,0.2c-0.1,0.3-0.2,0.5-0.3,0.8
				c-0.1,0.3,0,0.8,0.4,0.8c0.9-0.1,1.9-0.2,2.8-0.3c0.6-0.1,0.6-1.1,0-1c-0.9,0.1-1.9,0.2-2.8,0.3c0.1,0.3,0.3,0.5,0.4,0.8
				c0.1-0.3,0.2-0.5,0.3-0.8c-0.2,0.1-0.4,0.2-0.6,0.2c0.8,0.2,1.7,0.3,2.5,0.5C125.8,77.7,126.1,76.8,125.5,76.6z"/>
		</g>
	</g>
	<g>
		<polygon class="st3" points="93.4,95.4 90.4,102 95.8,97.8 100.5,91.4 		"/>
		<g>
			<path class="st3" d="M93,95.1c-1,2.2-2,4.4-3,6.6c-0.2,0.5,0.3,1,0.8,0.6c1.8-1.4,3.9-2.7,5.5-4.4c1.8-1.9,3.2-4.3,4.7-6.3
				c0.3-0.4-0.3-0.9-0.7-0.7c-2.4,1.3-4.7,2.6-7.1,4c-0.6,0.3-0.1,1.2,0.5,0.9c2.4-1.3,4.7-2.6,7.1-4c-0.2-0.2-0.5-0.5-0.7-0.7
				c-1.5,2-2.9,4.4-4.6,6.2c-1.3,1.4-3.7,2.9-5.4,4.3c0.3,0.2,0.5,0.4,0.8,0.6c1-2.2,2-4.4,3-6.6C94.1,95.1,93.3,94.5,93,95.1z"/>
		</g>
	</g>
	<g>
		<polygon class="st0" points="95.8,97.8 99.3,97.4 101.3,100.5 102.4,97.4 100.5,91.4 		"/>
		<g>
			<path class="st0" d="M95.8,98.3c0.5-0.1,1.1-0.1,1.6-0.2c0.3,0,2.1-0.2,1.7-0.3c-0.4-0.2,0,0.2,0.1,0.4c0.2,0.3,0.4,0.7,0.6,1
				c0.3,0.5,0.7,1,1,1.5c0.2,0.4,0.8,0.3,0.9-0.1c0.5-1.3,1.3-2.6,0.9-3.9c-0.5-1.8-1.1-3.6-1.7-5.4c-0.1-0.4-0.7-0.5-0.9-0.1
				c-1.6,2.1-3.2,4.3-4.7,6.4c-0.4,0.5,0.5,1,0.9,0.5c1.6-2.1,3.2-4.3,4.7-6.4c-0.3,0-0.6-0.1-0.9-0.1c0.5,1.7,1.1,3.3,1.6,5
				c0.1,0.3,0.2,0.6,0.3,0.8c0-0.2,0,0.1-0.2,0.4c-0.3,0.8-0.6,1.7-0.9,2.5c0.3,0,0.6-0.1,0.9-0.1c-0.7-1-1.3-2-2-3
				c-0.1-0.1-0.3-0.3-0.4-0.2c-1.2,0.1-2.4,0.2-3.5,0.3C95.1,97.4,95.1,98.4,95.8,98.3z"/>
		</g>
	</g>
	<g>
		<polygon class="st4" points="109.2,78.6 109.1,78.5 109.1,78.5 108.9,78.6 100.8,82.9 112.1,80.9 		"/>
		<g>
			<path class="st4" d="M109.6,78.2c-0.1-0.1-0.1-0.1-0.2-0.2c-0.1-0.1-0.4-0.1-0.5,0c-2.8,1.5-5.5,2.9-8.3,4.4
				c-0.5,0.3-0.1,1,0.4,0.9c3.7-0.7,7.5-1.3,11.2-2c0.4-0.1,0.5-0.6,0.2-0.8C111.5,79.8,110.5,79,109.6,78.2
				c-0.5-0.4-1.2,0.3-0.7,0.7c0.9,0.8,1.9,1.5,2.8,2.3c0.1-0.3,0.1-0.6,0.2-0.8c-3.7,0.7-7.5,1.3-11.2,2c0.1,0.3,0.3,0.6,0.4,0.9
				c1.5-0.8,2.9-1.6,4.4-2.3c0.9-0.5,1.8-1,2.7-1.4c0.3-0.1,0.5-0.3,0.8-0.4c0.4-0.2,0.2,0-0.1-0.2
				C109.4,79.3,110.1,78.6,109.6,78.2z"/>
		</g>
	</g>
	<g>
		<polygon class="st3" points="108.9,78.6 91.1,80.2 85.2,84.3 90,84.8 100.8,82.9 		"/>
		<g>
			<path class="st3" d="M108.9,78.1c-4.8,0.4-9.6,0.9-14.4,1.3c-1.2,0.1-2.6,0-3.7,0.5c-2,0.9-4,2.8-5.8,4c-0.4,0.3-0.2,0.9,0.3,0.9
				c1.8,0.2,3.6,0.5,5.3,0.4c2.7-0.3,5.3-0.9,8-1.4c3.9-0.7,7.1-2.9,10.6-4.7c0.6-0.3,0.1-1.2-0.5-0.9c-3.5,1.8-6.6,4-10.4,4.6
				c-2.6,0.5-5.2,1.1-7.8,1.4c-1.6,0.2-3.5-0.2-5.3-0.4c0.1,0.3,0.2,0.6,0.3,0.9c1.8-1.3,3.6-2.7,5.5-3.8c0.5-0.3,0.1-0.2,1-0.3
				c1-0.1,2.1-0.2,3.1-0.3c4.6-0.4,9.2-0.8,13.8-1.2C109.5,79,109.5,78,108.9,78.1z"/>
		</g>
	</g>
	<g>
		<polygon class="st2" points="140.8,70.8 141.2,69.4 139.6,69.7 		"/>
		<g>
			<path class="st2" d="M141.2,70.9c0.1-0.5,0.3-0.9,0.4-1.4c0.1-0.4-0.3-0.7-0.6-0.6c-0.5,0.1-1,0.2-1.5,0.3
				c-0.4,0.1-0.5,0.6-0.2,0.8c0.4,0.4,0.7,0.7,1.1,1.1c0.5,0.5,1.2-0.3,0.7-0.7c-0.4-0.4-0.7-0.7-1.1-1.1c-0.1,0.3-0.1,0.6-0.2,0.8
				c0.5-0.1,1-0.2,1.5-0.3c-0.2-0.2-0.4-0.4-0.6-0.6c-0.1,0.5-0.3,0.9-0.4,1.4C140.1,71.3,141,71.6,141.2,70.9z"/>
		</g>
	</g>
	<g>
		<polygon class="st5" points="100.8,82.9 96.1,85.3 109,86.5 114.9,83.1 112.1,80.9 		"/>
		<g>
			<path class="st5" d="M100.6,82.4c-1.6,0.8-3.1,1.7-4.7,2.5c-0.5,0.3-0.2,0.9,0.3,0.9c3.8,0.4,7.6,0.7,11.4,1.1
				c2.8,0.3,5.2-2,7.6-3.3c0.3-0.1,0.4-0.6,0.1-0.8c-0.8-0.6-2-2.1-3-2.4c-0.7-0.2-1.9,0.2-2.6,0.4c-3,0.5-6,1.1-9,1.6
				c-0.6,0.1-0.4,1.1,0.3,1c2.7-0.5,5.3-0.9,8-1.4c0.9-0.2,2.3-0.7,3.2-0.6c-0.8-0.1,0.4,0.5,0.8,0.8c0.5,0.4,1.1,0.9,1.6,1.3
				c0-0.3,0.1-0.5,0.1-0.8c-1.6,0.9-3.2,1.8-4.7,2.7c-1.3,0.8-1.1,0.6-2.8,0.4c-3.6-0.3-7.3-0.7-10.9-1c0.1,0.3,0.2,0.6,0.3,0.9
				c1.6-0.8,3.1-1.7,4.7-2.5C101.7,83,101.1,82.1,100.6,82.4z"/>
		</g>
	</g>
	<g>
		<polygon class="st6" points="109.1,78.5 109.1,78.5 109.2,78.6 122.5,77.4 122.8,76.6 115.4,75.1 		"/>
		<g>
			<path class="st6" d="M108.8,78.9c0.4,0.3,0.9,0.1,1.4,0.1c1.5-0.1,3.1-0.3,4.6-0.4c2.5-0.2,5.1-0.5,7.6-0.7
				c0.2,0,0.4-0.1,0.4-0.2c0.1-0.3,0.2-0.5,0.3-0.8c0.1-0.3,0.1-0.7-0.3-0.7c-1.3-0.3-2.6-0.5-4-0.8c-1-0.2-2.6-0.8-3.6-0.7
				c-1,0.1-2.1,1.1-3,1.5c-1.2,0.6-2.4,1.3-3.6,1.9c-0.6,0.3-0.1,1.2,0.5,0.9c1-0.6,2.1-1.1,3.1-1.7c0.7-0.4,1.4-0.8,2.2-1.1
				c0.2-0.1,1.3-0.5,0.6-0.5c1.2-0.1,2.8,0.6,3.9,0.8c1.2,0.2,2.3,0.5,3.5,0.7c-0.1-0.2-0.2-0.5-0.3-0.7c-0.3,0.8,0.3,0.3-0.3,0.5
				c-0.4,0.1-0.9,0.1-1.3,0.1c-1.7,0.1-3.3,0.3-5,0.4c-1.6,0.1-3.2,0.3-4.8,0.4c-0.5,0-1,0.1-1.5,0.1c-0.5,0,0,0.1-0.2,0
				C108.8,77.7,108.3,78.5,108.8,78.9z"/>
		</g>
	</g>
	<g>
		<polygon class="st3" points="137.2,75.6 135.8,76.7 137.5,77.4 		"/>
		<g>
			<path class="st3" d="M137,75.2c-0.5,0.3-1,0.7-1.5,1c-0.4,0.3-0.3,0.8,0.1,0.9c0.6,0.2,1.1,0.5,1.7,0.7c0.4,0.2,0.7-0.3,0.6-0.6
				c-0.1-0.6-0.2-1.1-0.3-1.7c-0.1-0.6-1.1-0.4-1,0.3c0.1,0.6,0.2,1.1,0.3,1.7c0.2-0.2,0.4-0.4,0.6-0.6c-0.6-0.2-1.1-0.5-1.7-0.7
				c0,0.3,0.1,0.6,0.1,0.9c0.5-0.3,1-0.7,1.5-1C138,75.7,137.5,74.8,137,75.2z"/>
		</g>
	</g>
	<g>
		<polygon class="st0" points="135.4,75.2 134.3,76.3 135.8,76.7 		"/>
		<g>
			<path class="st0" d="M135.1,74.9c-0.4,0.4-0.7,0.7-1.1,1.1c-0.3,0.3-0.1,0.7,0.2,0.8c0.5,0.1,1,0.2,1.5,0.3
				c0.4,0.1,0.7-0.2,0.6-0.6c-0.1-0.5-0.2-1-0.3-1.5c-0.1-0.6-1.1-0.4-1,0.3c0.1,0.5,0.2,1,0.3,1.5c0.2-0.2,0.4-0.4,0.6-0.6
				c-0.5-0.1-1-0.2-1.5-0.3c0.1,0.3,0.1,0.6,0.2,0.8c0.4-0.4,0.7-0.7,1.1-1.1C136.2,75.1,135.5,74.4,135.1,74.9z"/>
		</g>
	</g>
	<g>
		<polygon class="st3" points="136,71.9 137.6,70.2 134.3,70.6 		"/>
		<g>
			<path class="st3" d="M136.4,72.3c0.5-0.6,1-1.1,1.6-1.7c0.3-0.3,0.1-0.9-0.4-0.9c-1.1,0.1-2.2,0.3-3.3,0.4
				c-0.5,0.1-0.7,0.6-0.3,0.9c0.6,0.4,1.1,0.9,1.7,1.3c0.5,0.4,1-0.5,0.5-0.9c-0.6-0.4-1.1-0.9-1.7-1.3c-0.1,0.3-0.2,0.6-0.3,0.9
				c1.1-0.1,2.2-0.3,3.3-0.4c-0.1-0.3-0.2-0.6-0.4-0.9c-0.5,0.6-1,1.1-1.6,1.7C135.2,72.1,135.9,72.8,136.4,72.3z"/>
		</g>
	</g>
	<g>
		<polygon class="st6" points="138.6,76.5 137.5,77.4 139.2,78.7 		"/>
		<g>
			<path class="st6" d="M138.3,76.1c-0.4,0.3-0.7,0.6-1.1,0.9c-0.3,0.2-0.3,0.6,0,0.9c0.6,0.4,1.1,0.9,1.7,1.3
				c0.4,0.3,0.8-0.2,0.7-0.6c-0.2-0.7-0.4-1.4-0.6-2.2c-0.2-0.6-1.1-0.4-1,0.3c0.2,0.7,0.4,1.4,0.6,2.2c0.2-0.2,0.5-0.4,0.7-0.6
				c-0.6-0.4-1.1-0.9-1.7-1.3c0,0.3,0,0.6,0,0.9c0.4-0.3,0.7-0.6,1.1-0.9C139.4,76.5,138.9,75.7,138.3,76.1z"/>
		</g>
	</g>
	<g>
		<polygon class="st0" points="92.5,106.8 94.8,102.1 95.8,97.8 90.4,102 		"/>
		<g>
			<path class="st0" d="M92.9,107c0.8-1.5,1.7-3,2.3-4.6c0.5-1.4,0.7-3,1-4.5c0.1-0.5-0.5-0.8-0.8-0.5c-1.8,1.4-3.6,2.8-5.3,4.2
				c-0.2,0.1-0.2,0.4-0.1,0.6c0.7,1.6,1.4,3.2,2.1,4.7c0.3,0.6,1.1,0.1,0.9-0.5c-0.7-1.6-1.4-3.2-2.1-4.7c0,0.2-0.1,0.4-0.1,0.6
				c1.8-1.4,3.6-2.8,5.3-4.2c-0.3-0.2-0.6-0.3-0.8-0.5c-0.3,1.3-0.5,3.2-1,4.3c-0.6,1.6-1.5,3.1-2.3,4.5
				C91.8,107.1,92.6,107.6,92.9,107z"/>
		</g>
	</g>
	<g>
		<polygon class="st6" points="138.9,71.2 139.6,69.7 137.6,70.2 		"/>
		<g>
			<path class="st6" d="M139.4,71.5c0.2-0.5,0.5-1,0.7-1.6c0.2-0.4-0.1-0.8-0.6-0.7c-0.7,0.2-1.4,0.3-2.1,0.5
				c-0.5,0.1-0.4,0.7-0.1,0.9c0.5,0.3,0.9,0.7,1.4,1c0.5,0.4,1-0.5,0.5-0.9c-0.5-0.3-0.9-0.7-1.4-1c0,0.3-0.1,0.6-0.1,0.9
				c0.7-0.2,1.4-0.3,2.1-0.5c-0.2-0.2-0.4-0.5-0.6-0.7c-0.2,0.5-0.5,1-0.7,1.6C138.2,71.6,139.1,72.1,139.4,71.5z"/>
		</g>
	</g>
	<g>
		<polygon class="st3" points="95.3,106.7 97.2,106.7 97,105.9 95.2,104.5 94.8,102.1 92.5,106.8 		"/>
		<g>
			<path class="st3" d="M95.3,107.2c0.6,0,1.3,0,1.9,0c0.3,0,0.6-0.3,0.5-0.6c-0.1-0.4-0.2-0.8-0.5-1.1c-0.4-0.4-1-0.9-1.4-1.1
				c-0.1,0-0.1-0.1-0.2-0.2c0,0,0.1,0.3,0.1,0.1c-0.1-0.2-0.1-0.5-0.1-0.7c-0.1-0.5-0.2-1-0.3-1.6c-0.1-0.4-0.7-0.5-0.9-0.1
				c-0.8,1.6-1.6,3.1-2.3,4.7c-0.2,0.3,0,0.8,0.4,0.8C93.4,107.2,94.4,107.2,95.3,107.2c0.6,0,0.6-1,0-1c-0.9,0-1.9,0.1-2.8,0.1
				c0.1,0.3,0.3,0.5,0.4,0.8c0.8-1.6,1.6-3.1,2.3-4.7c-0.3,0-0.6-0.1-0.9-0.1c0.1,0.5,0.2,1,0.3,1.5c0.1,0.4,0.1,0.9,0.3,1.2
				c0.3,0.4,0.9,0.7,1.3,1c0.1,0.1,0.6,0.6,0.3,0.2c0.1,0.2,0.2,0.5,0.2,0.7c0.2-0.2,0.3-0.4,0.5-0.6c-0.6,0-1.3,0-1.9,0
				C94.7,106.2,94.7,107.2,95.3,107.2z"/>
		</g>
	</g>
	<g>
		<polygon class="st2" points="98.3,99.5 99.9,105 99.3,108 103,104.9 101.3,100.5 99.3,97.4 		"/>
		<g>
			<path class="st2" d="M97.8,99.7c0.5,1.5,0.9,3.1,1.4,4.6c0.4,1.2,0,2-0.3,3.6c-0.1,0.5,0.5,0.8,0.8,0.5c1.2-1,2.5-2.1,3.7-3.1
				c0.1-0.1,0.2-0.3,0.1-0.5c-1.1-2.8-2.1-5-3.8-7.5c-0.2-0.3-0.7-0.4-0.9,0c-0.3,0.7-0.7,1.4-1,2.1c-0.3,0.6,0.6,1.1,0.9,0.5
				c0.3-0.7,0.7-1.4,1-2.1c-0.3,0-0.6,0-0.9,0c1.4,2.1,2.3,3.7,3.2,6c0.1,0.3,0.4,1.4,0.5,1c0.1-0.4-0.6,0.4-0.9,0.6
				c-0.9,0.8-1.8,1.5-2.7,2.3c0.3,0.2,0.6,0.3,0.8,0.5c0.3-1.2,0.7-2.5,0.4-3.7c-0.4-1.7-1-3.3-1.5-5C98.5,98.8,97.6,99,97.8,99.7z"
				/>
		</g>
	</g>
	<g>
		<polygon class="st1" points="123.8,88.7 123.8,89.9 125,89.3 123,87.9 120,86.2 120.4,88.3 		"/>
		<g>
			<path class="st1" d="M123.3,88.7c0,0.4,0,0.7,0,1.1c0,0.4,0.4,0.6,0.8,0.4c0.4-0.2,0.8-0.3,1.2-0.5c0.4-0.2,0.3-0.7,0-0.9
				c-1.6-1.2-3.2-2.2-5-3.1c-0.4-0.2-0.8,0.1-0.7,0.6c0.1,0.7,0.2,1.4,0.3,2.1c0,0.2,0.2,0.3,0.3,0.3c1.1,0.2,2.3,0.3,3.4,0.5
				c0.6,0.1,0.9-0.9,0.3-1c-1.1-0.2-2.3-0.3-3.4-0.5c0.1,0.1,0.2,0.2,0.3,0.3c-0.1-0.7-0.2-1.4-0.3-2.1c-0.2,0.2-0.5,0.4-0.7,0.6
				c1.7,1,3.3,2,5,3.1c0-0.3,0-0.6,0-0.9c-0.4,0.2-0.8,0.3-1.2,0.5c0.3,0.1,0.5,0.3,0.8,0.4c0-0.4,0-0.7,0-1.1
				C124.3,88.1,123.3,88.1,123.3,88.7z"/>
		</g>
	</g>
	<g>
		<polygon class="st5" points="124.8,87.9 123,87.9 125,89.3 		"/>
		<g>
			<path class="st5" d="M124.8,87.4c-0.6,0-1.2,0-1.8,0c-0.5,0-0.6,0.7-0.3,0.9c0.7,0.5,1.3,1,2,1.5c0.3,0.2,0.8-0.1,0.8-0.4
				c-0.1-0.5-0.1-1-0.2-1.5c-0.1-0.6-1.1-0.6-1,0c0.1,0.5,0.1,1,0.2,1.5c0.3-0.1,0.5-0.3,0.8-0.4c-0.7-0.5-1.3-1-2-1.5
				c-0.1,0.3-0.2,0.6-0.3,0.9c0.6,0,1.2,0,1.8,0C125.4,88.4,125.4,87.4,124.8,87.4z"/>
		</g>
	</g>
	<g>
		<polygon class="st3" points="102,109 102.4,108.1 106.2,108.5 107.3,109 107.2,108.1 109,108.1 108.5,107.1 106.3,106.2
			103,104.9 99.3,108 		"/>
		<g>
			<path class="st3" d="M102.4,109.3c0.1-0.2,0.2-0.4,0.3-0.6c0.2-0.5-0.3,0-0.1-0.1c0.5-0.1,1.2,0.1,1.7,0.2
				c1.2,0.1,1.8,0.2,2.8,0.7c0.3,0.1,0.8,0,0.8-0.4c0-0.3-0.1-0.6-0.1-0.9c-0.2,0.2-0.3,0.3-0.5,0.5c0.6,0,1.2,0,1.8,0
				c0.4,0,0.6-0.4,0.4-0.8c-0.7-1.3-1.5-1.5-2.9-2c-1.1-0.5-2.3-0.9-3.5-1.4c-0.2-0.1-0.4,0-0.5,0.1c-1.2,1-2.5,2.1-3.7,3.1
				c-0.3,0.3-0.1,0.7,0.2,0.8c0.9,0.3,1.8,0.7,2.7,1c0.6,0.2,0.9-0.7,0.3-1c-0.9-0.3-1.8-0.7-2.7-1c0.1,0.3,0.1,0.6,0.2,0.8
				c0.8-0.6,1.5-1.3,2.3-1.9c0.4-0.3,0.8-0.8,1.3-1.1c0.3-0.2-0.5,0-0.3,0.1c0.2,0.1,0.5,0.2,0.7,0.3c0.9,0.4,1.8,0.7,2.7,1.1
				c1.2,0.5,1.7,0.5,2.2,1.6c0.1-0.3,0.3-0.5,0.4-0.8c-0.6,0-1.2,0-1.8,0c-0.3,0-0.5,0.2-0.5,0.5c0,0.3,0.1,0.6,0.1,0.9
				c0.3-0.1,0.5-0.3,0.8-0.4c-1.7-0.8-3.3-0.8-5.2-1c-0.2,0-0.4,0.1-0.4,0.2c-0.1,0.3-0.3,0.6-0.4,0.9
				C101.3,109.3,102.1,109.8,102.4,109.3z"/>
		</g>
	</g>
	<g>
		<polygon class="st2" points="90,84.8 82.7,86 82,86.5 92.8,87.1 96.1,85.3 100.8,82.9 		"/>
		<g>
			<path class="st2" d="M89.8,84.3c-2.5,0.4-6,0.3-8.1,1.8C81.4,86.4,81.5,87,82,87c1.7,0.1,3.4,0.2,5.1,0.3
				c1.7,0.1,3.9,0.6,5.6,0.3c1.2-0.2,2.5-1.2,3.6-1.8c1.6-0.8,3.1-1.7,4.7-2.5c0.5-0.3,0.1-1-0.4-0.9C97.1,83,93.5,83.6,89.8,84.3
				c-0.6,0.1-0.4,1.1,0.3,1c3.6-0.6,7.2-1.3,10.9-1.9c-0.1-0.3-0.3-0.6-0.4-0.9c-1.5,0.8-3.1,1.6-4.6,2.5c-1,0.5-2.8,1.6-3.4,1.7
				c-1.8,0.3-4-0.2-5.9-0.3c-1.6-0.1-3.1-0.2-4.7-0.3c0.1,0.3,0.2,0.6,0.3,0.9c2-1.4,5.5-1.3,7.8-1.7C90.7,85.1,90.5,84.2,89.8,84.3
				z"/>
		</g>
	</g>
	<g>
		<polygon class="st6" points="118.6,86.2 120.4,88.3 120,86.2 121.5,82.3 129.2,77.8 121.7,79.1 		"/>
		<g>
			<path class="st6" d="M118.3,86.5c0.6,0.7,1.1,1.4,1.7,2.1c0.4,0.4,0.9-0.1,0.8-0.5c-0.3-1.6-0.4-1.8,0.2-3.2
				c0.3-0.7,0.5-1.6,0.9-2.3c0.3-0.4-0.3,0.3-0.1,0.1c0.1-0.1,0.4-0.2,0.5-0.3c2.4-1.2,4.7-2.8,7-4.1c0.5-0.3,0.2-1-0.4-0.9
				c-1.4,0.3-2.9,0.5-4.3,0.8c-0.9,0.2-2.6,0.1-3.3,0.7c-0.7,0.6-1.1,2.4-1.5,3.3c-0.6,1.3-1.1,2.6-1.7,3.9
				c-0.3,0.6,0.6,1.1,0.9,0.5c0.5-1.2,1-2.4,1.5-3.5c0.4-1,0.8-2.7,1.5-3.5c-0.4,0.5,0.4,0.1,0.8,0c0.8-0.1,1.6-0.3,2.4-0.4
				c1.3-0.2,2.6-0.5,3.9-0.7c-0.1-0.3-0.3-0.6-0.4-0.9c-1.2,0.7-2.3,1.4-3.5,2c-1.2,0.7-3.1,1.4-4.1,2.4c-0.8,0.8-1,2.2-1.4,3.2
				c-0.5,1.2-0.3,2-0.1,3.3c0.3-0.2,0.6-0.3,0.8-0.5c-0.6-0.7-1.1-1.4-1.7-2.1C118.6,85.3,117.9,86,118.3,86.5z"/>
		</g>
	</g>
	<g>
		<polygon class="st2" points="109,86.5 114.9,87.1 114.9,87.1 117,86.7 118.7,86.2 114.9,83.1 		"/>
		<g>
			<path class="st2" d="M109,87c1.9,0.2,3.8,0.5,5.7,0.5c1.4,0,2.8-0.5,4.2-0.9c0.3-0.1,0.5-0.6,0.2-0.8c-1.3-1-2.5-2.1-3.8-3.1
				c-0.2-0.1-0.4-0.2-0.6-0.1c-2,1.1-3.9,2.3-5.9,3.4c-0.6,0.3-0.1,1.2,0.5,0.9c1.7-1,4-1.8,5.5-3.1c0.6-0.5,0.1,0,0-0.2
				c0.2,0.4,0.9,0.7,1.2,1c0.8,0.7,1.7,1.4,2.5,2c0.1-0.3,0.1-0.6,0.2-0.8c-1.3,0.3-2.8,0.8-4.1,0.8c-1.8,0-3.6-0.3-5.5-0.5
				C108.3,86,108.3,87,109,87z"/>
		</g>
	</g>
	<g>
		<polygon class="st7" points="114.9,83.1 118.7,86.2 121.7,79.2 		"/>
		<g>
			<path class="st7" d="M114.5,83.5c1.3,1,2.5,2.1,3.8,3.1c0.2,0.2,0.6,0.2,0.8-0.1c1-2.3,2-4.7,3-7c0.2-0.4-0.2-1-0.7-0.7
				c-2.3,1.3-4.6,2.6-6.9,3.9c-0.6,0.3-0.1,1.2,0.5,0.9c2.3-1.3,4.6-2.6,6.9-3.9c-0.2-0.2-0.5-0.5-0.7-0.7c-1,2.3-2,4.7-3,7
				c0.3,0,0.5-0.1,0.8-0.1c-1.3-1-2.5-2.1-3.8-3.1C114.7,82.4,114,83.1,114.5,83.5z"/>
		</g>
	</g>
	<g>
		<polygon class="st1" points="122.8,76.6 125.9,69.6 115.4,75.1 		"/>
		<g>
			<path class="st1" d="M123.3,76.9c1-2.4,2-4.7,3.1-7.1c0.2-0.4-0.2-0.9-0.7-0.7c-3.5,1.9-7,3.7-10.5,5.6c-0.4,0.2-0.3,0.8,0.1,0.9
				c2.5,0.5,5,1,7.4,1.5c0.6,0.1,0.9-0.8,0.3-1c-2.5-0.5-5-1-7.4-1.5c0,0.3,0.1,0.6,0.1,0.9c3.5-1.9,7-3.7,10.5-5.6
				c-0.2-0.2-0.5-0.5-0.7-0.7c-1,2.4-2,4.7-3.1,7.1C122.2,77,123,77.5,123.3,76.9z"/>
		</g>
	</g>
	<g>
		<polygon class="st7" points="97.5,88.8 100.5,91.4 103.6,89.6 		"/>
		<g>
			<path class="st7" d="M97.1,89.2c1,0.9,2,1.7,3,2.6c0.2,0.1,0.4,0.2,0.6,0.1c1-0.6,2.1-1.2,3.1-1.8c0.5-0.3,0.2-0.9-0.3-0.9
				c-2-0.3-4.1-0.5-6.1-0.8c-0.6-0.1-0.6,0.9,0,1c2,0.3,4.1,0.5,6.1,0.8c-0.1-0.3-0.2-0.6-0.3-0.9c-1,0.6-2.1,1.2-3.1,1.8
				c0.2,0,0.4,0.1,0.6,0.1c-1-0.9-2-1.7-3-2.6C97.3,88.1,96.6,88.8,97.1,89.2z"/>
		</g>
	</g>
	<g>
		<polygon class="st5" points="100.5,91.4 102.4,97.4 105.2,95.5 105.8,93 107.6,90.1 103.6,89.6 		"/>
		<g>
			<path class="st5" d="M100,91.5c0.6,2,1.3,4,1.9,5.9c0.1,0.3,0.5,0.5,0.7,0.3c1.2-0.8,2.9-1.4,3.2-2.9c0.2-0.9,0.2-1.5,0.6-2.2
				c0.5-0.8,1-1.6,1.5-2.3c0.2-0.4-0.1-0.7-0.4-0.8c-1.2-0.2-2.8-0.7-3.9-0.5c-1.1,0.2-2.4,1.3-3.4,1.9c-0.6,0.3-0.1,1.2,0.5,0.9
				c0.5-0.3,1-0.6,1.6-0.9c0.4-0.2,0.8-0.4,1.2-0.7c0.2-0.2,0.5-0.2,0.2-0.1c1.2-0.1,2.7,0.3,3.9,0.5c-0.1-0.3-0.3-0.5-0.4-0.8
				c-0.8,1.3-1.7,2.4-2.1,3.9c-0.1,0.5-0.2,0.9-0.3,1.4c-0.1,0.4,0.3-0.3,0.1-0.1c-0.1,0.1-0.3,0.2-0.5,0.3c-0.8,0.5-1.5,1-2.3,1.5
				c0.2,0.1,0.5,0.2,0.7,0.3c-0.6-2-1.3-4-1.9-5.9C100.8,90.7,99.8,90.9,100,91.5z"/>
		</g>
	</g>
	<g>
		<polygon class="st1" points="139.9,65.2 134.5,65 126,69.5 134.3,70.6 137.6,70.2 139.6,69.7 141.2,69.4 141.5,68.2 		"/>
		<g>
			<path class="st1" d="M139.9,64.7c-2-0.1-4.5-0.7-6.4,0.3c-2.6,1.3-5.2,2.8-7.8,4.1c-0.5,0.3-0.2,0.9,0.3,0.9
				c2.7,0.4,5.5,1,8.2,1.1c2.4,0,4.8-0.8,7.1-1.2c0.2,0,0.3-0.2,0.3-0.3c0.6-1.9-0.4-2.8-1.3-4.6c-0.3-0.6-1.2-0.1-0.9,0.5
				c0.4,0.8,1.1,1.6,1.3,2.5c0.2,0.6,0.2,0.9-0.3,1.1c-1.5,0.6-3.4,0.7-5.1,0.9c-3.1,0.4-6.4-0.6-9.5-1c0.1,0.3,0.2,0.6,0.3,0.9
				c2.5-1.3,4.9-2.6,7.4-3.9c1.1-0.6,0.9-0.5,2.2-0.5c1.4,0,2.7,0.1,4.1,0.1C140.5,65.7,140.5,64.7,139.9,64.7z"/>
		</g>
	</g>
	<g>
		<polygon class="st1" points="109,86.5 96.1,85.3 92.8,87.1 97.5,88.8 103.6,89.6 		"/>
		<g>
			<path class="st1" d="M109,86c-3.2-0.3-6.5-0.6-9.7-0.9c-0.9-0.1-2.2-0.5-3.2-0.3c-1.2,0.2-2.4,1.3-3.5,1.8
				c-0.4,0.2-0.3,0.8,0.1,0.9c1.5,0.6,3,1.3,4.6,1.7c1.4,0.4,3,0.4,4.4,0.6c1.4,0.2,1.9,0.3,3.1-0.4c1.5-0.8,2.9-1.7,4.4-2.5
				c0.6-0.3,0.1-1.2-0.5-0.9c-1.4,0.8-2.7,1.6-4.1,2.3c-1.4,0.8-1.3,0.6-3.1,0.4c-1.3-0.2-2.9-0.2-4.1-0.6c-1.5-0.4-3-1.1-4.4-1.6
				c0,0.3,0.1,0.6,0.1,0.9c0.6-0.3,1.2-0.7,1.9-1c0.3-0.2,1.4-0.7,1.3-0.7c1.1-0.2,2.6,0.2,3.7,0.3c3,0.3,6,0.6,9,0.8
				C109.6,87.1,109.6,86.1,109,86z"/>
		</g>
	</g>
	<g>
		<polygon class="st0" points="122.5,77.4 121.7,79.2 129.1,77.9 125.4,77.1 		"/>
		<g>
			<path class="st0" d="M122.1,77.1c-0.3,0.6-0.5,1.2-0.8,1.8c-0.2,0.4,0.1,0.8,0.6,0.7c2.5-0.4,4.9-0.9,7.4-1.3
				c0.5-0.1,0.5-0.9,0-1c-1.2-0.2-2.4-0.6-3.7-0.7c-1-0.1-2.1,0.1-3.1,0.2c-0.6,0.1-0.6,1.1,0,1c0.9-0.1,2.2-0.3,2.9-0.2
				c1.2,0.1,2.4,0.5,3.5,0.7c0-0.3,0-0.6,0-1c-2.5,0.4-4.9,0.9-7.4,1.3c0.2,0.2,0.4,0.5,0.6,0.7c0.3-0.6,0.5-1.2,0.8-1.8
				C123.2,77,122.3,76.5,122.1,77.1z"/>
		</g>
	</g>
	<g>
		<polygon class="st4" points="129.1,77.9 136.9,80.6 138.9,79.3 139.2,78.7 137.5,77.4 135.8,76.7 134.3,76.3 125.4,77.1 		"/>
		<g>
			<path class="st4" d="M129,78.4c2.3,0.8,4.6,1.7,7,2.4c1.4,0.5,3.1-0.4,3.7-1.8c0.1-0.3,0.1-0.5-0.2-0.7c-1.7-1.3-3.4-2.4-5.6-2.4
				c-2.8,0-5.7,0.5-8.5,0.8c-0.5,0-0.7,0.9-0.1,1C126.5,77.9,127.7,78.1,129,78.4c0.6,0.1,0.9-0.8,0.3-1c-1.3-0.3-2.5-0.5-3.8-0.8
				c0,0.3-0.1,0.7-0.1,1c2.6-0.2,5.3-0.6,8-0.7c2.2-0.1,3.9,0.8,5.6,2.2c-0.1-0.2-0.1-0.5-0.2-0.7c-0.3,0.6-1.3,1.5-2.1,1.7
				c0.4-0.1,0.1-0.1-0.2-0.2c-0.5-0.1-1-0.4-1.6-0.5c-1.9-0.7-3.8-1.3-5.7-2C128.6,77.2,128.4,78.2,129,78.4z"/>
		</g>
	</g>
	<g>
		<polygon class="st4" points="103.6,89.6 107.6,90.1 114.9,87.1 109,86.5 		"/>
		<g>
			<path class="st4" d="M103.6,90.1c1.7,0.2,3.4,0.8,5,0.1c2.1-0.9,4.3-1.8,6.4-2.6c0.5-0.2,0.5-0.9-0.1-1c-1.1-0.1-2.3-0.2-3.4-0.3
				c-0.8-0.1-1.9-0.4-2.7-0.2c-0.8,0.2-1.8,1-2.5,1.4c-1,0.5-1.9,1.1-2.9,1.6c-0.6,0.3-0.1,1.2,0.5,0.9c0.8-0.5,1.7-0.9,2.5-1.4
				c0.8-0.5,1.9-1.4,2.8-1.6c-0.4,0.1,0.6,0.1,0.7,0.1c0.6,0.1,1.2,0.1,1.8,0.2c1.1,0.1,2.1,0.2,3.2,0.3c0-0.3-0.1-0.7-0.1-1
				c-2,0.8-4.1,1.7-6.1,2.5c-1.7,0.7-3.1,0.2-5,0C103,89,103,90,103.6,90.1z"/>
		</g>
	</g>
	<g>
		<polygon class="st7" points="120.6,70.6 117.3,71.8 111.7,70.6 115.4,75.1 		"/>
		<g>
			<path class="st7" d="M120.4,70.2c-0.8,0.3-1.6,0.6-2.4,0.9c-0.9,0.3-0.5,0.4-1.3,0.2c-1.6-0.4-3.3-0.7-4.9-1.1
				c-0.5-0.1-0.8,0.5-0.5,0.8c1.2,1.5,2.5,3,3.7,4.5c0.2,0.2,0.5,0.2,0.7,0c1.7-1.5,3.4-3,5.2-4.5c0.5-0.4-0.2-1.1-0.7-0.7
				c-1.7,1.5-3.4,3-5.2,4.5c0.2,0,0.5,0,0.7,0c-1.2-1.5-2.5-3-3.7-4.5c-0.2,0.3-0.3,0.6-0.5,0.8c1.7,0.4,3.5,0.9,5.2,1.1
				c1.3,0.2,2.7-0.7,3.9-1.1C121.3,70.9,121.1,69.9,120.4,70.2z"/>
		</g>
	</g>
	<g>
		<polygon class="st5" points="124.7,66 120.6,70.6 115.2,75.3 125.9,69.6 125.9,69.5 		"/>
		<g>
			<path class="st5" d="M124.4,65.6c-1.4,1.6-2.7,3.3-4.2,4.7c-1.7,1.6-3.6,3-5.3,4.6c-0.4,0.4,0.1,1,0.6,0.8
				c2.9-1.6,5.9-3.1,8.8-4.7c0.5-0.3,1.9-0.7,2.1-1.4c0.3-0.9-0.9-3-1.2-3.8c-0.2-0.6-1.2-0.3-1,0.3c0.2,0.6,0.4,1.2,0.6,1.8
				c0.1,0.3,0.2,1.1,0.5,1.3c0.4,0.4-0.3,0.5,0.3-0.1c-0.8,0.7-2.1,1.1-3,1.6c-2.6,1.4-5.1,2.7-7.7,4.1c0.2,0.3,0.4,0.5,0.6,0.8
				c1.8-1.5,3.7-2.9,5.3-4.6c1.5-1.5,2.8-3.1,4.2-4.7C125.5,65.9,124.8,65.1,124.4,65.6z"/>
		</g>
	</g>
	<g>
		<polygon class="st5" points="76.7,87.1 79.2,91.8 85.8,94.3 79.9,91 78.6,87.8 82,86.5 82.7,86 		"/>
		<g>
			<path class="st5" d="M76.3,87.4c0.6,1.1,1.2,2.2,1.7,3.3c0.4,0.7,0.6,1.3,1.2,1.7c1,0.6,2.4,0.9,3.5,1.3c1,0.4,2,0.8,2.9,1.1
				c0.5,0.2,0.9-0.6,0.4-0.9c-1.6-0.9-3.3-1.8-4.9-2.8c-0.3-0.1-0.6-0.3-0.8-0.5c0.2,0.2,0.1,0.2-0.1-0.3c-0.3-0.9-0.7-1.8-1.1-2.6
				c-0.1,0.2-0.2,0.4-0.3,0.6c1.4-0.5,3-0.9,4.2-1.8c0.5-0.3,0.2-1-0.4-0.9c-2,0.4-4,0.7-6,1.1c-0.6,0.1-0.4,1.1,0.3,1
				c2-0.4,4-0.7,6-1.1c-0.1-0.3-0.3-0.6-0.4-0.9c-1.2,0.8-2.6,1.2-4,1.7c-0.2,0.1-0.5,0.3-0.3,0.6c0.5,1.3,0.8,3,2,3.8
				c1.8,1.1,3.6,2,5.4,3c0.1-0.3,0.3-0.6,0.4-0.9c-2-0.8-4.1-1.8-6.1-2.3c-0.7-0.2-0.1,0.1-0.2-0.2c-0.2-0.5-0.5-1-0.8-1.5
				c-0.5-1-1.1-2-1.6-3C76.8,86.3,76,86.8,76.3,87.4z"/>
		</g>
	</g>
	<g>
		<polygon class="st0" points="126,69.5 125.9,69.5 125.9,69.6 122.8,76.6 125.4,77.1 134.3,76.3 		"/>
		<g>
			<path class="st0" d="M126.3,69.2C126.3,69.2,126.3,69.2,126.3,69.2c-0.2-0.2-0.7-0.2-0.8,0.1c-1,2.4-2.1,4.7-3.1,7.1
				c-0.1,0.3-0.1,0.7,0.3,0.7c3.9,0.8,7.7,0.1,11.6-0.3c0.4,0,0.7-0.6,0.4-0.9C131.9,73.7,129.1,71.5,126.3,69.2
				c-0.5-0.4-1.2,0.3-0.7,0.7c2.8,2.3,5.6,4.5,8.3,6.8c0.1-0.3,0.2-0.6,0.4-0.9c-3.8,0.3-7.6,1.1-11.3,0.3c0.1,0.2,0.2,0.5,0.3,0.7
				c1-2.4,2.1-4.7,3.1-7.1c-0.3,0-0.5,0.1-0.8,0.1c0,0,0,0,0,0C126.1,70.3,126.8,69.6,126.3,69.2z"/>
		</g>
	</g>
	<g>
		<polygon class="st6" points="134.3,70.6 126,69.5 125.9,69.5 126,69.5 134.3,76.3 133.2,73.3 		"/>
		<g>
			<path class="st6" d="M134.3,70.1c-2.8-0.4-5.6-0.7-8.4-1.1c-0.4-0.1-0.7,0.6-0.4,0.9c2.8,2.3,5.6,4.5,8.4,6.8
				c0.3,0.3,1,0,0.8-0.5c-0.3-0.9-1-2-1.1-2.9c0,0,0,0.2,0.1-0.2c0.1-0.3,0.2-0.6,0.3-0.8c0.2-0.5,0.4-1,0.6-1.5
				c0.2-0.6-0.7-0.9-1-0.3c-0.3,0.8-1.2,2-1.1,2.9c0.1,1,0.8,2.1,1.1,3c0.3-0.2,0.6-0.3,0.8-0.5c-2.8-2.3-5.6-4.5-8.4-6.8
				c-0.1,0.3-0.2,0.6-0.4,0.9c2.8,0.4,5.6,0.7,8.4,1.1C134.9,71.2,134.9,70.2,134.3,70.1z"/>
		</g>
	</g>
	<g>
		<polygon class="st3" points="126,69.5 134.5,65 130.9,64 129.1,64.9 124.7,66 125.9,69.5 		"/>
		<g>
			<path class="st3" d="M126.2,70c2.8-1.5,5.6-3,8.5-4.5c0.4-0.2,0.3-0.8-0.1-0.9c-1.6-0.5-3.1-1.4-4.7-0.6
				c-1.7,0.9-3.5,1.1-5.3,1.5c-0.3,0.1-0.4,0.4-0.3,0.6c0.4,1.2,0.8,2.4,1.2,3.5c0.1,0.2,0.2,0.3,0.5,0.4c0,0,0,0,0.1,0
				c0.6,0.1,0.6-0.9,0-1c0.7,0.1,0.3,0.5,0.2-0.3c-0.1-0.4-0.3-0.8-0.4-1.1c-0.2-0.6-0.4-1.2-0.6-1.8c-0.1,0.2-0.2,0.4-0.3,0.6
				c1.5-0.4,3.2-0.6,4.7-1.2c0.5-0.2,0.9-0.6,1.4-0.8c0.4-0.1-0.5,0,0,0c0.2,0,0.4,0.1,0.6,0.2c0.9,0.3,1.8,0.5,2.8,0.8
				c0-0.3-0.1-0.6-0.1-0.9c-2.8,1.5-5.6,3-8.5,4.5C125.2,69.4,125.7,70.3,126.2,70z"/>
		</g>
	</g>
	<g>
		<polygon class="st7" points="85.2,84.3 77.2,83.6 76.7,87.1 82.7,86 		"/>
		<g>
			<path class="st7" d="M85.2,83.8c-2.7-0.2-5.3-0.5-8-0.7c-0.2,0-0.5,0.2-0.5,0.4c-0.2,1.2-0.3,2.4-0.5,3.5
				c-0.1,0.4,0.2,0.7,0.6,0.6c1.7-0.3,3.5-0.6,5.2-0.9c1.3-0.2,2.3-1.2,3.4-1.9c0.5-0.4,0-1.2-0.5-0.9c-1.2,0.8-2.1,1.6-3.4,1.9
				c-1.7,0.3-3.3,0.6-5,0.9c0.2,0.2,0.4,0.4,0.6,0.6c0.2-1.2,0.3-2.4,0.5-3.5c-0.2,0.1-0.3,0.2-0.5,0.4c2.7,0.2,5.3,0.5,8,0.7
				C85.8,84.9,85.8,83.9,85.2,83.8z"/>
		</g>
	</g>
	<g>
		<polygon class="st6" points="91.1,80.2 79.4,81.2 77.2,83.6 85.2,84.3 		"/>
		<g>
			<path class="st6" d="M91.1,79.7c-3,0.3-5.9,0.5-8.9,0.8c-0.8,0.1-2.2-0.1-2.9,0.3c-1,0.4-1.7,1.7-2.4,2.5
				c-0.3,0.3-0.1,0.8,0.4,0.9c1.2,0.1,2.5,0.2,3.7,0.4c1.2,0.1,3,0.6,4.2,0.4c0.9-0.2,1.9-1.2,2.6-1.7c1.2-0.8,2.4-1.7,3.6-2.5
				c0.5-0.4,0-1.2-0.5-0.9c-1.1,0.7-2.1,1.5-3.2,2.2c-0.7,0.5-1.3,0.9-2,1.4c-0.3,0.3-0.8,0.5-0.7,0.5c-1.2,0.2-2.9-0.3-4.1-0.4
				c-1.2-0.1-2.5-0.2-3.7-0.4c0.1,0.3,0.2,0.6,0.4,0.9c0.5-0.5,0.9-1,1.4-1.5c0.3-0.3,0.9-0.8,0.5-0.7c1-0.4,2.6-0.2,3.6-0.3
				c2.7-0.2,5.4-0.5,8-0.7C91.8,80.6,91.8,79.6,91.1,79.7z"/>
		</g>
	</g>
	<g>
		<polygon class="st5" points="101.2,73.1 98.5,74 93.1,76.1 86.7,78.4 79.4,81.2 91.1,80.2 		"/>
		<g>
			<path class="st5" d="M101.1,72.7C93.7,75,86.5,78,79.2,80.8c-0.5,0.2-0.5,1,0.1,1c2.1-0.2,4.2-0.4,6.4-0.6c1.7-0.2,4,0.1,5.6-0.6
				c1.7-0.7,3.4-2.4,4.9-3.4c1.8-1.2,3.5-2.4,5.3-3.7c0.5-0.4,0-1.2-0.5-0.9c-1.6,1.1-3.1,2.2-4.7,3.2c-1.7,1.2-3.5,2.9-5.4,3.8
				c0.3-0.1-1.1,0.1-1.5,0.1c-1.3,0.1-2.6,0.2-4,0.4c-2,0.2-4.1,0.4-6.1,0.5c0,0.3,0.1,0.7,0.1,1c7.2-2.8,14.5-5.8,21.9-8.1
				C102,73.4,101.7,72.5,101.1,72.7z"/>
		</g>
	</g>
	<g>
		<polygon class="st3" points="115.4,75.1 105.4,73.1 101.3,73.1 109.1,78.5 		"/>
		<g>
			<path class="st3" d="M115.5,74.7c-2.7-0.5-5.4-1.1-8.1-1.6c-2.1-0.4-4-0.4-6.1-0.4c-0.5,0-0.6,0.7-0.3,0.9
				c2.6,1.8,5.2,3.6,7.8,5.3c0.1,0.1,0.4,0.1,0.5,0c2.1-1.1,4.2-2.2,6.3-3.3c0.6-0.3,0.1-1.2-0.5-0.9c-1.3,0.7-2.5,1.3-3.8,2
				c-0.7,0.4-1.5,0.8-2.2,1.2c-0.4,0.2,0.3,0.4-0.2-0.1c-2.1-2-5-3.4-7.4-5.1c-0.1,0.3-0.2,0.6-0.3,0.9c2.3,0,4.1,0,6.2,0.4
				c2.6,0.5,5.2,1,7.7,1.5C115.9,75.7,116.2,74.8,115.5,74.7z"/>
		</g>
	</g>
	<g>
		<polygon class="st0" points="108.9,78.6 109.1,78.5 101.3,73.1 91.1,80.2 		"/>
		<g>
			<path class="st5" d="M108.9,78.7c0.1,0,0.2-0.1,0.2-0.1c0.1,0,0.1-0.2,0-0.2c-2.6-1.8-5.2-3.6-7.8-5.3c0,0-0.1,0-0.1,0
				c-3.4,2.4-6.8,4.7-10.1,7.1c-0.1,0.1-0.1,0.2,0.1,0.2C97,79.8,102.9,79.3,108.9,78.7c0.1,0,0.1-0.2-0.1-0.2
				c-3.4,0.3-6.9,0.6-10.3,0.9c-2,0.2-4.1,0.4-6.1,0.5c-0.3,0-1,0.2-1.3,0.1c0.3,0.1,0.4,0,0.9-0.4c1.8-1.2,3.6-2.5,5.4-3.7
				c0.8-0.5,2.9-2.7,3.9-2.7c0.7,0,3.3,2.3,4,2.8c0.9,0.6,1.7,1.2,2.6,1.7c0.3,0.2,0.7,0.4,0.9,0.6c0.3,0.3,0.2,0,0,0.1
				C108.7,78.6,108.8,78.8,108.9,78.7z"/>
		</g>
	</g>
	<g>
		<polygon class="st4" points="114.9,83.1 121.7,79.2 121.7,79.2 112.1,80.9 		"/>
		<g>
			<path class="st4" d="M115.1,83.6c1.3-0.8,2.6-1.5,3.9-2.3c0.7-0.4,2.8-1.1,3.1-1.9c0.2-0.4-0.1-0.8-0.6-0.7
				c-3.2,0.6-6.4,1.1-9.7,1.7c-0.4,0.1-0.5,0.6-0.2,0.8c0.9,0.8,1.9,1.5,2.8,2.3c0.5,0.4,1.2-0.3,0.7-0.7c-0.9-0.8-1.9-1.5-2.8-2.3
				c-0.1,0.3-0.1,0.6-0.2,0.8c3.2-0.6,6.4-1.1,9.7-1.7c-0.2-0.2-0.4-0.5-0.6-0.7c0.1-0.3,0.1,0-0.1,0c-0.3,0-0.6,0.3-0.8,0.5
				c-0.8,0.4-1.5,0.9-2.3,1.3c-1.1,0.7-2.3,1.3-3.4,2C114.1,83,114.6,83.9,115.1,83.6z"/>
		</g>
	</g>
	<g>
		<polygon class="st3" points="112.1,80.9 121.7,79.2 122.5,77.4 109.2,78.6 		"/>
		<g>
			<path class="st3" d="M112.2,81.4c2.3-0.4,4.6-0.8,6.9-1.2c0.7-0.1,2.1-0.1,2.7-0.5c0.6-0.4,0.8-1.4,1.1-2c0.1-0.3,0-0.8-0.4-0.8
				c-4.4,0.4-8.9,0.8-13.3,1.2c-0.4,0-0.7,0.6-0.4,0.9c0.9,0.8,1.9,1.5,2.8,2.3c0.5,0.4,1.2-0.3,0.7-0.7c-0.9-0.8-1.9-1.5-2.8-2.3
				c-0.1,0.3-0.2,0.6-0.4,0.9c4.4-0.4,8.9-0.8,13.3-1.2c-0.1-0.3-0.3-0.5-0.4-0.8c-0.2,0.5-0.3,1.1-0.6,1.5
				c-0.3,0.3,0.4-0.1-0.2,0.1c-0.9,0.4-2.3,0.4-3.3,0.6c-2,0.4-4,0.7-6,1.1C111.3,80.5,111.6,81.5,112.2,81.4z"/>
		</g>
	</g>
</g>
<g>
	<g>
		<polygon class="st0" points="23.1,86.7 29.3,88 27,85.2 		"/>
		<g>
			<path class="st0" d="M22.9,87.2c2.1,0.4,4.2,0.8,6.2,1.3c0.5,0.1,0.8-0.4,0.5-0.8c-0.8-0.9-1.6-1.9-2.3-2.8
				c-0.1-0.1-0.3-0.2-0.5-0.1c-1.3,0.5-2.6,1-3.9,1.6c-0.6,0.2-0.3,1.2,0.3,1c1.3-0.5,2.6-1,3.9-1.6c-0.2,0-0.3-0.1-0.5-0.1
				c0.8,0.9,1.6,1.9,2.3,2.8c0.2-0.3,0.3-0.6,0.5-0.8c-2.1-0.4-4.2-0.8-6.2-1.3C22.6,86.1,22.3,87.1,22.9,87.2z"/>
		</g>
	</g>
	<g>
		<polygon class="st1" points="9,94.7 13.5,93.9 10.5,93.7 		"/>
		<g>
			<path class="st1" d="M9.1,95.2c1.5-0.3,3-0.5,4.5-0.8c0.6-0.1,0.4-0.9-0.1-1c-0.9-0.1-1.9-0.3-2.8-0.3c-0.7,0-1.4,0.7-2,1.1
				c-0.5,0.4,0,1.2,0.5,0.9c0.4-0.2,0.7-0.5,1.1-0.7c0.2-0.1,0.3-0.2,0.5-0.3c-0.2,0.1-0.2,0,0.1,0.1c0.9,0.1,1.8,0.2,2.7,0.3
				c0-0.3-0.1-0.7-0.1-1c-1.5,0.3-3,0.5-4.5,0.8C8.2,94.4,8.5,95.3,9.1,95.2z"/>
		</g>
	</g>
	<g>
		<polygon class="st2" points="35.5,89.2 33.9,88.9 33.7,89.3 		"/>
		<g>
			<path class="st2" d="M35.6,88.7c-0.5-0.1-1-0.2-1.6-0.3c-0.2,0-0.5,0-0.6,0.2c-0.1,0.2-0.1,0.3-0.2,0.5c-0.1,0.3,0,0.8,0.4,0.8
				c0.6-0.1,1.2-0.1,1.8-0.2c0.6-0.1,0.6-1.1,0-1c-0.6,0.1-1.2,0.1-1.8,0.2c0.1,0.3,0.3,0.5,0.4,0.8c0.1-0.2,0.1-0.3,0.2-0.5
				c-0.2,0.1-0.4,0.2-0.6,0.2c0.5,0.1,1,0.2,1.6,0.3C36,89.8,36.2,88.8,35.6,88.7z"/>
		</g>
	</g>
	<g>
		<polygon class="st3" points="15.6,100.5 13.7,104.7 17.1,102 20,98.1 		"/>
		<g>
			<path class="st3" d="M15.2,100.3c-0.6,1.4-1.3,2.8-1.9,4.1c-0.2,0.5,0.3,1,0.8,0.6c1.1-0.9,2.5-1.7,3.4-2.8
				c1.1-1.2,2-2.6,2.9-3.9c0.3-0.4-0.3-0.9-0.7-0.7c-1.5,0.8-2.9,1.6-4.4,2.5c-0.6,0.3-0.1,1.2,0.5,0.9c1.5-0.8,2.9-1.6,4.4-2.5
				c-0.2-0.2-0.5-0.5-0.7-0.7c-0.9,1.3-1.8,2.7-2.9,3.9c-0.1,0.2-1.1,0.8-1.4,1.1c-0.6,0.5-1.2,1-1.9,1.5c0.3,0.2,0.5,0.4,0.8,0.6
				c0.6-1.4,1.3-2.8,1.9-4.1C16.3,100.2,15.5,99.7,15.2,100.3z"/>
		</g>
	</g>
	<g>
		<polygon class="st0" points="17.1,102 19.3,101.8 20.5,103.7 21.2,101.8 20,98.1 		"/>
		<g>
			<path class="st0" d="M17.1,102.5c0.7-0.1,1.5-0.1,2.2-0.2c-0.1-0.1-0.3-0.2-0.4-0.2c0.4,0.6,0.8,1.3,1.2,1.9
				c0.2,0.4,0.8,0.3,0.9-0.1c0.3-0.8,0.8-1.7,0.6-2.6c-0.3-1.1-0.7-2.2-1.1-3.3c-0.1-0.4-0.7-0.5-0.9-0.1c-1,1.3-2,2.6-2.9,4
				c-0.4,0.5,0.5,1,0.9,0.5c1-1.3,2-2.6,2.9-4c-0.3,0-0.6-0.1-0.9-0.1c0.3,1,0.7,2.1,1,3.1c0.1,0.2,0.1,0.3,0.2,0.5
				c0-0.2,0-0.2-0.1,0.2c-0.2,0.5-0.4,1-0.6,1.5c0.3,0,0.6-0.1,0.9-0.1c-0.4-0.6-0.8-1.3-1.2-1.9c-0.1-0.1-0.3-0.3-0.4-0.2
				c-0.7,0.1-1.5,0.1-2.2,0.2C16.4,101.6,16.4,102.6,17.1,102.5z"/>
		</g>
	</g>
	<g>
		<polygon class="st4" points="25.4,90.1 25.4,90 25.4,90 25.2,90.1 20.2,92.7 27.2,91.5 		"/>
		<g>
			<path class="st4" d="M25.8,89.7c-0.1,0-0.1-0.1-0.2-0.1c-0.1-0.1-0.4-0.1-0.5,0c-1.7,0.9-3.4,1.8-5.1,2.7c-0.5,0.3-0.1,1,0.4,0.9
				c2.3-0.4,4.7-0.8,7-1.2c0.4-0.1,0.5-0.6,0.2-0.8C27,90.7,26.4,90.2,25.8,89.7c-0.5-0.4-1.2,0.3-0.7,0.7c0.6,0.5,1.2,1,1.8,1.4
				c0.1-0.3,0.1-0.6,0.2-0.8c-2.3,0.4-4.7,0.8-7,1.2c0.1,0.3,0.3,0.6,0.4,0.9c0.9-0.5,1.8-1,2.7-1.4c0.6-0.3,1.1-0.6,1.7-0.9
				c0.1-0.1,0.4-0.1,0.5-0.3c0.2-0.3,0.4,0.4-0.3-0.1C25.6,90.8,26.3,90.1,25.8,89.7z"/>
		</g>
	</g>
	<g>
		<polygon class="st3" points="25.2,90.1 14.2,91.1 10.5,93.7 13.5,93.9 20.2,92.7 		"/>
		<g>
			<path class="st3" d="M25.2,89.6c-3,0.3-6.1,0.5-9.1,0.8c-0.7,0.1-1.6,0-2.2,0.3c-1.3,0.5-2.5,1.7-3.6,2.5
				c-0.4,0.3-0.2,0.9,0.3,0.9c3,0.3,5.3-0.1,8.3-0.7c2.4-0.4,4.5-1.8,6.7-3c0.6-0.3,0.1-1.2-0.5-0.9c-2.1,1.1-4.1,2.5-6.4,2.9
				c-2.9,0.5-5.2,0.9-8.1,0.6c0.1,0.3,0.2,0.6,0.3,0.9c1.1-0.8,2.3-1.8,3.5-2.4c0.2-0.1-0.1,0,0.5-0.1c0.6-0.1,1.3-0.1,2-0.2
				c2.8-0.3,5.7-0.5,8.5-0.8C25.9,90.5,25.9,89.5,25.2,89.6z"/>
		</g>
	</g>
	<g>
		<polygon class="st2" points="45,85.3 45.3,84.4 44.3,84.6 		"/>
		<g>
			<path class="st2" d="M45.5,85.4c0.1-0.3,0.2-0.6,0.3-0.9c0.1-0.4-0.3-0.7-0.6-0.6c-0.3,0.1-0.6,0.1-1,0.2
				c-0.4,0.1-0.5,0.6-0.2,0.8c0.2,0.2,0.5,0.5,0.7,0.7c0.5,0.5,1.2-0.3,0.7-0.7c-0.2-0.2-0.5-0.5-0.7-0.7c-0.1,0.3-0.1,0.6-0.2,0.8
				c0.3-0.1,0.6-0.1,1-0.2c-0.2-0.2-0.4-0.4-0.6-0.6c-0.1,0.3-0.2,0.6-0.3,0.9C44.4,85.7,45.3,86,45.5,85.4z"/>
		</g>
	</g>
	<g>
		<polygon class="st5" points="20.2,92.7 17.3,94.3 25.3,95 29,92.9 27.2,91.5 		"/>
		<g>
			<path class="st5" d="M20,92.3c-1,0.5-1.9,1-2.9,1.5c-0.5,0.3-0.2,0.9,0.3,0.9c2.4,0.2,4.8,0.6,7.2,0.7c1.7,0.1,3.2-1.3,4.7-2.1
				c0.3-0.1,0.4-0.6,0.1-0.8c-1.3-1.1-1.6-1.6-3.2-1.4c-2,0.4-4,0.7-6,1.1c-0.6,0.1-0.4,1.1,0.3,1c1.7-0.3,3.4-0.6,5-0.9
				c0.5-0.1,1.4-0.4,1.9-0.3c-0.8-0.1,0.2,0.4,0.4,0.6c0.3,0.2,0.6,0.5,0.9,0.7c0-0.3,0.1-0.5,0.1-0.8c-1.8,1.1-2.9,2.1-4.7,1.9
				c-2.2-0.2-4.5-0.4-6.7-0.6c0.1,0.3,0.2,0.6,0.3,0.9c1-0.5,1.9-1,2.9-1.5C21.1,92.9,20.5,92,20,92.3z"/>
		</g>
	</g>
	<g>
		<polygon class="st6" points="25.4,90 25.4,90 25.4,90.1 33.7,89.3 33.9,88.9 29.3,87.9 		"/>
		<g>
			<path class="st6" d="M25.1,90.5c0.7,0.5,2.9-0.1,3.8-0.2c1.6-0.1,3.2-0.3,4.8-0.4c0.2,0,0.4-0.1,0.4-0.2c0.1-0.2,0.1-0.3,0.2-0.5
				c0.1-0.3,0.1-0.7-0.3-0.7c-0.8-0.2-1.7-0.3-2.5-0.5c-0.7-0.1-1.6-0.5-2.3-0.4c-0.6,0.1-1.4,0.7-1.9,1c-0.8,0.4-1.5,0.8-2.3,1.2
				c-0.6,0.3-0.1,1.2,0.5,0.9c0.7-0.3,1.3-0.7,2-1c0.4-0.2,0.9-0.5,1.3-0.7c0.3-0.2,0.9-0.3,0.3-0.3c1.4-0.1,3.2,0.6,4.6,0.9
				c-0.1-0.2-0.2-0.5-0.3-0.7c-0.2,0.5,0.2,0.2,0.1,0.2c-0.3,0.1-0.6,0.1-0.8,0.1c-1,0.1-2.1,0.2-3.1,0.3c-1,0.1-2,0.2-3,0.3
				c-0.3,0-0.6,0.1-0.9,0.1c-0.4,0,0.2,0.2,0,0C25.1,89.2,24.6,90.1,25.1,90.5z"/>
		</g>
	</g>
	<g>
		<polygon class="st3" points="42.8,88.3 41.9,88.9 43,89.3 		"/>
		<g>
			<path class="st3" d="M42.6,87.8c-0.3,0.2-0.6,0.4-0.9,0.6c-0.4,0.3-0.3,0.8,0.1,0.9c0.4,0.1,0.7,0.3,1.1,0.4
				c0.4,0.2,0.7-0.3,0.6-0.6c-0.1-0.4-0.1-0.7-0.2-1.1c-0.1-0.6-1.1-0.4-1,0.3c0.1,0.4,0.1,0.7,0.2,1.1c0.2-0.2,0.4-0.4,0.6-0.6
				c-0.4-0.1-0.7-0.3-1.1-0.4c0,0.3,0.1,0.6,0.1,0.9c0.3-0.2,0.6-0.4,0.9-0.6C43.6,88.3,43.1,87.5,42.6,87.8z"/>
		</g>
	</g>
	<g>
		<polygon class="st0" points="41.7,88 41,88.7 41.9,88.9 		"/>
		<g>
			<path class="st0" d="M41.4,87.6c-0.2,0.2-0.5,0.5-0.7,0.7c-0.3,0.3-0.1,0.7,0.2,0.8c0.3,0.1,0.6,0.1,0.9,0.2
				c0.4,0.1,0.7-0.2,0.6-0.6c-0.1-0.3-0.1-0.6-0.2-0.9c-0.1-0.6-1.1-0.4-1,0.3c0.1,0.3,0.1,0.6,0.2,0.9c0.2-0.2,0.4-0.4,0.6-0.6
				c-0.3-0.1-0.6-0.1-0.9-0.2c0.1,0.3,0.1,0.6,0.2,0.8c0.2-0.2,0.5-0.5,0.7-0.7C42.5,87.9,41.8,87.2,41.4,87.6z"/>
		</g>
	</g>
	<g>
		<polygon class="st3" points="42.1,86 43.1,84.9 41,85.2 		"/>
		<g>
			<path class="st3" d="M42.4,86.3c0.3-0.4,0.6-0.7,1-1.1c0.3-0.3,0.1-0.9-0.4-0.9c-0.7,0.1-1.4,0.2-2,0.3c-0.5,0.1-0.7,0.6-0.3,0.9
				c0.4,0.3,0.7,0.5,1.1,0.8c0.5,0.4,1-0.5,0.5-0.9c-0.4-0.3-0.7-0.5-1.1-0.8c-0.1,0.3-0.2,0.6-0.3,0.9c0.7-0.1,1.4-0.2,2-0.3
				c-0.1-0.3-0.2-0.6-0.4-0.9c-0.3,0.4-0.6,0.7-1,1.1C41.3,86.1,42,86.8,42.4,86.3z"/>
		</g>
	</g>
	<g>
		<polygon class="st6" points="43.7,88.8 43,89.3 44.1,90.1 		"/>
		<g>
			<path class="st6" d="M43.5,88.4c-0.2,0.2-0.5,0.4-0.7,0.5c-0.3,0.2-0.3,0.6,0,0.9c0.4,0.3,0.7,0.5,1.1,0.8
				c0.4,0.3,0.8-0.2,0.7-0.6c-0.1-0.4-0.3-0.9-0.4-1.3c-0.2-0.6-1.1-0.4-1,0.3c0.1,0.4,0.3,0.9,0.4,1.3c0.2-0.2,0.5-0.4,0.7-0.6
				c-0.4-0.3-0.7-0.5-1.1-0.8c0,0.3,0,0.6,0,0.9c0.2-0.2,0.5-0.4,0.7-0.5C44.5,88.8,44,88,43.5,88.4z"/>
		</g>
	</g>
	<g>
		<polygon class="st0" points="15,107.6 16.5,104.7 17.1,102 13.7,104.7 		"/>
		<g>
			<path class="st0" d="M15.5,107.9c0.5-0.9,1.1-1.9,1.4-2.9c0.3-0.9,0.4-1.9,0.6-2.8c0.1-0.5-0.5-0.8-0.8-0.5
				c-1.1,0.9-2.2,1.8-3.3,2.6c-0.2,0.1-0.2,0.4-0.1,0.6c0.4,1,0.9,2,1.3,2.9c0.3,0.6,1.1,0.1,0.9-0.5c-0.4-1-0.9-2-1.3-2.9
				c0,0.2-0.1,0.4-0.1,0.6c1.1-0.9,2.2-1.8,3.3-2.6c-0.3-0.2-0.6-0.3-0.8-0.5c-0.1,0.5-0.2,1-0.3,1.4c-0.1,0.3-0.1,0.6-0.2,0.9
				c0,0.2-0.1,0.3-0.1,0.3c-0.4,1-0.9,1.9-1.4,2.8C14.3,107.9,15.2,108.4,15.5,107.9z"/>
		</g>
	</g>
	<g>
		<polygon class="st6" points="43.9,85.5 44.3,84.6 43.1,84.9 		"/>
		<g>
			<path class="st6" d="M44.4,85.8c0.1-0.3,0.3-0.6,0.4-1c0.2-0.4-0.1-0.8-0.6-0.7c-0.4,0.1-0.9,0.2-1.3,0.3
				c-0.5,0.1-0.4,0.7-0.1,0.9c0.3,0.2,0.6,0.4,0.9,0.6c0.5,0.4,1-0.5,0.5-0.9c-0.3-0.2-0.6-0.4-0.9-0.6c0,0.3-0.1,0.6-0.1,0.9
				c0.4-0.1,0.9-0.2,1.3-0.3c-0.2-0.2-0.4-0.5-0.6-0.7c-0.1,0.3-0.3,0.6-0.4,1C43.2,85.9,44.1,86.4,44.4,85.8z"/>
		</g>
	</g>
	<g>
		<polygon class="st3" points="16.8,107.6 18,107.6 17.8,107.1 16.7,106.2 16.5,104.7 15,107.6 		"/>
		<g>
			<path class="st3" d="M16.8,108.1c0.4,0,0.8,0,1.2,0c0.3,0,0.6-0.3,0.5-0.6c-0.1-0.3-0.1-0.5-0.3-0.7c-0.2-0.2-0.6-0.5-0.9-0.7
				c0,0-0.1-0.1-0.1-0.1c0.1,0,0.1,0.3,0.1,0.1c0-0.1-0.1-0.4-0.1-0.5c-0.1-0.3-0.1-0.6-0.2-1c-0.1-0.4-0.7-0.5-0.9-0.1
				c-0.5,1-1,1.9-1.4,2.9c-0.2,0.3,0,0.8,0.4,0.8C15.6,108.1,16.2,108.1,16.8,108.1c0.6,0,0.6-1,0-1c-0.6,0-1.2,0-1.8,0.1
				c0.1,0.3,0.3,0.5,0.4,0.8c0.5-1,1-1.9,1.4-2.9c-0.3,0-0.6-0.1-0.9-0.1c0.1,0.5,0.1,1.3,0.4,1.7c0.2,0.2,0.5,0.4,0.8,0.6
				c0,0,0.1,0.1,0.2,0.2c0.2,0.1-0.1,0.1,0-0.1c0,0.1,0.1,0.3,0.2,0.5c0.2-0.2,0.3-0.4,0.5-0.6c-0.4,0-0.8,0-1.2,0
				C16.2,107.1,16.2,108.1,16.8,108.1z"/>
		</g>
	</g>
	<g>
		<polygon class="st2" points="18.6,103.1 19.6,106.5 19.3,108.4 21.6,106.4 20.5,103.7 19.3,101.8 		"/>
		<g>
			<path class="st2" d="M18.1,103.2c0.3,0.9,0.6,1.9,0.8,2.8c0,0.2,0.1,0.3,0.1,0.5c0,0,0.1-0.3,0,0.2c-0.1,0.5-0.2,1-0.3,1.5
				c-0.1,0.5,0.5,0.8,0.8,0.5c0.8-0.6,1.5-1.3,2.3-1.9c0.1-0.1,0.2-0.3,0.1-0.5c-0.7-1.7-1.3-3.2-2.4-4.7c-0.2-0.3-0.7-0.4-0.9,0
				c-0.2,0.4-0.4,0.9-0.6,1.3c-0.3,0.6,0.6,1.1,0.9,0.5c0.2-0.4,0.4-0.9,0.6-1.3c-0.3,0-0.6,0-0.9,0c0.9,1.4,1.4,2.2,1.9,3.7
				c0.1,0.2,0.2,1,0.4,0.5c0.1-0.4-0.3,0.1-0.5,0.3c-0.6,0.5-1.1,1-1.7,1.4c0.3,0.2,0.6,0.3,0.8,0.5c0.2-0.8,0.5-1.6,0.3-2.4
				c-0.3-1-0.6-2.1-0.9-3.1C18.9,102.4,18,102.6,18.1,103.2z"/>
		</g>
	</g>
	<g>
		<polygon class="st1" points="34.5,96.4 34.5,97.1 35.2,96.8 34,95.9 32.2,94.8 32.4,96.1 		"/>
		<g>
			<path class="st1" d="M34,96.4c0,0.2,0,0.5,0,0.7c0,0.4,0.4,0.6,0.8,0.4c0.3-0.1,0.5-0.2,0.8-0.3c0.4-0.2,0.3-0.7,0-0.9
				c-1-0.7-2-1.3-3.1-2c-0.4-0.2-0.8,0.1-0.7,0.6c0.1,0.4,0.1,0.9,0.2,1.3c0,0.2,0.2,0.3,0.3,0.3c0.7,0.1,1.4,0.2,2.1,0.3
				c0.6,0.1,0.9-0.9,0.3-1c-0.7-0.1-1.4-0.2-2.1-0.3c0.1,0.1,0.2,0.2,0.3,0.3c-0.1-0.4-0.1-0.9-0.2-1.3c-0.2,0.2-0.5,0.4-0.7,0.6
				c1.1,0.6,2.1,1.2,3.1,2c0-0.3,0-0.6,0-0.9c-0.3,0.1-0.5,0.2-0.8,0.3c0.3,0.1,0.5,0.3,0.8,0.4c0-0.2,0-0.5,0-0.7
				C35,95.8,34,95.8,34,96.4z"/>
		</g>
	</g>
	<g>
		<polygon class="st5" points="35.1,95.9 34,95.9 35.2,96.8 		"/>
		<g>
			<path class="st5" d="M35.1,95.4c-0.4,0-0.8,0-1.1,0c-0.5,0-0.6,0.7-0.3,0.9c0.4,0.3,0.8,0.6,1.2,0.9c0.3,0.2,0.8-0.1,0.8-0.4
				c0-0.3-0.1-0.6-0.1-0.9c-0.1-0.6-1.1-0.6-1,0c0,0.3,0.1,0.6,0.1,0.9c0.3-0.1,0.5-0.3,0.8-0.4c-0.4-0.3-0.8-0.6-1.2-0.9
				c-0.1,0.3-0.2,0.6-0.3,0.9c0.4,0,0.8,0,1.1,0C35.8,96.4,35.8,95.4,35.1,95.4z"/>
		</g>
	</g>
	<g>
		<polygon class="st3" points="20.9,109 21.2,108.4 23.6,108.7 24.3,109 24.2,108.4 25.3,108.4 25,107.8 23.6,107.2 21.6,106.4
			19.3,108.4 		"/>
		<g>
			<path class="st3" d="M21.4,109.3c0.1-0.2,0.2-0.4,0.3-0.6c-0.1,0.1-0.3,0.2-0.4,0.2c0.5,0.1,1.1,0.1,1.6,0.2
				c0.8,0.1,0.5,0,1.2,0.3c0.3,0.1,0.8,0,0.8-0.4c0-0.2,0-0.4-0.1-0.6c-0.2,0.2-0.3,0.3-0.5,0.5c0.4,0,0.8,0,1.1,0
				c0.4,0,0.6-0.4,0.4-0.8c-0.5-0.8-1-1-1.9-1.3c-0.7-0.3-1.5-0.6-2.2-0.9c-0.2-0.1-0.4,0-0.5,0.1c-0.8,0.6-1.5,1.3-2.3,1.9
				c-0.3,0.3-0.1,0.7,0.2,0.8c0.6,0.2,1.1,0.4,1.7,0.6c0.6,0.2,0.9-0.7,0.3-1c-0.6-0.2-1.1-0.4-1.7-0.6c0.1,0.3,0.1,0.6,0.2,0.8
				c0.8-0.6,1.5-1.3,2.3-1.9c-0.2,0-0.3,0.1-0.5,0.1c0.6,0.3,1.4,0.6,2,0.8c0.2,0.1,0.7,0.3,1,0.4c0.1,0.1,0.3,0.2,0.2,0
				c0.1,0.1,0.2,0.4,0.3,0.5c0.1-0.3,0.3-0.5,0.4-0.8c-0.4,0-0.8,0-1.1,0c-0.3,0-0.5,0.2-0.5,0.5c0,0.2,0,0.4,0.1,0.6
				c0.3-0.1,0.5-0.3,0.8-0.4c-1.1-0.5-2.1-0.5-3.3-0.7c-0.2,0-0.4,0.1-0.4,0.2c-0.1,0.2-0.2,0.4-0.3,0.6
				C20.2,109.3,21.1,109.8,21.4,109.3z"/>
		</g>
	</g>
	<g>
		<polygon class="st2" points="13.5,93.9 9,94.7 8.5,95 15.2,95.4 17.3,94.3 20.2,92.7 		"/>
		<g>
			<path class="st2" d="M13.3,93.5c-1.6,0.3-3.7,0.2-5.1,1.1c-0.4,0.3-0.3,0.9,0.3,0.9c1.1,0.1,2.2,0.1,3.3,0.2
				c1,0.1,2.3,0.4,3.3,0.2c1.7-0.3,3.7-1.9,5.3-2.7c0.5-0.3,0.1-1-0.4-0.9C17.8,92.7,15.6,93.1,13.3,93.5c-0.6,0.1-0.4,1.1,0.3,1
				c2.2-0.4,4.5-0.8,6.7-1.2c-0.1-0.3-0.3-0.6-0.4-0.9c-1.3,0.7-3.8,2.4-4.9,2.6c-2,0.3-4.5-0.3-6.5-0.4c0.1,0.3,0.2,0.6,0.3,0.9
				c1.2-0.8,3.4-0.8,4.8-1C14.2,94.3,14,93.3,13.3,93.5z"/>
		</g>
	</g>
	<g>
		<polygon class="st6" points="31.3,94.8 32.4,96.1 32.2,94.8 33.1,92.4 37.8,89.6 33.2,90.4 		"/>
		<g>
			<path class="st6" d="M31,95.2c0.4,0.4,0.7,0.9,1.1,1.3c0.4,0.4,0.9-0.1,0.8-0.5c-0.1-0.4-0.2-0.9-0.2-1.2c0,0.4,0.3-0.5,0.3-0.6
				c0.2-0.5,0.4-1,0.6-1.4c0.1-0.3-0.2,0.2-0.1,0.2c0.1-0.1,0.2-0.1,0.3-0.2c1.5-0.7,2.9-1.7,4.4-2.6c0.5-0.3,0.2-1-0.4-0.9
				c-0.9,0.2-1.8,0.3-2.7,0.5c-0.6,0.1-1.7,0.1-2.1,0.5c-0.5,0.4-0.7,1.5-0.9,2.1c-0.4,0.8-0.7,1.6-1.1,2.4
				c-0.3,0.6,0.6,1.1,0.9,0.5c0.6-1.4,1.2-3,1.9-4.4c-0.2,0.4-0.4,0.2-0.1,0.2c0.2,0,0.4-0.1,0.5-0.1c0.5-0.1,1-0.2,1.5-0.3
				c0.8-0.1,1.6-0.3,2.4-0.4c-0.1-0.3-0.3-0.6-0.4-0.9c-0.7,0.4-1.4,0.8-2.1,1.3c-0.8,0.5-1.9,0.9-2.5,1.5c-0.5,0.5-0.7,1.4-1,2.1
				c-0.3,0.8-0.2,1.3,0,2.2c0.3-0.2,0.6-0.3,0.8-0.5c-0.4-0.4-0.7-0.9-1.1-1.3C31.2,94,30.5,94.7,31,95.2z"/>
		</g>
	</g>
	<g>
		<polygon class="st2" points="25.3,95 29,95.4 29,95.4 30.3,95.1 31.3,94.9 29,92.9 		"/>
		<g>
			<path class="st2" d="M25.3,95.5c1.2,0.1,2.4,0.3,3.5,0.3c0.9,0,1.8-0.3,2.7-0.5c0.3-0.1,0.5-0.6,0.2-0.8
				c-0.8-0.6-1.6-1.3-2.4-1.9c-0.2-0.1-0.4-0.2-0.6-0.1c-1.2,0.7-2.4,1.4-3.7,2.1c-0.6,0.3-0.1,1.2,0.5,0.9c1.2-0.7,2.4-1.4,3.7-2.1
				c-0.2,0-0.4-0.1-0.6-0.1c0.8,0.6,1.6,1.3,2.4,1.9c0.1-0.3,0.1-0.6,0.2-0.8c-0.8,0.2-1.8,0.5-2.5,0.5c-1.1-0.1-2.3-0.2-3.4-0.3
				C24.6,94.5,24.6,95.5,25.3,95.5z"/>
		</g>
	</g>
	<g>
		<polygon class="st7" points="29,92.9 31.3,94.9 33.2,90.5 		"/>
		<g>
			<path class="st7" d="M28.6,93.3c0.8,0.6,1.6,1.3,2.4,1.9c0.2,0.2,0.6,0.2,0.8-0.1c0.6-1.5,1.3-2.9,1.9-4.4c0.2-0.4-0.2-1-0.7-0.7
				c-1.4,0.8-2.8,1.6-4.3,2.5c-0.6,0.3-0.1,1.2,0.5,0.9c1.4-0.8,2.8-1.6,4.3-2.5c-0.2-0.2-0.5-0.5-0.7-0.7c-0.6,1.5-1.3,2.9-1.9,4.4
				c0.3,0,0.5-0.1,0.8-0.1c-0.8-0.6-1.6-1.3-2.4-1.9C28.8,92.2,28.1,92.9,28.6,93.3z"/>
		</g>
	</g>
	<g>
		<polygon class="st1" points="33.9,88.9 35.8,84.5 29.3,87.9 		"/>
		<g>
			<path class="st1" d="M34.3,89.1c0.6-1.5,1.3-2.9,1.9-4.4c0.2-0.4-0.2-0.9-0.7-0.7c-2.2,1.2-4.4,2.3-6.5,3.5
				c-0.4,0.2-0.3,0.8,0.1,0.9c1.5,0.3,3.1,0.6,4.6,0.9c0.6,0.1,0.9-0.8,0.3-1c-1.5-0.3-3.1-0.6-4.6-0.9c0,0.3,0.1,0.6,0.1,0.9
				c2.2-1.2,4.4-2.3,6.5-3.5c-0.2-0.2-0.5-0.5-0.7-0.7c-0.6,1.5-1.3,2.9-1.9,4.4C33.2,89.2,34.1,89.7,34.3,89.1z"/>
		</g>
	</g>
	<g>
		<polygon class="st7" points="18.1,96.5 20,98.1 22,96.9 		"/>
		<g>
			<path class="st7" d="M17.8,96.8c0.6,0.5,1.3,1.1,1.9,1.6c0.2,0.1,0.4,0.2,0.6,0.1c0.6-0.4,1.3-0.7,1.9-1.1
				c0.5-0.3,0.2-0.9-0.3-0.9c-1.3-0.2-2.5-0.3-3.8-0.5c-0.6-0.1-0.6,0.9,0,1c1.3,0.2,2.5,0.3,3.8,0.5c-0.1-0.3-0.2-0.6-0.3-0.9
				c-0.6,0.4-1.3,0.7-1.9,1.1c0.2,0,0.4,0.1,0.6,0.1c-0.6-0.5-1.3-1.1-1.9-1.6C18,95.7,17.3,96.4,17.8,96.8z"/>
		</g>
	</g>
	<g>
		<polygon class="st5" points="20,98.1 21.2,101.8 23,100.6 23.3,99 24.4,97.3 22,96.9 		"/>
		<g>
			<path class="st5" d="M19.5,98.2c0.4,1.2,0.8,2.5,1.2,3.7c0.1,0.3,0.5,0.5,0.7,0.3c0.8-0.5,1.9-0.9,2.1-1.9c0.1-0.6,0.1-1,0.4-1.3
				c0.3-0.5,0.6-1,0.9-1.5c0.2-0.4-0.1-0.7-0.4-0.8c-0.8-0.1-1.7-0.4-2.4-0.3c-0.7,0.1-1.6,0.8-2.2,1.2c-0.6,0.3-0.1,1.2,0.5,0.9
				c0.3-0.2,0.6-0.4,1-0.6c0.2-0.1,0.5-0.3,0.7-0.4c0.2-0.2,0.3,0,0-0.1c0.8,0.1,1.6,0.2,2.4,0.3c-0.1-0.3-0.3-0.5-0.4-0.8
				c-0.5,0.8-1.1,1.5-1.3,2.5c0,0.1-0.2,0.7-0.2,0.9c0.1,0.1,0.2-0.1,0.1-0.2c0,0-0.3,0.2-0.3,0.2c-0.5,0.3-0.9,0.6-1.4,0.9
				c0.2,0.1,0.5,0.2,0.7,0.3c-0.4-1.2-0.8-2.5-1.2-3.7C20.3,97.3,19.3,97.6,19.5,98.2z"/>
		</g>
	</g>
	<g>
		<polygon class="st1" points="44.5,81.8 41.1,81.7 35.9,84.5 41,85.2 43.1,84.9 44.3,84.6 45.3,84.4 45.5,83.7 		"/>
		<g>
			<path class="st1" d="M44.5,81.3c-1.3,0-2.8-0.4-4,0.2c-1.7,0.7-3.3,1.7-4.9,2.6c-0.5,0.3-0.2,0.9,0.3,0.9
				c1.7,0.2,3.4,0.7,5.1,0.7c1.5,0,3-0.5,4.4-0.8c0.2,0,0.3-0.2,0.3-0.3c0.4-1.3-0.2-1.9-0.8-3c-0.3-0.6-1.2-0.1-0.9,0.5
				c0.2,0.5,0.6,0.9,0.8,1.4c0,0.1,0.3,0.7,0.2,0.2c0.1,0.4-0.5,0.6,0,0.3c-0.8,0.4-2.3,0.5-3.2,0.6c-2,0.3-4-0.3-6-0.6
				c0.1,0.3,0.2,0.6,0.3,0.9c1.5-0.8,3.1-1.6,4.6-2.4c0.8-0.4,0.4-0.3,1.3-0.3c0.8,0,1.7,0.1,2.5,0.1C45.2,82.3,45.2,81.3,44.5,81.3
				z"/>
		</g>
	</g>
	<g>
		<polygon class="st1" points="25.3,95 17.3,94.3 15.2,95.4 18.1,96.5 22,96.9 		"/>
		<g>
			<path class="st1" d="M25.3,94.5c-2-0.2-4.1-0.4-6.1-0.6c-0.6-0.1-1.4-0.3-2-0.2c-0.8,0.1-1.6,0.8-2.2,1.2
				c-0.4,0.2-0.3,0.8,0.1,0.9c2,0.7,3.6,1.2,5.7,1.4c1.9,0.2,3.1-0.9,4.7-1.8c0.6-0.3,0.1-1.2-0.5-0.9c-0.8,0.5-1.6,0.9-2.5,1.4
				c-1,0.5-0.7,0.4-2,0.3c-2-0.3-3.4-0.7-5.2-1.4c0,0.3,0.1,0.6,0.1,0.9c0.4-0.2,0.8-0.4,1.2-0.6c0.2-0.1,0.9-0.4,0.7-0.4
				c0.7-0.1,1.7,0.2,2.4,0.2c1.8,0.2,3.7,0.3,5.5,0.5C25.9,95.6,25.9,94.6,25.3,94.5z"/>
		</g>
	</g>
	<g>
		<polygon class="st0" points="33.7,89.3 33.2,90.5 37.8,89.7 35.5,89.2 		"/>
		<g>
			<path class="st0" d="M33.3,89.1c-0.2,0.4-0.3,0.7-0.5,1.1c-0.2,0.4,0.1,0.8,0.6,0.7c1.5-0.3,3.1-0.5,4.6-0.8c0.5-0.1,0.5-0.9,0-1
				c-0.8-0.2-1.5-0.4-2.3-0.5c-0.6-0.1-1.3,0.1-2,0.1c-0.6,0.1-0.6,1.1,0,1c0.4,0,0.7-0.1,1.1-0.1c0.2,0,0.4,0,0.6-0.1
				c0.2,0-0.1,0,0.1,0c0.7,0.1,1.5,0.3,2.2,0.4c0-0.3,0-0.6,0-1c-1.5,0.3-3.1,0.5-4.6,0.8c0.2,0.2,0.4,0.5,0.6,0.7
				c0.2-0.4,0.3-0.7,0.5-1.1C34.4,89,33.5,88.5,33.3,89.1z"/>
		</g>
	</g>
	<g>
		<polygon class="st4" points="37.8,89.7 42.6,91.3 43.9,90.5 44.1,90.1 43,89.3 41.9,88.9 41,88.7 35.5,89.2 		"/>
		<g>
			<path class="st4" d="M37.7,90.1c1.4,0.5,2.9,1.1,4.3,1.5c1,0.3,2.1-0.3,2.5-1.2c0.1-0.3,0.1-0.5-0.2-0.7
				c-1.1-0.8-2.2-1.5-3.5-1.5c-1.8,0-3.6,0.3-5.3,0.5c-0.5,0-0.7,0.9-0.1,1C36.1,89.8,36.9,90,37.7,90.1c0.6,0.1,0.9-0.8,0.3-1
				c-0.8-0.2-1.6-0.3-2.3-0.5c0,0.3-0.1,0.7-0.1,1c1.7-0.1,3.3-0.4,5-0.4c1.3-0.1,2.3,0.5,3.4,1.3c-0.1-0.2-0.1-0.5-0.2-0.7
				c-0.1,0.3-0.2,0.3-0.5,0.5c-0.2,0.2-1.1,0.4-0.4,0.4c-0.4,0-1-0.3-1.3-0.5c-1.2-0.4-2.3-0.8-3.5-1.2C37.3,89,37.1,89.9,37.7,90.1
				z"/>
		</g>
	</g>
	<g>
		<polygon class="st4" points="22,96.9 24.4,97.3 29,95.4 25.3,95 		"/>
		<g>
			<path class="st4" d="M22,97.4c1.1,0.1,2.1,0.5,3.2,0.1c1.3-0.5,2.7-1.1,4-1.6c0.5-0.2,0.5-0.9-0.1-1c-1.1-0.1-2.8-0.6-3.9-0.3
				c-1.1,0.3-2.4,1.3-3.4,1.9c-0.6,0.3-0.1,1.2,0.5,0.9c1-0.6,2.2-1.6,3.3-1.9c-0.4,0.1,0.2,0.1,0.3,0.1c0.4,0,0.8,0.1,1.1,0.1
				c0.7,0.1,1.3,0.1,2,0.2c0-0.3-0.1-0.7-0.1-1c-1.3,0.5-2.5,1-3.8,1.6c-1,0.4-1.8,0.1-3.1,0C21.3,96.4,21.3,97.4,22,97.4z"/>
		</g>
	</g>
	<g>
		<polygon class="st7" points="32.5,85.2 30.5,85.9 27,85.2 29.3,87.9 		"/>
		<g>
			<path class="st7" d="M32.4,84.7c-0.5,0.2-1,0.4-1.5,0.6c-0.1,0-0.7,0.2-0.4,0.2c0.2,0-0.2-0.1-0.3-0.1c-1-0.2-2-0.4-3-0.7
				c-0.5-0.1-0.8,0.5-0.5,0.8c0.8,0.9,1.5,1.9,2.3,2.8c0.2,0.2,0.5,0.2,0.7,0c1.1-0.9,2.1-1.9,3.2-2.8c0.5-0.4-0.2-1.1-0.7-0.7
				c-1.1,0.9-2.1,1.9-3.2,2.8c0.2,0,0.5,0,0.7,0c-0.8-0.9-1.5-1.9-2.3-2.8c-0.2,0.3-0.3,0.6-0.5,0.8c1.1,0.2,2.2,0.5,3.2,0.7
				c0.9,0.1,1.7-0.4,2.5-0.7C33.2,85.4,33,84.4,32.4,84.7z"/>
		</g>
	</g>
	<g>
		<polygon class="st5" points="35.1,82.3 32.5,85.2 29.2,88 35.8,84.5 35.8,84.5 		"/>
		<g>
			<path class="st5" d="M34.7,81.9c-0.9,1-1.7,2-2.6,2.9c-1,1-2.2,1.9-3.3,2.8c-0.4,0.4,0.1,1,0.6,0.8c1.8-1,3.7-1.9,5.5-2.9
				c0.4-0.2,1.3-0.5,1.4-1c0.2-0.6-0.5-1.9-0.8-2.5c-0.2-0.6-1.2-0.3-1,0.3c0.1,0.4,0.3,0.7,0.4,1.1c0.1,0.2,0.1,0.7,0.3,0.8
				c0,0,0,0.1,0,0.1c0.1,0.3,0.1,0.1,0.2-0.4c0,0-1.7,0.9-1.9,1c-1.6,0.8-3.2,1.7-4.8,2.5c0.2,0.3,0.4,0.5,0.6,0.8
				c1.1-0.9,2.3-1.8,3.3-2.8c0.9-0.9,1.7-2,2.6-2.9C35.9,82.1,35.2,81.4,34.7,81.9z"/>
		</g>
	</g>
	<g>
		<polygon class="st5" points="5.2,95.4 6.8,98.3 10.9,99.8 7.2,97.8 6.4,95.8 8.5,95 9,94.7 		"/>
		<g>
			<path class="st5" d="M4.8,95.6c0.4,0.7,0.7,1.3,1.1,2c0.2,0.5,0.4,0.9,0.8,1.1c1.2,0.6,2.7,1,4,1.5c0.5,0.2,0.9-0.6,0.4-0.9
				c-1-0.6-2-1.1-3.1-1.7c-0.1-0.1-0.4-0.3-0.5-0.3c0.2,0,0.2,0.4,0-0.1c-0.2-0.6-0.4-1.1-0.7-1.6c-0.1,0.2-0.2,0.4-0.3,0.6
				c0.9-0.3,1.9-0.6,2.7-1.1c0.5-0.3,0.2-1-0.4-0.9c-1.2,0.2-2.5,0.4-3.7,0.7c-0.6,0.1-0.4,1.1,0.3,1c1.2-0.2,2.5-0.4,3.7-0.7
				c-0.1-0.3-0.3-0.6-0.4-0.9c-0.7,0.5-1.6,0.7-2.4,1c-0.2,0.1-0.5,0.3-0.3,0.6c0.3,0.8,0.5,2,1.3,2.5c1.1,0.6,2.2,1.2,3.3,1.9
				c0.1-0.3,0.3-0.6,0.4-0.9c-1.2-0.5-2.5-1.2-3.8-1.5c-0.1,0-0.1-0.1-0.2-0.1c0.4,0.2,0.2,0.3,0.2,0.1c0-0.2-0.4-0.7-0.5-0.9
				c-0.3-0.6-0.7-1.2-1-1.8C5.4,94.6,4.5,95.1,4.8,95.6z"/>
		</g>
	</g>
	<g>
		<polygon class="st0" points="35.8,84.5 35.8,84.5 35.8,84.5 33.9,88.9 35.5,89.2 41,88.7 		"/>
		<g>
			<path class="st0" d="M36.2,84.1C36.2,84.1,36.2,84.1,36.2,84.1c-0.2-0.2-0.7-0.2-0.8,0.1c-0.6,1.5-1.3,2.9-1.9,4.4
				c-0.1,0.3-0.1,0.7,0.3,0.7c2.4,0.5,4.8,0.1,7.2-0.2c0.4,0,0.7-0.6,0.4-0.9C39.7,86.9,37.9,85.5,36.2,84.1
				c-0.5-0.4-1.2,0.3-0.7,0.7c1.7,1.4,3.5,2.8,5.2,4.2c0.1-0.3,0.2-0.6,0.4-0.9c-2.4,0.2-4.8,0.6-7,0.2c0.1,0.2,0.2,0.5,0.3,0.7
				c0.6-1.5,1.3-2.9,1.9-4.4c-0.3,0-0.5,0.1-0.8,0.1c0,0,0,0,0,0C36,85.2,36.7,84.5,36.2,84.1z"/>
		</g>
	</g>
	<g>
		<polygon class="st6" points="41,85.2 35.9,84.5 35.8,84.5 35.8,84.5 41,88.7 40.3,86.8 		"/>
		<g>
			<path class="st6" d="M41,84.7c-1.7-0.2-3.5-0.5-5.2-0.7c-0.4-0.1-0.7,0.6-0.4,0.9c1.7,1.4,3.5,2.8,5.2,4.2c0.3,0.3,1,0,0.8-0.5
				c-0.2-0.6-0.6-1.2-0.7-1.8c0,0.2-0.1,0.2,0.1,0c0.1-0.1,0.2-0.4,0.2-0.5c0.1-0.3,0.3-0.6,0.4-0.9c0.2-0.6-0.7-0.9-1-0.3
				c-0.2,0.5-0.8,1.3-0.7,1.9c0.1,0.6,0.5,1.3,0.7,1.9c0.3-0.2,0.6-0.3,0.8-0.5c-1.7-1.4-3.5-2.8-5.2-4.2c-0.1,0.3-0.2,0.6-0.4,0.9
				c1.7,0.2,3.5,0.5,5.2,0.7C41.7,85.7,41.7,84.7,41,84.7z"/>
		</g>
	</g>
	<g>
		<polygon class="st3" points="35.9,84.5 41.1,81.7 38.9,81 37.8,81.6 35.1,82.3 35.8,84.5 		"/>
		<g>
			<path class="st3" d="M36.1,84.9c1.8-0.9,3.5-1.9,5.3-2.8c0.4-0.2,0.3-0.8-0.1-0.9c-1.1-0.3-2-0.9-3-0.4c-0.9,0.5-2.1,0.7-3.3,0.9
				c-0.3,0.1-0.4,0.4-0.3,0.6c0.3,0.7,0.5,1.5,0.8,2.2c0.1,0.2,0.2,0.3,0.5,0.4c0,0,0,0,0,0c0.6,0.1,0.6-0.9,0-1c0,0,0,0,0,0
				c0.2,0.1,0.3,0.2,0.5,0.4c-0.3-0.7-0.5-1.5-0.8-2.2c-0.1,0.2-0.2,0.4-0.3,0.6c1-0.2,2-0.4,3-0.8c0.3-0.1,0.6-0.3,0.9-0.5
				c0.2-0.1-0.4-0.1-0.2,0c0.1,0,0.2,0.1,0.4,0.1c0.6,0.2,1.1,0.3,1.7,0.5c0-0.3-0.1-0.6-0.1-0.9c-1.8,0.9-3.5,1.9-5.3,2.8
				C35,84.3,35.5,85.2,36.1,84.9z"/>
		</g>
	</g>
	<g>
		<polygon class="st7" points="10.5,93.7 5.5,93.2 5.2,95.4 9,94.7 		"/>
		<g>
			<path class="st7" d="M10.5,93.2c-1.7-0.2-3.3-0.3-5-0.5c-0.2,0-0.5,0.2-0.5,0.4c-0.1,0.7-0.2,1.5-0.3,2.2
				c-0.1,0.4,0.2,0.7,0.6,0.6c1.1-0.2,2.2-0.4,3.3-0.6c0.8-0.1,1.4-0.7,2.1-1.2c0.5-0.4,0-1.2-0.5-0.9c-0.4,0.3-0.8,0.6-1.2,0.9
				c-0.3,0.2-0.3,0.2-0.8,0.3c-1,0.2-2.1,0.4-3.1,0.5c0.2,0.2,0.4,0.4,0.6,0.6c0.1-0.7,0.2-1.5,0.3-2.2c-0.2,0.1-0.3,0.2-0.5,0.4
				c1.7,0.2,3.3,0.3,5,0.5C11.1,94.2,11.1,93.2,10.5,93.2z"/>
		</g>
	</g>
	<g>
		<polygon class="st6" points="14.2,91.1 6.9,91.7 5.5,93.2 10.5,93.7 		"/>
		<g>
			<path class="st6" d="M14.2,90.6c-1.9,0.2-3.7,0.3-5.6,0.5c-0.5,0-1.3,0-1.8,0.2c-0.6,0.3-1.1,1.1-1.6,1.6
				c-0.3,0.3-0.1,0.8,0.4,0.9c0.8,0.1,1.7,0.2,2.5,0.2c0.7,0.1,1.8,0.4,2.5,0.2c0.6-0.1,1.3-0.8,1.8-1.2c0.7-0.5,1.4-1,2.1-1.5
				c0.5-0.4,0-1.2-0.5-0.9c-0.6,0.4-1.2,0.9-1.8,1.3c-0.4,0.3-0.9,0.6-1.3,0.9c-0.2,0.2-0.7,0.4-0.4,0.3c-0.8,0.1-1.8-0.2-2.6-0.2
				c-0.8-0.1-1.5-0.1-2.3-0.2c0.1,0.3,0.2,0.6,0.4,0.9c0.3-0.3,0.5-0.6,0.8-0.8C7,92.4,7.4,92.1,7,92.2C7.6,92,8.5,92.1,9.2,92
				c1.7-0.1,3.3-0.3,5-0.4C14.8,91.5,14.8,90.5,14.2,90.6z"/>
		</g>
	</g>
	<g>
		<polygon class="st5" points="20.5,86.7 18.8,87.2 15.4,88.5 11.4,90 6.9,91.7 14.2,91.1 		"/>
		<g>
			<path class="st5" d="M20.3,86.2c-4.6,1.4-9.1,3.3-13.6,5c-0.5,0.2-0.5,1,0.1,1c1.4-0.1,2.8-0.2,4.1-0.4c1-0.1,2.4,0,3.4-0.4
				c1.1-0.4,2.2-1.5,3.1-2.2c1-0.7,2.1-1.5,3.1-2.2c0.5-0.4,0-1.2-0.5-0.9c-2,1.4-4,3.4-6.2,4.3c-0.2,0.1-2.4,0.2-3.2,0.3
				c-1.3,0.1-2.6,0.2-3.9,0.3c0,0.3,0.1,0.7,0.1,1c4.5-1.7,9-3.6,13.6-5C21.2,87,21,86,20.3,86.2z"/>
		</g>
	</g>
	<g>
		<polygon class="st3" points="29.3,87.9 23.1,86.7 20.5,86.7 25.4,90 		"/>
		<g>
			<path class="st3" d="M29.4,87.5c-3-0.6-5.8-1.3-8.9-1.3c-0.5,0-0.6,0.7-0.3,0.9c1.6,1.1,3.2,2.2,4.9,3.3c0.1,0.1,0.4,0.1,0.5,0
				c1.3-0.7,2.6-1.4,3.9-2.1c0.6-0.3,0.1-1.2-0.5-0.9c-0.8,0.4-1.6,0.9-2.4,1.3c-0.4,0.2-1,0.4-1.3,0.7c-0.3,0.3,0.1-0.1,0.3,0.1
				c-0.1-0.1-0.2-0.1-0.3-0.2c-0.5-0.7-2-1.3-2.7-1.8c-0.6-0.4-1.3-0.9-1.9-1.3c-0.1,0.3-0.2,0.6-0.3,0.9c2.9,0,5.6,0.6,8.7,1.2
				C29.8,88.6,30,87.6,29.4,87.5z"/>
		</g>
	</g>
	<g>
		<polygon class="st0" points="25.2,90.1 25.4,90 20.5,86.7 14.2,91.1 		"/>
		<g>
			<path class="st5" d="M25.3,90.2c0.1,0,0.1-0.1,0.2-0.1c0.1,0,0.1-0.2,0-0.2c-1.6-1.1-3.2-2.2-4.9-3.3c0,0-0.1,0-0.1,0
				c-2.1,1.5-4.2,2.9-6.3,4.4c-0.1,0.1-0.1,0.2,0.1,0.2C17.9,90.9,21.5,90.6,25.3,90.2c0.1,0,0.1-0.2-0.1-0.2
				c-2.1,0.2-4.3,0.4-6.4,0.6c-1.2,0.1-2.4,0.2-3.7,0.3c-0.8,0.1-1.3,0.4-0.4,0c1.1-0.6,2.2-1.5,3.2-2.2c0.5-0.4,1.9-1.8,2.6-1.8
				c0.3,0,1.9,1.3,2.3,1.6c0.6,0.4,1.2,0.8,1.8,1.2c0.2,0.1,0.3,0.2,0.5,0.3c0.2,0.1,0.1-0.1,0,0C25,90.1,25.1,90.3,25.3,90.2z"/>
		</g>
	</g>
	<g>
		<polygon class="st4" points="29,92.9 33.2,90.5 33.2,90.5 27.2,91.5 		"/>
		<g>
			<path class="st4" d="M29.2,93.4c0.8-0.5,1.6-0.9,2.4-1.4c0.5-0.3,1.8-0.7,2-1.2c0.2-0.4-0.1-0.8-0.6-0.7c-2,0.4-4,0.7-6,1.1
				c-0.4,0.1-0.5,0.6-0.2,0.8c0.6,0.5,1.2,0.9,1.7,1.4c0.5,0.4,1.2-0.3,0.7-0.7c-0.6-0.5-1.2-0.9-1.7-1.4c-0.1,0.3-0.1,0.6-0.2,0.8
				c2-0.4,4-0.7,6-1.1c-0.2-0.2-0.4-0.5-0.6-0.7c0.1-0.3,0.2-0.1,0,0c-0.2,0-0.4,0.2-0.5,0.3c-0.5,0.3-1,0.5-1.4,0.8
				c-0.7,0.4-1.4,0.8-2.1,1.2C28.1,92.8,28.6,93.7,29.2,93.4z"/>
		</g>
	</g>
	<g>
		<polygon class="st3" points="27.2,91.5 33.2,90.5 33.7,89.3 25.4,90.1 		"/>
		<g>
			<path class="st3" d="M27.3,92c1.5-0.3,2.9-0.5,4.4-0.8c1.5-0.3,1.8-0.2,2.4-1.6c0.1-0.3,0-0.8-0.4-0.8c-2.8,0.2-5.5,0.5-8.3,0.7
				c-0.4,0-0.7,0.6-0.4,0.9c0.6,0.5,1.2,1,1.8,1.4c0.5,0.4,1.2-0.3,0.7-0.7c-0.6-0.5-1.2-1-1.8-1.4c-0.1,0.3-0.2,0.6-0.4,0.9
				c2.8-0.2,5.5-0.5,8.3-0.7c-0.1-0.3-0.3-0.5-0.4-0.8c-0.1,0.3-0.2,0.5-0.4,0.8c-0.2,0.4,0.3,0,0,0.1c-0.6,0.2-1.4,0.2-2,0.4
				c-1.3,0.2-2.5,0.4-3.8,0.7C26.4,91.1,26.7,92.1,27.3,92z"/>
		</g>
	</g>
</g>
</svg>
